
<svg xmlns="http://www.w3.org/2000/svg" viewBox="0 0 540 540">
  <defs>
    <style>
      .a {
        fill: #010101;
      }
    </style>
  </defs>
  <g>
    <polygon class="a" points="51.02 241.29 44.92 247.37 38.82 241.29 34.75 245.34 40.85 251.42 34.75 257.5 38.82 261.55 44.92 255.47 51.02 261.55 55.09 257.5 48.99 251.42 55.09 245.34 51.02 241.29"/>
    <polygon class="a" points="92.57 241.75 86.75 247.56 80.93 241.75 77.05 245.62 82.87 251.42 77.05 257.22 80.93 261.09 86.75 255.29 92.57 261.09 96.45 257.22 90.63 251.42 96.45 245.62 92.57 241.75"/>
    <polygon class="a" points="134.13 242.22 128.58 247.74 123.04 242.22 119.33 245.9 124.88 251.42 119.33 256.95 123.04 260.63 128.58 255.1 134.13 260.63 137.82 256.95 132.28 251.42 137.82 245.9 134.13 242.22"/>
    <polygon class="a" points="175.68 242.68 170.41 247.93 165.14 242.68 161.63 246.17 166.9 251.42 161.63 256.67 165.14 260.17 170.41 254.92 175.68 260.17 179.19 256.67 173.92 251.42 179.19 246.17 175.68 242.68"/>
    <polygon class="a" points="217.23 243.14 212.24 248.11 207.25 243.14 203.92 246.45 208.91 251.42 203.92 256.4 207.25 259.71 212.24 254.74 217.23 259.71 220.56 256.4 215.57 251.42 220.56 246.45 217.23 243.14"/>
    <polygon class="a" points="258.78 243.6 254.07 248.29 249.36 243.6 246.21 246.73 250.93 251.42 246.21 256.12 249.36 259.25 254.07 254.55 258.78 259.25 261.93 256.12 257.21 251.42 261.93 246.73 258.78 243.6"/>
    <polygon class="a" points="51.3 199.18 44.92 205.52 38.54 199.18 34.29 203.41 40.67 209.76 34.29 216.12 38.54 220.35 44.92 213.99 51.3 220.35 55.55 216.12 49.17 209.76 55.55 203.41 51.3 199.18"/>
    <polygon class="a" points="92.85 199.64 86.75 205.71 80.65 199.64 76.59 203.69 82.68 209.76 76.59 215.84 80.65 219.89 86.75 213.81 92.85 219.89 96.92 215.84 90.82 209.76 96.92 203.69 92.85 199.64"/>
    <polygon class="a" points="134.41 200.1 128.58 205.89 122.76 200.1 118.87 203.96 124.7 209.76 118.87 215.56 122.76 219.43 128.58 213.63 134.41 219.43 138.29 215.56 132.46 209.76 138.29 203.96 134.41 200.1"/>
    <polygon class="a" points="175.96 200.56 170.41 206.08 164.86 200.56 161.17 204.24 166.71 209.76 161.17 215.29 164.86 218.97 170.41 213.44 175.96 218.97 179.65 215.29 174.1 209.76 179.65 204.24 175.96 200.56"/>
    <polygon class="a" points="217.5 201.02 212.24 206.26 206.97 201.02 203.46 204.51 208.73 209.76 203.46 215.01 206.97 218.51 212.24 213.26 217.5 218.51 221.02 215.01 215.75 209.76 221.02 204.51 217.5 201.02"/>
    <polygon class="a" points="259.06 201.48 254.07 206.45 249.08 201.48 245.75 204.79 250.74 209.76 245.75 214.74 249.08 218.05 254.07 213.07 259.06 218.05 262.39 214.74 257.4 209.76 262.39 204.79 259.06 201.48"/>
    <polygon class="a" points="51.58 157.06 44.92 163.69 38.26 157.06 33.83 161.47 40.49 168.1 33.83 174.73 38.26 179.15 44.92 172.52 51.58 179.15 56.01 174.73 49.36 168.1 56.01 161.47 51.58 157.06"/>
    <polygon class="a" points="93.13 157.52 86.75 163.87 80.37 157.52 76.12 161.75 82.5 168.1 76.12 174.45 80.37 178.69 86.75 172.34 93.13 178.69 97.38 174.45 91 168.1 97.38 161.75 93.13 157.52"/>
    <polygon class="a" points="134.68 157.98 128.58 164.06 122.48 157.98 118.41 162.03 124.51 168.1 118.41 174.18 122.48 178.22 128.58 172.15 134.68 178.22 138.75 174.18 132.65 168.1 138.75 162.03 134.68 157.98"/>
    <polygon class="a" points="176.24 158.44 170.41 164.24 164.59 158.44 160.7 162.3 166.53 168.1 160.7 173.9 164.59 177.76 170.41 171.97 176.24 177.76 180.12 173.9 174.29 168.1 180.12 162.3 176.24 158.44"/>
    <polygon class="a" points="217.78 158.9 212.24 164.42 206.69 158.9 203 162.58 208.54 168.1 203 173.62 206.69 177.3 212.24 171.78 217.78 177.3 221.48 173.62 215.94 168.1 221.48 162.58 217.78 158.9"/>
    <polygon class="a" points="259.34 159.36 254.07 164.61 248.81 159.36 245.29 162.85 250.56 168.1 245.29 173.35 248.81 176.84 254.07 171.6 259.34 176.84 262.85 173.35 257.58 168.1 262.85 162.85 259.34 159.36"/>
    <polygon class="a" points="51.85 114.93 44.92 121.84 37.98 114.93 33.37 119.53 40.3 126.44 33.37 133.35 37.98 137.95 44.92 131.04 51.85 137.95 56.48 133.35 49.54 126.44 56.48 119.53 51.85 114.93"/>
    <polygon class="a" points="93.4 115.39 86.75 122.02 80.1 115.39 75.66 119.81 82.31 126.44 75.66 133.07 80.1 137.49 86.75 130.86 93.4 137.49 97.84 133.07 91.19 126.44 97.84 119.81 93.4 115.39"/>
    <polygon class="a" points="134.96 115.85 128.58 122.21 122.2 115.85 117.95 120.09 124.33 126.44 117.95 132.79 122.2 137.03 128.58 130.67 134.96 137.03 139.21 132.79 132.83 126.44 139.21 120.09 134.96 115.85"/>
    <polygon class="a" points="176.51 116.31 170.41 122.39 164.31 116.31 160.24 120.36 166.34 126.44 160.24 132.52 164.31 136.57 170.41 130.49 176.51 136.57 180.58 132.52 174.47 126.44 180.58 120.36 176.51 116.31"/>
    <polygon class="a" points="218.06 116.77 212.24 122.58 206.42 116.77 202.53 120.64 208.36 126.44 202.53 132.24 206.42 136.11 212.24 130.31 218.06 136.11 221.95 132.24 216.12 126.44 221.95 120.64 218.06 116.77"/>
    <polygon class="a" points="259.62 117.23 254.07 122.76 248.53 117.23 244.83 120.91 250.37 126.44 244.83 131.97 248.53 135.65 254.07 130.12 259.62 135.65 263.31 131.97 257.77 126.44 263.31 120.91 259.62 117.23"/>
    <polygon class="a" points="52.13 72.81 44.92 79.99 37.71 72.81 32.91 77.6 40.12 84.78 32.91 91.96 37.71 96.75 44.92 89.56 52.13 96.75 56.94 91.96 49.73 84.78 56.94 77.6 52.13 72.81"/>
    <polygon class="a" points="93.68 73.27 86.75 80.17 79.82 73.27 75.2 77.88 82.13 84.78 75.2 91.69 79.82 96.29 86.75 89.38 93.68 96.29 98.3 91.69 91.37 84.78 98.3 77.88 93.68 73.27"/>
    <polygon class="a" points="135.24 73.73 128.58 80.36 121.93 73.73 117.48 78.15 124.14 84.78 117.48 91.41 121.93 95.83 128.58 89.19 135.24 95.83 139.67 91.41 133.02 84.78 139.67 78.15 135.24 73.73"/>
    <polygon class="a" points="176.79 74.19 170.41 80.54 164.03 74.19 159.78 78.43 166.16 84.78 159.78 91.13 164.03 95.37 170.41 89.01 176.79 95.37 181.04 91.13 174.66 84.78 181.04 78.43 176.79 74.19"/>
    <polygon class="a" points="218.34 74.65 212.24 80.73 206.14 74.65 202.07 78.7 208.18 84.78 202.07 90.86 206.14 94.91 212.24 88.82 218.34 94.91 222.41 90.86 216.31 84.78 222.41 78.7 218.34 74.65"/>
    <polygon class="a" points="259.89 75.11 254.07 80.91 248.25 75.11 244.37 78.98 250.19 84.78 244.37 90.58 248.25 94.44 254.07 88.64 259.89 94.44 263.77 90.58 257.95 84.78 263.77 78.98 259.89 75.11"/>
    <polygon class="a" points="52.41 30.69 44.92 38.15 37.43 30.69 32.44 35.66 39.93 43.12 32.44 50.57 37.43 55.54 44.92 48.09 52.41 55.54 57.4 50.57 49.91 43.12 57.4 35.66 52.41 30.69"/>
    <polygon class="a" points="93.96 31.15 86.75 38.33 79.54 31.15 74.74 35.94 81.94 43.12 74.74 50.3 79.54 55.08 86.75 47.91 93.96 55.08 98.76 50.3 91.56 43.12 98.76 35.94 93.96 31.15"/>
    <polygon class="a" points="135.51 31.61 128.58 38.51 121.65 31.61 117.02 36.22 123.96 43.12 117.02 50.02 121.65 54.62 128.58 47.73 135.51 54.62 140.14 50.02 133.2 43.12 140.14 36.22 135.51 31.61"/>
    <polygon class="a" points="177.07 32.07 170.41 38.7 163.75 32.07 159.32 36.49 165.97 43.12 159.32 49.75 163.75 54.16 170.41 47.54 177.07 54.16 181.5 49.75 174.84 43.12 181.5 36.49 177.07 32.07"/>
    <polygon class="a" points="218.61 32.53 212.24 38.88 205.86 32.53 201.61 36.77 207.99 43.12 201.61 49.47 205.86 53.7 212.24 47.36 218.61 53.7 222.87 49.47 216.49 43.12 222.87 36.77 218.61 32.53"/>
    <polygon class="a" points="260.17 32.99 254.07 39.07 247.97 32.99 243.9 37.05 250 43.12 243.9 49.19 247.97 53.24 254.07 47.17 260.17 53.24 264.24 49.19 258.14 43.12 264.24 37.05 260.17 32.99"/>
    <polygon class="a" points="300.34 244.06 295.9 248.48 291.46 244.06 288.51 247 292.94 251.42 288.51 255.84 291.46 258.79 295.9 254.37 300.34 258.79 303.3 255.84 298.86 251.42 303.3 247 300.34 244.06"/>
    <polygon class="a" points="341.89 244.52 337.73 248.66 333.57 244.52 330.8 247.28 334.96 251.42 330.8 255.57 333.57 258.33 337.73 254.19 341.89 258.33 344.66 255.57 340.5 251.42 344.66 247.28 341.89 244.52"/>
    <polygon class="a" points="383.44 244.98 379.56 248.85 375.68 244.98 373.09 247.56 376.97 251.42 373.09 255.29 375.68 257.87 379.56 254 383.44 257.87 386.03 255.29 382.15 251.42 386.03 247.56 383.44 244.98"/>
    <polygon class="a" points="425 245.44 421.39 249.03 417.78 245.44 415.38 247.83 418.99 251.42 415.38 255.01 417.78 257.41 421.39 253.82 425 257.41 427.4 255.01 423.79 251.42 427.4 247.83 425 245.44"/>
    <polygon class="a" points="466.55 245.9 463.22 249.22 459.89 245.9 457.68 248.11 461 251.42 457.68 254.74 459.89 256.95 463.22 253.63 466.55 256.95 468.77 254.74 465.44 251.42 468.77 248.11 466.55 245.9"/>
    <polygon class="a" points="508.1 246.36 505.05 249.4 502 246.36 499.97 248.38 503.01 251.42 499.97 254.46 502 256.49 505.05 253.45 508.1 256.49 510.13 254.46 507.08 251.42 510.13 248.38 508.1 246.36"/>
    <polygon class="a" points="300.62 201.94 295.9 206.63 291.18 201.94 288.04 205.07 292.76 209.76 288.04 214.46 291.18 217.59 295.9 212.89 300.62 217.59 303.76 214.46 299.04 209.76 303.76 205.07 300.62 201.94"/>
    <polygon class="a" points="342.17 202.4 337.73 206.81 333.29 202.4 330.34 205.34 334.77 209.76 330.34 214.18 333.29 217.13 337.73 212.71 342.17 217.13 345.12 214.18 340.69 209.76 345.12 205.34 342.17 202.4"/>
    <polygon class="a" points="383.72 202.86 379.56 207 375.4 202.86 372.63 205.62 376.79 209.76 372.63 213.91 375.4 216.67 379.56 212.52 383.72 216.67 386.49 213.91 382.33 209.76 386.49 205.62 383.72 202.86"/>
    <polygon class="a" points="425.27 203.32 421.39 207.18 417.51 203.32 414.92 205.9 418.8 209.76 414.92 213.63 417.51 216.21 421.39 212.34 425.27 216.21 427.86 213.63 423.98 209.76 427.86 205.9 425.27 203.32"/>
    <polygon class="a" points="466.82 203.78 463.22 207.37 459.62 203.78 457.21 206.17 460.82 209.76 457.21 213.35 459.62 215.75 463.22 212.15 466.82 215.75 469.23 213.35 465.62 209.76 469.23 206.17 466.82 203.78"/>
    <polygon class="a" points="508.38 204.24 505.05 207.55 501.72 204.24 499.5 206.45 502.83 209.76 499.5 213.08 501.72 215.29 505.05 211.97 508.38 215.29 510.59 213.08 507.27 209.76 510.59 206.45 508.38 204.24"/>
    <polygon class="a" points="300.89 159.82 295.9 164.79 290.91 159.82 287.58 163.13 292.57 168.1 287.58 173.07 290.91 176.38 295.9 171.42 300.89 176.38 304.22 173.07 299.23 168.1 304.22 163.13 300.89 159.82"/>
    <polygon class="a" points="342.44 160.28 337.73 164.98 333.02 160.28 329.88 163.41 334.59 168.1 329.88 172.79 333.02 175.92 337.73 171.23 342.44 175.92 345.58 172.79 340.87 168.1 345.58 163.41 342.44 160.28"/>
    <polygon class="a" points="384 160.74 379.56 165.16 375.12 160.74 372.16 163.68 376.6 168.1 372.16 172.52 375.12 175.46 379.56 171.05 384 175.46 386.95 172.52 382.52 168.1 386.95 163.68 384 160.74"/>
    <polygon class="a" points="425.55 161.2 421.39 165.34 417.23 161.2 414.46 163.96 418.62 168.1 414.46 172.24 417.23 175 421.39 170.86 425.55 175 428.32 172.24 424.16 168.1 428.32 163.96 425.55 161.2"/>
    <polygon class="a" points="467.1 161.66 463.22 165.53 459.34 161.66 456.75 164.24 460.63 168.1 456.75 171.97 459.34 174.54 463.22 170.68 467.1 174.54 469.69 171.97 465.81 168.1 469.69 164.24 467.1 161.66"/>
    <polygon class="a" points="508.65 162.12 505.05 165.71 501.45 162.12 499.04 164.51 502.65 168.1 499.04 171.69 501.45 174.08 505.05 170.5 508.65 174.08 511.06 171.69 507.45 168.1 511.06 164.51 508.65 162.12"/>
    <polygon class="a" points="301.17 117.69 295.9 122.94 290.63 117.69 287.12 121.19 292.39 126.44 287.12 131.69 290.63 135.19 295.9 129.94 301.17 135.19 304.68 131.69 299.41 126.44 304.68 121.19 301.17 117.69"/>
    <polygon class="a" points="342.72 118.15 337.73 123.13 332.74 118.15 329.41 121.47 334.4 126.44 329.41 131.41 332.74 134.72 337.73 129.75 342.72 134.72 346.05 131.41 341.06 126.44 346.05 121.47 342.72 118.15"/>
    <polygon class="a" points="384.28 118.61 379.56 123.31 374.85 118.61 371.7 121.74 376.42 126.44 371.7 131.14 374.85 134.26 379.56 129.57 384.28 134.26 387.42 131.14 382.7 126.44 387.42 121.74 384.28 118.61"/>
    <polygon class="a" points="425.83 119.07 421.39 123.5 416.95 119.07 413.99 122.02 418.43 126.44 413.99 130.86 416.95 133.8 421.39 129.38 425.83 133.8 428.79 130.86 424.35 126.44 428.79 122.02 425.83 119.07"/>
    <polygon class="a" points="467.38 119.53 463.22 123.68 459.06 119.53 456.29 122.3 460.45 126.44 456.29 130.58 459.06 133.34 463.22 129.2 467.38 133.34 470.15 130.58 465.99 126.44 470.15 122.3 467.38 119.53"/>
    <polygon class="a" points="508.93 120 505.05 123.86 501.17 120 498.58 122.57 502.46 126.44 498.58 130.31 501.17 132.88 505.05 129.02 508.93 132.88 511.52 130.31 507.64 126.44 511.52 122.57 508.93 120"/>
    <polygon class="a" points="301.45 75.57 295.9 81.09 290.35 75.57 286.66 79.26 292.2 84.78 286.66 90.31 290.35 93.98 295.9 88.46 301.45 93.98 305.14 90.31 299.6 84.78 305.14 79.26 301.45 75.57"/>
    <polygon class="a" points="343 76.03 337.73 81.28 332.46 76.03 328.95 79.53 334.22 84.78 328.95 90.03 332.46 93.52 337.73 88.27 343 93.52 346.51 90.03 341.24 84.78 346.51 79.53 343 76.03"/>
    <polygon class="a" points="384.55 76.49 379.56 81.46 374.57 76.49 371.24 79.81 376.23 84.78 371.24 89.75 374.57 93.06 379.56 88.09 384.55 93.06 387.88 89.75 382.89 84.78 387.88 79.81 384.55 76.49"/>
    <polygon class="a" points="426.11 76.95 421.39 81.65 416.67 76.95 413.53 80.08 418.25 84.78 413.53 89.48 416.67 92.6 421.39 87.9 426.11 92.6 429.25 89.48 424.53 84.78 429.25 80.08 426.11 76.95"/>
    <polygon class="a" points="467.65 77.41 463.22 81.83 458.78 77.41 455.83 80.36 460.26 84.78 455.83 89.2 458.78 92.14 463.22 87.72 467.65 92.14 470.62 89.2 466.18 84.78 470.62 80.36 467.65 77.41"/>
    <polygon class="a" points="509.21 77.87 505.05 82.02 500.89 77.87 498.12 80.64 502.28 84.78 498.12 88.92 500.89 91.68 505.05 87.54 509.21 91.68 511.98 88.92 507.82 84.78 511.98 80.64 509.21 77.87"/>
    <polygon class="a" points="301.73 33.45 295.9 39.25 290.07 33.45 286.19 37.32 292.02 43.12 286.19 48.92 290.07 52.78 295.9 46.99 301.73 52.78 305.61 48.92 299.78 43.12 305.61 37.32 301.73 33.45"/>
    <polygon class="a" points="343.27 33.91 337.73 39.44 332.19 33.91 328.49 37.6 334.03 43.12 328.49 48.64 332.19 52.32 337.73 46.8 343.27 52.32 346.97 48.64 341.43 43.12 346.97 37.6 343.27 33.91"/>
    <polygon class="a" points="384.83 34.37 379.56 39.62 374.29 34.37 370.78 37.87 376.05 43.12 370.78 48.37 374.29 51.86 379.56 46.62 384.83 51.86 388.34 48.37 383.07 43.12 388.34 37.87 384.83 34.37"/>
    <polygon class="a" points="426.38 34.83 421.39 39.8 416.4 34.83 413.07 38.15 418.06 43.12 413.07 48.09 416.4 51.4 421.39 46.43 426.38 51.4 429.71 48.09 424.72 43.12 429.71 38.15 426.38 34.83"/>
    <polygon class="a" points="467.93 35.29 463.22 39.99 458.51 35.29 455.36 38.42 460.08 43.12 455.36 47.81 458.51 50.94 463.22 46.25 467.93 50.94 471.08 47.81 466.36 43.12 471.08 38.42 467.93 35.29"/>
    <polygon class="a" points="509.49 35.75 505.05 40.17 500.62 35.75 497.66 38.7 502.09 43.12 497.66 47.54 500.62 50.48 505.05 46.07 509.49 50.48 512.44 47.54 508.01 43.12 512.44 38.7 509.49 35.75"/>
    <polygon class="a" points="49.36 494.02 44.92 498.44 40.48 494.02 37.53 496.97 41.96 501.39 37.53 505.81 40.48 508.76 44.92 504.33 49.36 508.76 52.32 505.81 47.88 501.39 52.32 496.97 49.36 494.02"/>
    <polygon class="a" points="90.91 494.48 86.75 498.63 82.59 494.48 79.82 497.25 83.98 501.39 79.82 505.53 82.59 508.3 86.75 504.15 90.91 508.3 93.68 505.53 89.52 501.39 93.68 497.25 90.91 494.48"/>
    <polygon class="a" points="132.46 494.94 128.58 498.81 124.7 494.94 122.11 497.52 125.99 501.39 122.11 505.26 124.7 507.84 128.58 503.97 132.46 507.84 135.05 505.26 131.17 501.39 135.05 497.52 132.46 494.94"/>
    <polygon class="a" points="174.02 495.4 170.41 499 166.8 495.4 164.4 497.8 168.01 501.39 164.4 504.98 166.8 507.38 170.41 503.78 174.02 507.38 176.42 504.98 172.81 501.39 176.42 497.8 174.02 495.4"/>
    <polygon class="a" points="215.56 495.87 212.24 499.18 208.91 495.87 206.69 498.07 210.02 501.39 206.69 504.7 208.91 506.92 212.24 503.6 215.56 506.92 217.79 504.7 214.46 501.39 217.79 498.07 215.56 495.87"/>
    <polygon class="a" points="257.12 496.33 254.07 499.37 251.02 496.33 248.99 498.35 252.04 501.39 248.99 504.43 251.02 506.46 254.07 503.42 257.12 506.46 259.15 504.43 256.11 501.39 259.15 498.35 257.12 496.33"/>
    <polygon class="a" points="49.64 451.9 44.92 456.6 40.2 451.9 37.06 455.03 41.78 459.73 37.06 464.43 40.2 467.55 44.92 462.86 49.64 467.55 52.78 464.43 48.06 459.73 52.78 455.03 49.64 451.9"/>
    <polygon class="a" points="91.19 452.37 86.75 456.78 82.31 452.37 79.36 455.31 83.79 459.73 79.36 464.15 82.31 467.09 86.75 462.67 91.19 467.09 94.14 464.15 89.71 459.73 94.14 455.31 91.19 452.37"/>
    <polygon class="a" points="132.74 452.83 128.58 456.96 124.42 452.83 121.64 455.59 125.81 459.73 121.64 463.87 124.42 466.63 128.58 462.49 132.74 466.63 135.51 463.87 131.35 459.73 135.51 455.59 132.74 452.83"/>
    <polygon class="a" points="174.29 453.29 170.41 457.15 166.53 453.29 163.94 455.86 167.82 459.73 163.94 463.6 166.53 466.17 170.41 462.31 174.29 466.17 176.88 463.6 173 459.73 176.88 455.86 174.29 453.29"/>
    <polygon class="a" points="215.84 453.75 212.24 457.33 208.63 453.75 206.23 456.14 209.84 459.73 206.23 463.32 208.63 465.71 212.24 462.12 215.84 465.71 218.25 463.32 214.64 459.73 218.25 456.14 215.84 453.75"/>
    <polygon class="a" points="257.4 454.21 254.07 457.52 250.75 454.21 248.53 456.42 251.85 459.73 248.53 463.04 250.75 465.25 254.07 461.94 257.4 465.25 259.61 463.04 256.29 459.73 259.61 456.42 257.4 454.21"/>
    <polygon class="a" points="49.91 409.78 44.92 414.76 39.93 409.78 36.6 413.1 41.59 418.07 36.6 423.04 39.93 426.35 44.92 421.38 49.91 426.35 53.24 423.04 48.25 418.07 53.24 413.1 49.91 409.78"/>
    <polygon class="a" points="91.46 410.25 86.75 414.94 82.04 410.25 78.9 413.37 83.61 418.07 78.9 422.76 82.04 425.89 86.75 421.2 91.46 425.89 94.61 422.76 89.89 418.07 94.61 413.37 91.46 410.25"/>
    <polygon class="a" points="133.02 410.7 128.58 415.13 124.14 410.7 121.18 413.65 125.62 418.07 121.18 422.49 124.14 425.43 128.58 421.01 133.02 425.43 135.97 422.49 131.54 418.07 135.97 413.65 133.02 410.7"/>
    <polygon class="a" points="174.57 411.17 170.41 415.31 166.25 411.17 163.48 413.93 167.64 418.07 163.48 422.21 166.25 424.97 170.41 420.83 174.57 424.97 177.34 422.21 173.18 418.07 177.34 413.93 174.57 411.17"/>
    <polygon class="a" points="216.12 411.63 212.24 415.49 208.36 411.63 205.77 414.2 209.65 418.07 205.77 421.93 208.36 424.51 212.24 420.65 216.12 424.51 218.71 421.93 214.83 418.07 218.71 414.2 216.12 411.63"/>
    <polygon class="a" points="257.67 412.08 254.07 415.68 250.47 412.08 248.06 414.48 251.67 418.07 248.06 421.66 250.47 424.05 254.07 420.46 257.67 424.05 260.08 421.66 256.48 418.07 260.08 414.48 257.67 412.08"/>
    <polygon class="a" points="50.19 367.66 44.92 372.91 39.65 367.66 36.14 371.16 41.41 376.41 36.14 381.66 39.65 385.15 44.92 379.9 50.19 385.15 53.7 381.66 48.43 376.41 53.7 371.16 50.19 367.66"/>
    <polygon class="a" points="91.74 368.12 86.75 373.09 81.76 368.12 78.43 371.43 83.42 376.41 78.43 381.38 81.76 384.69 86.75 379.72 91.74 384.69 95.07 381.38 90.08 376.41 95.07 371.43 91.74 368.12"/>
    <polygon class="a" points="133.3 368.58 128.58 373.28 123.87 368.58 120.72 371.71 125.44 376.41 120.72 381.1 123.87 384.23 128.58 379.54 133.3 384.23 136.44 381.1 131.72 376.41 136.44 371.71 133.3 368.58"/>
    <polygon class="a" points="174.85 369.04 170.41 373.46 165.97 369.04 163.01 371.99 167.45 376.41 163.01 380.83 165.97 383.77 170.41 379.35 174.85 383.77 177.81 380.83 173.37 376.41 177.81 371.99 174.85 369.04"/>
    <polygon class="a" points="216.4 369.5 212.24 373.65 208.08 369.5 205.31 372.26 209.47 376.41 205.31 380.55 208.08 383.31 212.24 379.17 216.4 383.31 219.17 380.55 215.01 376.41 219.17 372.26 216.4 369.5"/>
    <polygon class="a" points="257.95 369.96 254.07 373.83 250.19 369.96 247.6 372.54 251.48 376.41 247.6 380.27 250.19 382.85 254.07 378.98 257.95 382.85 260.54 380.27 256.66 376.41 260.54 372.54 257.95 369.96"/>
    <polygon class="a" points="50.47 325.54 44.92 331.06 39.37 325.54 35.68 329.22 41.23 334.74 35.68 340.27 39.37 343.95 44.92 338.42 50.47 343.95 54.16 340.27 48.62 334.74 54.16 329.22 50.47 325.54"/>
    <polygon class="a" points="92.02 326 86.75 331.25 81.48 326 77.97 329.5 83.24 334.74 77.97 340 81.48 343.49 86.75 338.24 92.02 343.49 95.53 340 90.26 334.74 95.53 329.5 92.02 326"/>
    <polygon class="a" points="133.57 326.46 128.58 331.43 123.59 326.46 120.26 329.78 125.25 334.74 120.26 339.72 123.59 343.03 128.58 338.06 133.57 343.03 136.9 339.72 131.91 334.74 136.9 329.78 133.57 326.46"/>
    <polygon class="a" points="175.13 326.92 170.41 331.61 165.69 326.92 162.55 330.05 167.27 334.74 162.55 339.44 165.69 342.57 170.41 337.87 175.13 342.57 178.27 339.44 173.55 334.74 178.27 330.05 175.13 326.92"/>
    <polygon class="a" points="216.67 327.38 212.24 331.8 207.8 327.38 204.85 330.33 209.28 334.74 204.85 339.17 207.8 342.11 212.24 337.69 216.67 342.11 219.64 339.17 215.2 334.74 219.64 330.33 216.67 327.38"/>
    <polygon class="a" points="258.23 327.84 254.07 331.98 249.91 327.84 247.14 330.6 251.3 334.74 247.14 338.89 249.91 341.65 254.07 337.5 258.23 341.65 261 338.89 256.85 334.74 261 330.6 258.23 327.84"/>
    <polygon class="a" points="50.75 283.42 44.92 289.22 39.09 283.42 35.22 287.29 41.04 293.08 35.22 298.88 39.09 302.75 44.92 296.95 50.75 302.75 54.63 298.88 48.8 293.08 54.63 287.29 50.75 283.42"/>
    <polygon class="a" points="92.29 283.88 86.75 289.4 81.21 283.88 77.51 287.56 83.05 293.08 77.51 298.61 81.21 302.29 86.75 296.77 92.29 302.29 95.99 298.61 90.45 293.08 95.99 287.56 92.29 283.88"/>
    <polygon class="a" points="133.85 284.34 128.58 289.58 123.31 284.34 119.8 287.84 125.07 293.08 119.8 298.33 123.31 301.83 128.58 296.58 133.85 301.83 137.36 298.33 132.09 293.08 137.36 287.84 133.85 284.34"/>
    <polygon class="a" points="175.41 284.8 170.41 289.77 165.42 284.8 162.09 288.12 167.08 293.08 162.09 298.06 165.42 301.37 170.41 296.4 175.41 301.37 178.73 298.06 173.74 293.08 178.73 288.12 175.41 284.8"/>
    <polygon class="a" points="216.95 285.26 212.24 289.95 207.53 285.26 204.38 288.39 209.1 293.08 204.38 297.78 207.53 300.91 212.24 296.22 216.95 300.91 220.1 297.78 215.38 293.08 220.1 288.39 216.95 285.26"/>
    <polygon class="a" points="258.51 285.72 254.07 290.14 249.64 285.72 246.68 288.67 251.11 293.08 246.68 297.5 249.64 300.45 254.07 296.03 258.51 300.45 261.46 297.5 257.03 293.08 261.46 288.67 258.51 285.72"/>
    <polygon class="a" points="298.67 496.79 295.9 499.55 293.13 496.79 291.28 498.63 294.05 501.39 291.28 504.15 293.13 506 295.9 503.23 298.67 506 300.52 504.15 297.75 501.39 300.52 498.63 298.67 496.79"/>
    <polygon class="a" points="340.23 497.25 337.73 499.73 335.24 497.25 333.57 498.9 336.06 501.39 333.57 503.88 335.24 505.54 337.73 503.05 340.23 505.54 341.89 503.88 339.39 501.39 341.89 498.9 340.23 497.25"/>
    <polygon class="a" points="381.78 497.71 379.56 499.92 377.34 497.71 375.86 499.18 378.08 501.39 375.86 503.6 377.34 505.07 379.56 502.86 381.78 505.07 383.26 503.6 381.04 501.39 383.26 499.18 381.78 497.71"/>
    <polygon class="a" points="423.33 498.17 421.39 500.1 419.45 498.17 418.15 499.46 420.1 501.39 418.15 503.32 419.45 504.61 421.39 502.68 423.33 504.61 424.63 503.32 422.68 501.39 424.63 499.46 423.33 498.17"/>
    <polygon class="a" points="464.88 498.63 463.22 500.29 461.56 498.63 460.45 499.73 462.11 501.39 460.45 503.05 461.56 504.15 463.22 502.5 464.88 504.15 465.99 503.05 464.33 501.39 465.99 499.73 464.88 498.63"/>
    <polygon class="a" points="506.44 499.09 505.05 500.47 503.66 499.09 502.74 500.01 504.13 501.39 502.74 502.77 503.66 503.69 505.05 502.31 506.44 503.69 507.36 502.77 505.97 501.39 507.36 500.01 506.44 499.09"/>
    <polygon class="a" points="298.95 454.67 295.9 457.7 292.85 454.67 290.82 456.69 293.87 459.73 290.82 462.77 292.85 464.79 295.9 461.75 298.95 464.79 300.99 462.77 297.93 459.73 300.99 456.69 298.95 454.67"/>
    <polygon class="a" points="340.5 455.13 337.73 457.89 334.96 455.13 333.11 456.97 335.88 459.73 333.11 462.49 334.96 464.33 337.73 461.57 340.5 464.33 342.35 462.49 339.58 459.73 342.35 456.97 340.5 455.13"/>
    <polygon class="a" points="382.06 455.59 379.56 458.07 377.06 455.59 375.4 457.24 377.89 459.73 375.4 462.21 377.06 463.87 379.56 461.38 382.06 463.87 383.72 462.21 381.22 459.73 383.72 457.24 382.06 455.59"/>
    <polygon class="a" points="423.61 456.05 421.39 458.25 419.17 456.05 417.69 457.52 419.91 459.73 417.69 461.94 419.17 463.41 421.39 461.2 423.61 463.41 425.09 461.94 422.87 459.73 425.09 457.52 423.61 456.05"/>
    <polygon class="a" points="465.16 456.51 463.22 458.44 461.28 456.51 459.99 457.8 461.93 459.73 459.99 461.66 461.28 462.95 463.22 461.02 465.16 462.95 466.46 461.66 464.51 459.73 466.46 457.8 465.16 456.51"/>
    <polygon class="a" points="506.71 456.97 505.05 458.62 503.39 456.97 502.28 458.07 503.94 459.73 502.28 461.39 503.39 462.49 505.05 460.83 506.71 462.49 507.82 461.39 506.16 459.73 507.82 458.07 506.71 456.97"/>
    <polygon class="a" points="299.23 412.55 295.9 415.86 292.57 412.55 290.36 414.75 293.68 418.07 290.36 421.38 292.57 423.59 295.9 420.28 299.23 423.59 301.45 421.38 298.12 418.07 301.45 414.75 299.23 412.55"/>
    <polygon class="a" points="340.78 413.01 337.73 416.05 334.68 413.01 332.65 415.03 335.69 418.07 332.65 421.11 334.68 423.13 337.73 420.09 340.78 423.13 342.81 421.11 339.76 418.07 342.81 415.03 340.78 413.01"/>
    <polygon class="a" points="382.33 413.47 379.56 416.23 376.79 413.47 374.94 415.31 377.71 418.07 374.94 420.83 376.79 422.67 379.56 419.91 382.33 422.67 384.18 420.83 381.41 418.07 384.18 415.31 382.33 413.47"/>
    <polygon class="a" points="423.89 413.93 421.39 416.41 418.89 413.93 417.23 415.58 419.73 418.07 417.23 420.55 418.89 422.21 421.39 419.73 423.89 422.21 425.55 420.55 423.05 418.07 425.55 415.58 423.89 413.93"/>
    <polygon class="a" points="465.44 414.39 463.22 416.6 461 414.39 459.52 415.86 461.74 418.07 459.52 420.28 461 421.75 463.22 419.54 465.44 421.75 466.92 420.28 464.7 418.07 466.92 415.86 465.44 414.39"/>
    <polygon class="a" points="506.99 414.85 505.05 416.78 503.11 414.85 501.81 416.13 503.75 418.07 501.81 420 503.11 421.29 505.05 419.36 506.99 421.29 508.28 420 506.34 418.07 508.28 416.13 506.99 414.85"/>
    <polygon class="a" points="299.51 370.42 295.9 374.01 292.29 370.42 289.89 372.81 293.5 376.41 289.89 380 292.29 382.39 295.9 378.8 299.51 382.39 301.91 380 298.3 376.41 301.91 372.81 299.51 370.42"/>
    <polygon class="a" points="341.06 370.88 337.73 374.2 334.4 370.88 332.19 373.09 335.51 376.41 332.19 379.72 334.4 381.93 337.73 378.62 341.06 381.93 343.27 379.72 339.95 376.41 343.27 373.09 341.06 370.88"/>
    <polygon class="a" points="382.61 371.34 379.56 374.38 376.51 371.34 374.47 373.37 377.52 376.41 374.47 379.44 376.51 381.47 379.56 378.43 382.61 381.47 384.64 379.44 381.59 376.41 384.64 373.37 382.61 371.34"/>
    <polygon class="a" points="424.17 371.8 421.39 374.57 418.62 371.8 416.77 373.64 419.54 376.41 416.77 379.17 418.62 381.01 421.39 378.25 424.17 381.01 426.01 379.17 423.24 376.41 426.01 373.64 424.17 371.8"/>
    <polygon class="a" points="465.71 372.26 463.22 374.75 460.73 372.26 459.06 373.92 461.56 376.41 459.06 378.89 460.73 380.55 463.22 378.06 465.71 380.55 467.38 378.89 464.88 376.41 467.38 373.92 465.71 372.26"/>
    <polygon class="a" points="507.27 372.72 505.05 374.93 502.83 372.72 501.35 374.2 503.57 376.41 501.35 378.62 502.83 380.09 505.05 377.88 507.27 380.09 508.75 378.62 506.53 376.41 508.75 374.2 507.27 372.72"/>
    <polygon class="a" points="299.78 328.3 295.9 332.17 292.02 328.3 289.43 330.88 293.31 334.74 289.43 338.61 292.02 341.19 295.9 337.32 299.78 341.19 302.37 338.61 298.49 334.74 302.37 330.88 299.78 328.3"/>
    <polygon class="a" points="341.33 328.76 337.73 332.35 334.13 328.76 331.72 331.16 335.33 334.74 331.72 338.34 334.13 340.73 337.73 337.13 341.33 340.73 343.74 338.34 340.13 334.74 343.74 331.16 341.33 328.76"/>
    <polygon class="a" points="382.89 329.22 379.56 332.54 376.23 329.22 374.01 331.43 377.34 334.74 374.01 338.06 376.23 340.27 379.56 336.95 382.89 340.27 385.11 338.06 381.78 334.74 385.11 331.43 382.89 329.22"/>
    <polygon class="a" points="424.44 329.68 421.39 332.72 418.34 329.68 416.31 331.71 419.36 334.74 416.31 337.78 418.34 339.81 421.39 336.77 424.44 339.81 426.47 337.78 423.42 334.74 426.47 331.71 424.44 329.68"/>
    <polygon class="a" points="465.99 330.14 463.22 332.9 460.45 330.14 458.6 331.98 461.37 334.74 458.6 337.51 460.45 339.35 463.22 336.58 465.99 339.35 467.84 337.51 465.07 334.74 467.84 331.98 465.99 330.14"/>
    <polygon class="a" points="507.55 330.6 505.05 333.09 502.56 330.6 500.89 332.26 503.38 334.74 500.89 337.23 502.56 338.89 505.05 336.4 507.55 338.89 509.21 337.23 506.71 334.74 509.21 332.26 507.55 330.6"/>
    <polygon class="a" points="300.06 286.18 295.9 290.32 291.74 286.18 288.97 288.94 293.13 293.08 288.97 297.23 291.74 299.99 295.9 295.85 300.06 299.99 302.83 297.23 298.67 293.08 302.83 288.94 300.06 286.18"/>
    <polygon class="a" points="341.61 286.64 337.73 290.5 333.85 286.64 331.26 289.22 335.14 293.08 331.26 296.95 333.85 299.52 337.73 295.66 341.61 299.52 344.2 296.95 340.32 293.08 344.2 289.22 341.61 286.64"/>
    <polygon class="a" points="383.17 287.1 379.56 290.69 375.96 287.1 373.55 289.5 377.15 293.08 373.55 296.67 375.96 299.06 379.56 295.48 383.17 299.06 385.57 296.67 381.96 293.08 385.57 289.5 383.17 287.1"/>
    <polygon class="a" points="424.72 287.56 421.39 290.87 418.06 287.56 415.84 289.77 419.17 293.08 415.84 296.4 418.06 298.61 421.39 295.3 424.72 298.61 426.94 296.4 423.61 293.08 426.94 289.77 424.72 287.56"/>
    <polygon class="a" points="466.27 288.02 463.22 291.06 460.17 288.02 458.14 290.05 461.19 293.08 458.14 296.12 460.17 298.14 463.22 295.11 466.27 298.14 468.31 296.12 465.25 293.08 468.31 290.05 466.27 288.02"/>
    <polygon class="a" points="507.82 288.48 505.05 291.24 502.28 288.48 500.43 290.32 503.2 293.08 500.43 295.85 502.28 297.69 505.05 294.93 507.82 297.69 509.67 295.85 506.9 293.08 509.67 290.32 507.82 288.48"/>
  </g>
</svg>
