<?xml version="1.0" encoding="utf-8"?>
<!-- Generator: Adobe Illustrator 24.0.0, SVG Export Plug-In . SVG Version: 6.00 Build 0)  -->
<svg version="1.1" id="Layer_1" xmlns="http://www.w3.org/2000/svg" xmlns:xlink="http://www.w3.org/1999/xlink" x="0px" y="0px"
	 viewBox="0 0 100.48 45.48" style="enable-background:new 0 0 100.48 45.48;" xml:space="preserve">
<style type="text/css">
	.st0{fill:#EF0606;}
	.st1{fill:none;}
</style>
<g>
	<polygon class="st0" points="72.16,0.24 49.09,45.24 42.13,45.24 65.21,0.24 	"/>
	<polygon class="st0" points="86.07,0.24 63,45.24 56.04,45.24 79.12,0.24 	"/>
	<polygon class="st0" points="99.98,0.24 76.9,45.24 69.95,45.24 93.03,0.24 	"/>
	<polygon class="st0" points="30.53,0.24 7.46,45.24 0.5,45.24 23.58,0.24 	"/>
	<polygon class="st0" points="44.44,0.24 21.36,45.24 14.41,45.24 37.49,0.24 	"/>
	<polygon class="st0" points="58.35,0.24 35.27,45.24 28.32,45.24 51.39,0.24 	"/>
	<polygon class="st1" points="30.53,0.24 7.46,45.24 0.5,45.24 23.58,0.24 	"/>
	<polygon class="st1" points="44.44,0.24 21.36,45.24 14.41,45.24 37.49,0.24 	"/>
	<polygon class="st1" points="58.35,0.24 35.27,45.24 28.32,45.24 51.39,0.24 	"/>
	<polygon class="st1" points="72.16,0.24 49.09,45.24 42.13,45.24 65.21,0.24 	"/>
	<polygon class="st1" points="86.07,0.24 63,45.24 56.04,45.24 79.12,0.24 	"/>
	<polygon class="st1" points="99.98,0.24 76.9,45.24 69.95,45.24 93.03,0.24 	"/>
</g>
</svg>
