<?xml version="1.0" encoding="utf-8"?>
<!-- Generator: Adobe Illustrator 24.0.0, SVG Export Plug-In . SVG Version: 6.00 Build 0)  -->
<svg version="1.1" id="Layer_1" xmlns="http://www.w3.org/2000/svg" xmlns:xlink="http://www.w3.org/1999/xlink" x="0px" y="0px"
	 viewBox="0 0 300 300" style="enable-background:new 0 0 300 300;" xml:space="preserve">
<style type="text/css">
	.st0{fill:#FFFFFF;}
	.st1{fill:#0137AE;}
	.st2{fill:#FD7F03;}
	.st3{fill:#FD0100;}
	.st4{clip-path:url(#SVGID_2_);}
	.st5{clip-path:url(#SVGID_4_);fill:#015AB5;}
</style>
<g>
	<path class="st0" d="M150,15C75.56,15,15,75.56,15,150C15,224.44,75.56,285,150,285c74.43,0,135-60.56,135-135
		C285,75.56,224.44,15,150,15"/>
	<path class="st0" d="M150,77.06c-40.57,0-73.58,33.01-73.58,73.58c0,40.58,33.01,73.58,73.58,73.58
		c40.57,0,73.58-33.01,73.58-73.58C223.58,110.07,190.57,77.06,150,77.06"/>
	<path class="st1" d="M150,25.3C81.25,25.3,25.3,81.24,25.3,150S81.25,274.71,150,274.71c68.76,0,124.7-55.94,124.7-124.71
		S218.77,25.3,150,25.3 M150,71.99c43.36,0,78.64,35.29,78.64,78.65c0,43.37-35.29,78.65-78.64,78.65
		c-43.37,0-78.65-35.28-78.65-78.65C71.35,107.27,106.64,71.99,150,71.99"/>
	<path class="st0" d="M150,67.92c-45.62,0-82.72,37.1-82.72,82.72c0,45.62,37.11,82.73,82.72,82.73c45.61,0,82.73-37.11,82.73-82.73
		C232.73,105.02,195.62,67.92,150,67.92 M203.44,201.18c-1.57,1.66-3.23,3.25-4.94,4.76c-0.2,0.18-0.41,0.36-0.62,0.54
		c-0.69,0.59-1.38,1.17-2.09,1.73c-0.34,0.27-0.68,0.54-1.02,0.8c-2.36,1.81-4.82,3.49-7.39,5c-0.25,0.16-0.51,0.3-0.76,0.45
		c-0.19,0.11-0.38,0.21-0.57,0.32c-0.27,0.15-0.54,0.3-0.81,0.45c-0.16,0.1-0.33,0.18-0.5,0.27c-0.32,0.17-0.64,0.34-0.95,0.51
		c-0.41,0.21-0.83,0.43-1.25,0.63c-0.36,0.19-0.73,0.36-1.1,0.53c-0.38,0.18-0.77,0.36-1.17,0.54c-0.01,0-0.02,0.01-0.02,0.01
		c-0.31,0.14-0.63,0.28-0.95,0.42c-0.22,0.1-0.45,0.2-0.67,0.29c-0.05,0.02-0.09,0.04-0.13,0.05c-0.33,0.14-0.66,0.28-0.99,0.41
		c-0.37,0.15-0.74,0.29-1.11,0.44c-0.58,0.23-1.17,0.45-1.76,0.65c-0.44,0.16-0.89,0.31-1.34,0.46c-0.46,0.15-0.93,0.3-1.39,0.45
		c-0.03,0.01-0.07,0.02-0.1,0.03c-0.45,0.14-0.91,0.28-1.37,0.41c-0.01,0.01-0.02,0.01-0.02,0.01c-0.48,0.14-0.97,0.27-1.45,0.4
		c-0.48,0.13-0.97,0.25-1.46,0.37c-0.05,0.01-0.11,0.03-0.17,0.04c-1.08,0.26-2.17,0.49-3.26,0.71c-0.55,0.11-1.1,0.21-1.65,0.3
		c-0.53,0.09-1.07,0.17-1.61,0.25c-0.04,0.01-0.08,0.01-0.12,0.02c-0.49,0.07-0.98,0.14-1.48,0.2c-0.25,0.03-0.5,0.06-0.75,0.09
		c-0.36,0.05-0.73,0.09-1.09,0.12c-0.56,0.05-1.12,0.1-1.69,0.15h-0.01c-0.52,0.04-1.05,0.08-1.57,0.1
		c-0.41,0.02-0.82,0.04-1.23,0.06h0c-0.47,0.02-0.95,0.03-1.42,0.04c-0.47,0.01-0.95,0.01-1.42,0.01c-0.48,0-0.95-0.01-1.42-0.01
		c-0.47-0.01-0.95-0.02-1.41-0.04h-0.01c-0.41-0.01-0.82-0.03-1.23-0.06c-0.53-0.03-1.06-0.06-1.58-0.1
		c-0.58-0.04-1.15-0.1-1.72-0.15c-0.36-0.04-0.71-0.08-1.07-0.12c-0.06,0-0.13-0.01-0.19-0.02c-0.2-0.02-0.4-0.05-0.6-0.07
		c-0.04-0.01-0.08-0.01-0.13-0.01c-0.42-0.05-0.85-0.11-1.27-0.18c-0.07-0.01-0.13-0.02-0.19-0.03c-0.52-0.08-1.04-0.16-1.56-0.25
		c-0.01,0-0.03,0-0.04-0.01c-0.55-0.09-1.09-0.19-1.64-0.3c-0.55-0.1-1.09-0.22-1.64-0.34h-0.01c-0.5-0.12-1.01-0.23-1.51-0.35
		c-0.09-0.02-0.18-0.05-0.27-0.07c-0.49-0.12-0.97-0.24-1.46-0.37c-0.39-0.1-0.79-0.21-1.18-0.32c-0.15-0.04-0.31-0.09-0.46-0.13
		c-0.39-0.12-0.77-0.23-1.16-0.35c-0.05-0.01-0.09-0.03-0.14-0.04c-0.44-0.14-0.88-0.28-1.32-0.43c-0.44-0.14-0.89-0.29-1.32-0.45
		c-0.25-0.08-0.5-0.17-0.74-0.27c-1.13-0.41-2.24-0.85-3.35-1.32c-0.22-0.09-0.45-0.19-0.67-0.29c-0.32-0.13-0.63-0.27-0.95-0.42
		c-1.25-0.57-2.48-1.17-3.7-1.8c-0.31-0.16-0.63-0.33-0.94-0.5c-1.63-0.88-3.22-1.82-4.76-2.81c-0.3-0.2-0.6-0.39-0.89-0.58
		c-0.33-0.21-0.64-0.43-0.97-0.65c-0.39-0.27-0.79-0.55-1.18-0.82c-0.35-0.25-0.7-0.51-1.05-0.77c-0.69-0.52-1.38-1.05-2.06-1.58
		c-1.02-0.81-2.01-1.65-2.98-2.51c-0.01-0.01-0.02-0.02-0.04-0.03c-0.31-0.28-0.62-0.56-0.93-0.84c-0.64-0.58-1.27-1.18-1.88-1.78
		c-0.56-0.54-1.1-1.1-1.64-1.66c-0.06-0.07-0.13-0.14-0.19-0.21c-0.29-0.31-0.58-0.62-0.86-0.93c-0.24-0.27-0.48-0.53-0.71-0.79
		c-0.1-0.1-0.19-0.2-0.27-0.3c-0.24-0.27-0.48-0.55-0.72-0.82c-0.06-0.08-0.12-0.15-0.19-0.23c-0.22-0.26-0.45-0.53-0.66-0.8
		c-0.27-0.34-0.55-0.67-0.82-1.01c-0.54-0.68-1.06-1.37-1.58-2.07c-0.25-0.33-0.49-0.67-0.74-1.02c-0.01-0.01-0.02-0.02-0.03-0.04
		c-0.25-0.35-0.49-0.71-0.74-1.06c-0.24-0.36-0.49-0.72-0.73-1.08c0-0.01-0.01-0.01-0.01-0.01c-0.23-0.36-0.47-0.72-0.7-1.08
		c-0.23-0.37-0.46-0.74-0.69-1.1c-0.17-0.27-0.34-0.55-0.49-0.82c-0.12-0.21-0.25-0.42-0.37-0.62c-0.03-0.05-0.06-0.1-0.08-0.14
		c-0.3-0.51-0.59-1.03-0.87-1.55c-0.05-0.1-0.1-0.19-0.14-0.27c-0.2-0.36-0.39-0.73-0.58-1.1c-0.03-0.07-0.07-0.13-0.1-0.2
		c-0.17-0.34-0.34-0.67-0.51-1.02c-0.19-0.39-0.38-0.79-0.57-1.18c-0.16-0.34-0.32-0.68-0.47-1.03c-0.03-0.05-0.05-0.11-0.07-0.17
		c-0.18-0.4-0.36-0.8-0.53-1.2c-0.34-0.79-0.66-1.58-0.97-2.37c-0.21-0.54-0.41-1.07-0.6-1.61c-0.09-0.26-0.18-0.52-0.28-0.78
		c-0.26-0.76-0.51-1.53-0.75-2.3c-0.09-0.27-0.17-0.55-0.25-0.82c-0.09-0.29-0.17-0.59-0.26-0.88c-0.12-0.42-0.23-0.83-0.34-1.25
		c-0.11-0.39-0.21-0.77-0.3-1.16c-0.35-1.43-0.67-2.87-0.93-4.32c-0.07-0.36-0.13-0.72-0.19-1.08c-0.15-0.9-0.29-1.8-0.41-2.71
		c-0.05-0.38-0.1-0.77-0.14-1.16c-0.01-0.06-0.01-0.13-0.02-0.2c-0.05-0.44-0.1-0.88-0.14-1.33c-0.13-1.35-0.22-2.7-0.27-4.07
		c-0.01-0.18-0.02-0.36-0.02-0.54c-0.01-0.3-0.02-0.61-0.02-0.91c-0.01-0.46-0.02-0.93-0.02-1.39c0-0.47,0.01-0.93,0.02-1.39
		c0-0.3,0.01-0.61,0.02-0.91c0-0.18,0.01-0.36,0.02-0.54c0.05-1.36,0.14-2.72,0.27-4.06c0.04-0.43,0.08-0.86,0.13-1.29
		c0.01-0.08,0.02-0.16,0.03-0.25c0.04-0.37,0.08-0.75,0.14-1.13c0-0.07,0.01-0.13,0.02-0.2c0.04-0.31,0.08-0.63,0.13-0.94
		c0.08-0.54,0.16-1.07,0.25-1.6c0.07-0.38,0.13-0.75,0.2-1.13c0.1-0.55,0.21-1.09,0.32-1.64c0.08-0.39,0.17-0.79,0.25-1.18
		c0.01-0.02,0.01-0.03,0.01-0.03c0.09-0.4,0.18-0.79,0.28-1.18c0.02-0.09,0.04-0.17,0.06-0.25c0.1-0.39,0.19-0.78,0.3-1.16
		c0.11-0.42,0.22-0.84,0.34-1.25c0.09-0.33,0.19-0.66,0.29-0.98c0.07-0.24,0.14-0.47,0.22-0.71c0.09-0.3,0.19-0.61,0.29-0.91
		c0.12-0.38,0.25-0.77,0.38-1.15c0.03-0.06,0.05-0.12,0.06-0.19c0.1-0.28,0.2-0.56,0.3-0.84c0.19-0.52,0.38-1.03,0.58-1.54
		c0.32-0.82,0.65-1.63,0.99-2.44c0.17-0.4,0.35-0.8,0.53-1.2c0.18-0.4,0.36-0.8,0.55-1.19c0.19-0.39,0.38-0.79,0.57-1.18
		c0.17-0.34,0.34-0.68,0.51-1.02c0.03-0.05,0.06-0.1,0.08-0.16c0.2-0.38,0.4-0.78,0.61-1.16c0.05-0.09,0.1-0.18,0.14-0.26
		c0.29-0.52,0.57-1.04,0.87-1.55c0.02-0.05,0.05-0.1,0.08-0.14c0.12-0.21,0.24-0.42,0.37-0.63c0.16-0.27,0.33-0.55,0.49-0.82
		c0.22-0.37,0.45-0.73,0.69-1.1c0.23-0.36,0.47-0.73,0.7-1.08c0.01-0.01,0.01-0.01,0.01-0.01c0.24-0.36,0.48-0.72,0.73-1.08
		c0.25-0.37,0.51-0.74,0.77-1.1c0.24-0.34,0.49-0.68,0.74-1.02c0.51-0.7,1.04-1.39,1.58-2.07c0.27-0.34,0.54-0.68,0.82-1.01
		c0.22-0.27,0.44-0.53,0.66-0.8c0.06-0.08,0.13-0.15,0.19-0.23c0.24-0.28,0.48-0.55,0.72-0.83c0.08-0.1,0.18-0.2,0.27-0.3
		c0.23-0.26,0.47-0.53,0.71-0.79c0.28-0.32,0.58-0.63,0.86-0.93c0.9-0.95,1.82-1.88,2.77-2.77c0.28-0.27,0.57-0.54,0.86-0.8
		c0.35-0.32,0.7-0.64,1.05-0.95c0.32-0.29,0.65-0.57,0.98-0.85c0.33-0.28,0.65-0.56,0.99-0.84c0.68-0.56,1.37-1.11,2.08-1.66
		c0.31-0.24,0.63-0.48,0.95-0.72c1.66-1.23,3.37-2.39,5.13-3.48c0.16-0.1,0.33-0.2,0.49-0.3c0.52-0.32,1.06-0.64,1.59-0.94
		c0.23-0.14,0.47-0.27,0.71-0.4c0.51-0.3,1.04-0.58,1.56-0.85c0.25-0.13,0.5-0.27,0.75-0.39c1.08-0.56,2.17-1.08,3.27-1.58
		c0.32-0.14,0.63-0.28,0.95-0.42c0.23-0.1,0.45-0.19,0.67-0.29c1.1-0.47,2.22-0.91,3.35-1.32c0.24-0.1,0.49-0.19,0.74-0.27
		c0.44-0.16,0.88-0.31,1.32-0.45c0.44-0.15,0.88-0.29,1.32-0.43c0.05-0.01,0.09-0.03,0.14-0.04c0.39-0.12,0.78-0.23,1.16-0.35
		c0.16-0.04,0.31-0.09,0.46-0.13c0.39-0.11,0.79-0.22,1.18-0.32c0.48-0.13,0.97-0.25,1.46-0.37c0.09-0.02,0.18-0.05,0.27-0.06
		c0.5-0.12,1.01-0.23,1.51-0.35h0.01c0.55-0.12,1.09-0.23,1.64-0.34c0.55-0.1,1.09-0.21,1.64-0.3c0.01-0.01,0.03-0.01,0.04-0.01
		c0.52-0.08,1.04-0.17,1.56-0.24c0.06-0.01,0.13-0.02,0.19-0.03c0.42-0.07,0.85-0.12,1.27-0.17c0.04-0.01,0.09-0.01,0.13-0.02
		c0.2-0.02,0.4-0.05,0.6-0.07c0.06-0.01,0.13-0.02,0.19-0.03c0.35-0.04,0.71-0.08,1.07-0.12c0.57-0.05,1.14-0.1,1.72-0.15
		c0.52-0.04,1.05-0.08,1.58-0.1c0.41-0.02,0.82-0.04,1.23-0.06h0.01c0.47-0.02,0.94-0.03,1.41-0.04c0.47-0.01,0.95-0.01,1.42-0.01
		c0.47,0,0.95,0,1.42,0.01c0.47,0.01,0.95,0.02,1.42,0.04h0c0.41,0.01,0.82,0.03,1.23,0.06c0.52,0.03,1.05,0.06,1.57,0.1h0.01
		c0.57,0.04,1.13,0.09,1.69,0.15c0.36,0.03,0.73,0.08,1.09,0.12c0.25,0.03,0.5,0.06,0.75,0.09c0.49,0.06,0.99,0.13,1.48,0.2
		c0.04,0,0.08,0.01,0.12,0.02c0.54,0.08,1.07,0.16,1.61,0.25c0.55,0.1,1.1,0.19,1.65,0.3c1.1,0.21,2.19,0.45,3.26,0.71
		c0.06,0.02,0.12,0.04,0.17,0.05c0.49,0.12,0.97,0.24,1.46,0.37c0.48,0.13,0.97,0.26,1.45,0.4c0,0,0.01,0,0.02,0.01
		c0.46,0.13,0.91,0.27,1.37,0.41c0.03,0.01,0.07,0.02,0.1,0.03c0.47,0.15,0.93,0.3,1.39,0.45c0.45,0.15,0.9,0.3,1.34,0.46
		c0.59,0.21,1.18,0.43,1.76,0.65c0.37,0.14,0.75,0.29,1.11,0.44c0.34,0.13,0.66,0.27,0.99,0.41c0.04,0.01,0.09,0.03,0.13,0.05
		c0.22,0.1,0.45,0.19,0.67,0.29c0.32,0.14,0.63,0.27,0.95,0.42c0.01,0.01,0.01,0.01,0.02,0.01c0.39,0.18,0.78,0.36,1.17,0.54
		c0.37,0.17,0.74,0.35,1.1,0.53c1.11,0.55,2.22,1.14,3.3,1.74c0.26,0.14,0.52,0.29,0.78,0.44c0.26,0.14,0.51,0.29,0.76,0.45
		c0.25,0.15,0.51,0.3,0.76,0.46c0.19,0.11,0.38,0.23,0.57,0.35c0.12,0.07,0.25,0.15,0.36,0.22c0.2,0.12,0.38,0.24,0.58,0.37
		c2.89,1.85,5.64,3.9,8.24,6.14c0.3,0.25,0.59,0.51,0.88,0.77c1.56,1.38,3.05,2.82,4.49,4.32c0.14,0.15,0.28,0.3,0.42,0.45
		c0.47,0.49,0.92,1,1.37,1.5c0.15,0.17,0.3,0.34,0.45,0.51c0.1,0.11,0.19,0.23,0.29,0.34c0.14,0.16,0.27,0.32,0.42,0.49
		c1.91,2.25,3.67,4.61,5.3,7.08c0.22,0.34,0.44,0.67,0.65,1.02c0.42,0.66,0.83,1.32,1.23,2c0.15,0.25,0.3,0.51,0.45,0.77
		c0.13,0.22,0.26,0.44,0.38,0.66c0.17,0.29,0.33,0.59,0.49,0.89c0.07,0.14,0.14,0.27,0.21,0.4c0.15,0.27,0.29,0.54,0.43,0.81
		c0.24,0.46,0.47,0.92,0.7,1.37c0.16,0.32,0.31,0.64,0.47,0.96c0.45,0.95,0.88,1.92,1.29,2.89c0.14,0.32,0.27,0.63,0.39,0.95
		c0.15,0.36,0.29,0.72,0.43,1.08c0.07,0.19,0.14,0.37,0.21,0.56c0.17,0.44,0.33,0.89,0.49,1.33c0.4,1.12,0.77,2.25,1.11,3.38
		c0.11,0.37,0.22,0.74,0.33,1.11c0.01,0.03,0.02,0.05,0.03,0.08c0.12,0.4,0.22,0.8,0.33,1.2c0.01,0.04,0.01,0.07,0.02,0.1
		c0.09,0.32,0.17,0.64,0.25,0.96c0.06,0.21,0.11,0.43,0.16,0.64c0.07,0.28,0.13,0.57,0.2,0.86c0.19,0.81,0.36,1.63,0.52,2.45
		c0.04,0.19,0.07,0.38,0.1,0.56c0.06,0.32,0.12,0.64,0.17,0.96c0.16,0.94,0.3,1.88,0.42,2.83c0.05,0.38,0.1,0.75,0.14,1.13
		c0.01,0.09,0.02,0.16,0.03,0.25c0.05,0.43,0.09,0.85,0.13,1.28c0.13,1.35,0.22,2.7,0.27,4.06c0.01,0.18,0.01,0.36,0.01,0.54
		c0.01,0.3,0.02,0.61,0.03,0.91c0.01,0.46,0.01,0.93,0.01,1.39c0,0.47,0,0.93-0.01,1.39c-0.01,0.3-0.01,0.61-0.03,0.91
		c0,0.18-0.01,0.36-0.01,0.54c-0.05,1.37-0.14,2.72-0.27,4.07c-0.04,0.45-0.09,0.89-0.14,1.33c0,0.07-0.01,0.14-0.02,0.2
		c-0.04,0.39-0.09,0.78-0.14,1.16c-0.12,0.91-0.25,1.81-0.41,2.71c-0.06,0.36-0.13,0.72-0.19,1.08c-0.27,1.46-0.58,2.9-0.94,4.32
		c-0.1,0.39-0.19,0.77-0.3,1.16c-0.11,0.42-0.23,0.83-0.34,1.25c-0.01,0.03-0.01,0.05-0.03,0.08c-0.11,0.39-0.22,0.78-0.34,1.18
		c-0.01,0.03-0.02,0.07-0.04,0.11c-0.12,0.4-0.25,0.81-0.38,1.21c-0.16,0.47-0.31,0.94-0.48,1.42c-0.09,0.26-0.18,0.52-0.27,0.78
		c-0.2,0.54-0.4,1.07-0.6,1.61c-0.31,0.8-0.63,1.59-0.97,2.37c-0.17,0.4-0.35,0.8-0.53,1.2c-0.03,0.06-0.05,0.11-0.07,0.17
		c-0.16,0.34-0.31,0.69-0.47,1.03c-0.19,0.39-0.38,0.79-0.57,1.18c-0.17,0.34-0.34,0.68-0.51,1.02c-0.04,0.07-0.07,0.14-0.1,0.2
		c-0.19,0.37-0.38,0.73-0.58,1.1c-0.04,0.09-0.1,0.18-0.14,0.27c-0.29,0.52-0.58,1.04-0.87,1.55c-0.03,0.05-0.06,0.1-0.08,0.14
		c-0.11,0.21-0.24,0.42-0.36,0.62c-0.16,0.27-0.33,0.55-0.49,0.82c-0.22,0.37-0.45,0.74-0.69,1.1c-0.23,0.36-0.46,0.73-0.7,1.08
		c0,0.01-0.01,0.01-0.01,0.01c-0.24,0.36-0.48,0.72-0.73,1.08c-0.25,0.37-0.51,0.74-0.76,1.1c-0.24,0.34-0.49,0.68-0.74,1.02
		c-0.51,0.7-1.04,1.39-1.58,2.07c-0.27,0.34-0.54,0.67-0.82,1.01c-0.22,0.27-0.44,0.53-0.66,0.8c-0.06,0.08-0.13,0.15-0.19,0.23
		c-0.24,0.28-0.48,0.55-0.72,0.82c-0.09,0.1-0.17,0.21-0.27,0.3c-0.23,0.26-0.47,0.53-0.71,0.79
		C204.02,200.57,203.73,200.88,203.44,201.18"/>
	<path class="st0" d="M75.89,206.98l-4.88-6.19l-0.66,0.52c1.03,1.56,1.05,1.84-0.55,3.1l-7.14,5.63c-1.59,1.25-1.88,1.15-3.29-0.36
		l-0.66,0.51l4.16,5.28c2.03,2.57,4.22,4.31,6.46,5c2.34,0.7,4.75,0.42,7.04-1.38c1.76-1.39,2.45-3.23,2.53-4.93
		C79.01,211.91,77.9,209.55,75.89,206.98 M76.39,211.59c-0.11,1.58-1.06,3.31-2.84,4.69c-3.33,2.63-6.87,2.35-9.04-0.4
		c-1.13-1.43-0.91-2.11,0.43-3.17l7.48-5.89c0.54-0.43,0.88-0.63,1.2-0.59c0.21,0.04,0.7,0.36,1.28,1.1
		C76.01,208.72,76.46,210.11,76.39,211.59"/>
	<path class="st0" d="M84.41,232.87c1.44-4.19,2.98-8.37,4.5-12.59l-1.21-0.66l-12.13,5.6c-1.97,0.92-2.37,0.91-3.79-0.1l-0.58,0.61
		l4.39,3.89l0.55-0.63c-1.28-1.43-1.11-1.71-0.07-2.33c0.87-0.5,1.7-0.91,2.4-1.28l3.76,3.33c-0.36,0.99-0.73,2-1,2.7
		c-0.38,1.06-0.68,1.19-1.97,0.32l-0.55,0.63l5.6,4.96l0.55-0.62C83.74,235.48,83.69,235.03,84.41,232.87 M79.62,224.74
		c1.63-0.81,3.26-1.66,4.95-2.48l0.07,0.06l-1.96,5.13L79.62,224.74z"/>
	<path class="st0" d="M104.89,233.08c-0.53-1.11-1.56-2.02-3.51-3.2l-6.29-3.81l-0.43,0.71c1.55,1.14,1.63,1.46,0.64,3.09l-4.74,7.8
		c-1.01,1.67-1.38,1.72-3.15,0.84l-0.43,0.72l6.75,4.09l0.44-0.7c-1.59-1.17-1.7-1.5-0.68-3.17l1.81-2.97l0.42,0.26
		c0.71,0.46,0.96,0.95,0.94,1.79c0,1.45-0.06,2.92,0.01,4.11c0.12,1.82,0.64,2.92,3.38,4.75c0.27,0.16,0.53,0.35,0.67,0.43
		l0.53-0.57c-0.41-0.48-0.62-0.94-0.83-1.71c-0.19-0.7-0.26-1.63-0.38-3.24c-0.08-1.33-0.11-3.2-0.07-3.99
		c1.85,0.36,3.73,0.19,4.81-1.61C105.53,235.44,105.47,234.15,104.89,233.08 M101.43,235.05c-0.63,1.04-1.44,1.66-2.55,1.77
		c-0.74,0.11-1.58-0.21-2.52-0.78l-0.58-0.35l3.01-4.95c0.26-0.43,0.43-0.61,0.66-0.64c0.21-0.04,0.57,0.07,1.13,0.41
		C101.83,231.26,102.73,232.91,101.43,235.05"/>
	<path class="st0" d="M123.65,251.96c-0.49,0.96-1.7,2.84-2.12,3.46l-12.66-4.24l0.27-0.79c2.16,0.55,2.46,0.5,3.1-1.43l2.9-8.66
		c0.65-1.96,0.45-2.15-1.27-2.89l0.26-0.78l11.68,3.92c-0.11,0.42-0.51,2.04-0.88,3.46l-0.93-0.19c0.01-0.87-0.06-1.73-0.37-2.28
		c-0.29-0.55-0.9-0.93-2.29-1.39l-1.19-0.4c-0.91-0.31-1.04-0.3-1.28,0.45l-1.61,4.78l1.66,0.56c2.09,0.69,2.46,0.69,3.32-0.78
		l0.9,0.31l-1.53,4.55l-0.9-0.3c0.2-1.74-0.07-1.93-2.18-2.64l-1.66-0.56l-1.31,3.9c-0.35,1.07-0.44,1.66-0.03,2.05
		c0.39,0.33,1.22,0.65,2.16,0.97c1.27,0.42,2.21,0.57,2.99,0.2c0.64-0.34,1.32-0.91,2.13-1.75L123.65,251.96z"/>
	<path class="st0" d="M136.67,246.59c-0.28-1.57-0.91-3.48-3.03-3.86c-1.44-0.26-2.68,0.53-2.92,1.87
		c-0.24,1.29,0.56,2.21,2.64,3.65c2.49,1.67,4.11,3.33,3.69,5.64c-0.48,2.67-3.36,4.3-7.12,3.62c-0.93-0.16-1.81-0.44-2.54-0.8
		c-0.68-0.32-1.15-0.59-1.48-0.8c-0.13-0.63-0.11-2.66-0.03-4.12l0.95-0.09c0.25,1.58,1.29,4.48,3.77,4.93
		c1.57,0.29,2.76-0.52,3.02-1.99c0.25-1.38-0.73-2.46-2.49-3.74c-2.43-1.69-4.04-3.29-3.63-5.53c0.47-2.58,3.07-4.19,6.73-3.53
		c1.64,0.3,3.03,1.04,3.46,1.28c-0.06,0.89-0.06,1.96-0.12,3.44L136.67,246.59z"/>
	<path class="st0" d="M155.24,247.33c-0.58-1.5-1.57-3.23-3.71-3.2c-1.47,0.02-2.52,1.04-2.5,2.39c0.01,1.31,0.98,2.06,3.29,3.07
		c2.77,1.17,4.67,2.46,4.72,4.82c0.03,2.71-2.46,4.87-6.28,4.93c-0.95,0.01-1.86-0.09-2.66-0.29c-0.73-0.18-1.23-0.36-1.6-0.51
		c-0.25-0.58-0.62-2.58-0.82-4.03l0.91-0.28c0.55,1.51,2.13,4.16,4.64,4.12c1.6-0.03,2.6-1.04,2.58-2.54
		c-0.03-1.41-1.18-2.26-3.17-3.18c-2.71-1.19-4.59-2.44-4.62-4.73c-0.04-2.61,2.19-4.7,5.91-4.75c1.67-0.03,3.17,0.43,3.65,0.58
		c0.11,0.89,0.31,1.93,0.55,3.4L155.24,247.33z"/>
	<path class="st0" d="M177.16,255.07c-1.65,0.1-2.04-0.15-3.27-2.06c-2.37-3.74-4.69-7.54-7.05-11.36l-1.27,0.53l-3.19,12.97
		c-0.5,2.11-0.77,2.43-2.44,2.91l0.11,0.82l5.78-1l-0.14-0.82c-1.91,0.11-2.04-0.21-1.86-1.39c0.15-0.99,0.34-1.9,0.49-2.67
		l4.95-0.86c0.55,0.89,1.11,1.82,1.48,2.47c0.6,0.96,0.51,1.26-0.97,1.74l0.14,0.82l7.38-1.28L177.16,255.07z M164.56,251.68
		c0.38-1.78,0.73-3.57,1.15-5.41l0.07-0.01l2.79,4.73L164.56,251.68z"/>
	<path class="st0" d="M191.62,246.63c0.14,1.02,0.42,3.44,0.43,4.11l-12.01,4.25l-0.28-0.78c2.1-0.92,2.28-1.17,1.62-3.04
		l-3.03-8.59c-0.69-1.93-0.98-1.98-2.91-1.47l-0.28-0.78l7.54-2.68l0.28,0.79c-1.84,0.83-2.03,1.04-1.34,2.97l3.09,8.74
		c0.38,1.06,0.62,1.42,1.2,1.44c0.48,0.01,1.16-0.18,1.93-0.45c1.03-0.36,1.87-0.84,2.24-1.65c0.3-0.64,0.49-1.52,0.57-2.8
		L191.62,246.63z"/>
	<path class="st0" d="M210.54,240.01c-1.53,0.64-1.98,0.54-3.78-0.84c-3.49-2.74-6.95-5.54-10.44-8.35l-1.01,0.93l1.32,13.29
		c0.23,2.15,0.1,2.54-1.32,3.55l0.38,0.74l5.11-2.88l-0.41-0.73c-1.77,0.75-1.98,0.48-2.22-0.69c-0.2-0.99-0.32-1.89-0.44-2.68
		l4.38-2.46c0.82,0.66,1.65,1.34,2.23,1.82c0.88,0.71,0.9,1.02-0.34,1.97l0.41,0.73l6.53-3.67L210.54,240.01z M197.51,241.04
		c-0.23-1.8-0.51-3.62-0.72-5.49l0.07-0.03l4.21,3.52L197.51,241.04z"/>
	<path class="st0" d="M226.2,227.18c-1.38,0.92-1.85,0.9-3.87-0.13c-3.93-2.04-7.83-4.16-11.8-6.27l-0.82,1.09l3.75,12.82
		c0.63,2.08,0.55,2.48-0.65,3.74l0.52,0.66l4.49-3.78l-0.53-0.63c-1.61,1.07-1.85,0.84-2.31-0.27c-0.37-0.93-0.66-1.8-0.92-2.55
		l3.85-3.24c0.93,0.5,1.88,1,2.53,1.38c1,0.54,1.08,0.84,0.03,2l0.54,0.63l5.73-4.82L226.2,227.18z M213.59,230.6
		c-0.57-1.73-1.17-3.46-1.72-5.26l0.06-0.05l4.79,2.69L213.59,230.6z"/>
	<path class="st0" d="M237.88,214.47l-0.65-0.51c1.06-1.66,1.02-1.89-0.71-3.21l-7.26-5.6l-0.07,0.11l6.19,12.17l-0.45,0.58
		l-12.84-3.26l-0.07,0.08l4.7,4.06c1.49,1.3,2.37,1.99,3.03,2.36c0.91,0.58,1.39,0.29,2.57-0.98l0.65,0.51l-3.86,4.95l-0.66-0.51
		c0.81-1.23,0.78-1.88,0.22-2.52c-0.51-0.59-1.35-1.52-3.21-3.2l-3.44-3.22c-2.01-1.83-2.38-1.89-3.91-0.23l-0.66-0.51l3.33-4.27
		l11.32,2.42l-5.07-10.45l3.24-4.15l0.66,0.51c-1.14,1.76-1.05,1.96,0.54,3.14l7.16,5.29c1.76,1.3,1.98,1.3,3.38-0.19l0.65,0.51
		L237.88,214.47z"/>
	<path class="st2" d="M150,67.37c-45.93,0-83.27,37.36-83.27,83.27c0,45.92,37.35,83.27,83.27,83.27
		c45.92,0,83.27-37.35,83.27-83.27C233.28,104.73,195.92,67.37,150,67.37 M180.23,222.44c-2.31,0.97-4.67,1.84-7.09,2.59
		c-0.44,0.14-0.88,0.27-1.31,0.4c-0.96,0.28-1.92,0.54-2.89,0.79c-5.63,1.41-11.49,2.21-17.52,2.31c-0.47,0.01-0.95,0.02-1.42,0.02
		c-0.48,0-0.95-0.01-1.42-0.02c-6.03-0.1-11.9-0.9-17.52-2.31c-0.49-0.12-0.97-0.25-1.45-0.38c-0.48-0.13-0.97-0.26-1.44-0.41
		c-0.32-0.09-0.64-0.18-0.95-0.28c-0.05-0.02-0.1-0.03-0.15-0.05c-0.2-0.06-0.4-0.12-0.59-0.18c-1.9-0.6-3.77-1.28-5.61-2.02
		c-0.37-0.14-0.73-0.29-1.09-0.45v0c-27.99-11.83-47.68-39.55-47.68-71.8c0-42.48,34.19-77.14,76.49-77.9
		c0.47-0.01,0.95-0.01,1.42-0.01c0.48,0,0.95,0,1.42,0.01c42.31,0.76,76.48,35.42,76.48,77.9
		C227.91,182.89,208.22,210.62,180.23,222.44"/>
	<path class="st0" d="M150,24.22c-69.71,0-126.43,56.71-126.43,126.42c0,69.72,56.72,126.42,126.43,126.42
		c69.7,0,126.42-56.71,126.42-126.42C276.43,80.93,219.71,24.22,150,24.22 M150,268.92c-65.23,0-118.29-53.06-118.29-118.28
		C31.72,85.43,84.78,32.36,150,32.36c65.22,0,118.28,53.06,118.28,118.28C268.28,215.86,215.22,268.92,150,268.92"/>
	<path class="st1" d="M150,19.61c-72.26,0-131.04,58.77-131.04,131.03c0,72.25,58.78,131.04,131.04,131.04
		c72.25,0,131.03-58.79,131.03-131.04C281.03,78.39,222.26,19.61,150,19.61 M150,273.23c-67.6,0-122.59-55-122.59-122.59
		C27.41,83.05,82.4,28.05,150,28.05c67.59,0,122.58,54.99,122.58,122.59C272.59,218.24,217.6,273.23,150,273.23"/>
	<path class="st0" d="M59.16,164.37c-0.07-1-0.09-2.06-0.07-3.14c0-0.03-0.01-0.05-0.04-0.07c-0.01-0.02-0.05-0.03-0.07-0.03
		l-0.91,0.06c-0.05,0.01-0.09,0.04-0.1,0.09c-0.17,1.42-0.26,1.76-0.31,1.84c-0.06,0.11-0.18,0.18-0.34,0.19
		c-0.15,0-0.9-0.21-3.55-1.21c-0.12-1.52-0.2-2.62-0.25-3.27c-0.05-0.79-0.1-1.79-0.15-2.98c1.65-0.85,2.64-1.35,2.98-1.51
		c0.13-0.06,0.26-0.09,0.35-0.1h0.04c0.15,0,0.27,0.05,0.37,0.17c0.08,0.1,0.23,0.48,0.53,1.75c0.02,0.05,0.07,0.08,0.1,0.08h0.01
		l0.91-0.05c0.03,0,0.06-0.02,0.08-0.03c0.02-0.03,0.03-0.06,0.02-0.08c-0.21-1.92-0.36-3.56-0.44-4.87
		c-0.09-1.31-0.13-2.75-0.14-4.28c0-0.03-0.01-0.05-0.04-0.08c-0.02-0.02-0.05-0.02-0.08-0.03l-0.91,0.06c-0.06,0-0.1,0.04-0.1,0.08
		c-0.23,1.27-0.36,1.69-0.42,1.82c-0.1,0.19-0.28,0.38-0.53,0.58c-0.38,0.3-2.02,1.26-4.85,2.84c-5.11,2.85-8.66,4.76-10.55,5.69
		c-0.04,0.02-0.06,0.05-0.05,0.1l0.06,1.04c0,0.04,0.03,0.08,0.07,0.09c4.45,1.69,7.86,3.02,10.14,3.94
		c3.59,1.46,5.68,2.35,6.23,2.65c0.26,0.14,0.46,0.3,0.59,0.48c0.22,0.27,0.42,0.79,0.62,1.54c0.01,0.04,0.06,0.08,0.09,0.08h0.01
		l0.92-0.07c0.02,0,0.06-0.01,0.07-0.03c0.03-0.03,0.03-0.06,0.03-0.08C59.35,166.54,59.23,165.45,59.16,164.37 M46.47,159.35
		l5.33-2.76c0.07,1.08,0.13,1.92,0.17,2.49l0.14,2.41L46.47,159.35z"/>
	<path class="st0" d="M41.11,142.27c1.75,0.34,3.37,0.71,4.82,1.09c0.03,0.01,0.06,0.01,0.08-0.01c0.03-0.02,0.04-0.05,0.05-0.08
		l0.16-1.07c0.01-0.04-0.02-0.09-0.06-0.1c-0.36-0.19-0.63-0.32-0.82-0.41c-0.73-0.34-1.3-0.69-1.68-1.06
		c-0.16-0.15-0.26-0.35-0.3-0.6c-0.05-0.26-0.02-0.75,0.08-1.44l0.73-5.06l4.1,3.84l9.01,8.72c0.03,0.02,0.04,0.02,0.07,0.03
		l0.97,0.14c0.01,0,0.01,0,0.01,0c0.02,0,0.04,0,0.06-0.02c0.02-0.02,0.04-0.04,0.04-0.07c0.43-3.65,0.75-6.16,0.94-7.46l1.23-7.54
		c0.01-0.05-0.04-0.1-0.08-0.12c-1.02-0.31-1.75-0.54-2.16-0.68l-2.68-0.99c-0.03-0.01-0.06-0.01-0.08,0.01
		c-0.03,0.01-0.05,0.04-0.06,0.08l-0.16,1.16c-0.01,0.04,0.01,0.08,0.05,0.1c0.99,0.49,1.75,1,2.26,1.5
		c0.34,0.33,0.54,0.66,0.61,0.97c0.07,0.33,0.03,1.02-0.12,2.04l-0.8,5.5c-1.14-0.99-3.73-3.44-7.7-7.29
		c-2.61-2.54-4.43-4.34-5.43-5.36c-0.01-0.01-0.04-0.02-0.06-0.03l-1.03-0.15c-0.03,0-0.06,0.01-0.08,0.02
		c-0.02,0.02-0.03,0.04-0.04,0.07c-0.32,2.85-0.63,5.29-0.91,7.25c-0.29,2.03-0.67,4.34-1.13,6.88
		C41.02,142.2,41.05,142.25,41.11,142.27"/>
	<path class="st0" d="M81.48,89.49l-0.75-0.52c-0.04-0.03-0.1-0.02-0.14,0.01l-0.43,0.43c-0.64,0.71-1.12,1.15-1.41,1.29
		c-0.09,0.05-0.22,0.07-0.37,0.05c-0.1-0.01-0.36-0.12-1.03-0.54c-0.16-0.09-1.99-1.32-5.41-3.64c-2.71-1.83-4.27-2.91-4.62-3.21
		c-0.34-0.28-0.52-0.53-0.54-0.73c-0.01-0.14,0.09-0.57,0.67-1.83c0.05-0.11,0.15-0.29,0.24-0.54c0.03-0.04,0.01-0.1-0.03-0.13
		l-0.75-0.51c-0.02-0.01-0.06-0.02-0.08-0.01c-0.03,0.01-0.05,0.02-0.07,0.05c-0.86,1.43-1.48,2.43-1.84,2.96
		c-0.41,0.61-1.13,1.59-2.12,2.89c-0.03,0.04-0.03,0.08,0,0.12c0.67,0.98,1.22,1.81,1.63,2.46c0.41,0.65,0.93,1.51,1.55,2.55
		l3.65,6.33c-2.65-0.32-5.85-0.79-9.52-1.38c-1.41-0.23-2.61-0.46-3.58-0.69c-0.05-0.01-0.09,0.01-0.12,0.05
		c-0.62,1.08-1.24,2.09-1.85,2.98c-0.56,0.83-1.32,1.88-2.26,3.1c-0.02,0.03-0.02,0.05-0.02,0.08c0,0.03,0.02,0.05,0.04,0.07
		l0.76,0.51c0.05,0.03,0.1,0.02,0.13-0.01c0.19-0.21,0.33-0.36,0.42-0.47c0.87-0.99,1.2-1.29,1.33-1.36
		c0.17-0.09,0.34-0.12,0.52-0.07c0.31,0.08,0.91,0.41,1.75,0.99c0.55,0.37,1.37,0.95,2.53,1.76l6.44,4.56
		c0.42,0.28,0.67,0.52,0.75,0.71c0.08,0.19,0.09,0.38,0.04,0.61c-0.07,0.24-0.35,0.89-0.82,1.92c-0.01,0.04-0.01,0.1,0.03,0.13
		l0.18,0.11c-0.66,0.99-0.93,1.31-1.05,1.4c-0.16,0.14-0.41,0.24-0.71,0.32c-0.47,0.12-2.36,0.35-5.58,0.68
		c-5.83,0.6-9.85,0.95-11.93,1.06c-0.04,0-0.08,0.02-0.1,0.07l-0.35,0.98c-0.01,0.04-0.01,0.08,0.03,0.11
		c3.41,3.32,6.03,5.9,7.75,7.65c2.72,2.76,4.3,4.4,4.67,4.89c0.19,0.23,0.3,0.46,0.36,0.68c0.08,0.33,0.07,0.89-0.04,1.66
		c-0.01,0.05,0.01,0.1,0.06,0.12l0.87,0.31h0.03c0.02,0,0.03,0,0.05-0.01c0.03-0.01,0.05-0.04,0.06-0.06
		c0.28-1.07,0.62-2.13,0.97-3.14c0.33-0.93,0.73-1.91,1.19-2.9c0.01-0.03,0.01-0.05,0-0.09c-0.01-0.03-0.03-0.04-0.06-0.05
		l-0.87-0.31c-0.04-0.02-0.1,0-0.12,0.05c-0.71,1.24-0.93,1.51-1.01,1.56c-0.1,0.08-0.24,0.09-0.4,0.04
		c-0.1-0.04-0.6-0.41-2.78-2.51c0.48-1.43,0.84-2.47,1.07-3.1c0.27-0.75,0.61-1.69,1.04-2.81c1.84-0.12,2.97-0.19,3.34-0.21
		c0.14,0,0.26,0.02,0.37,0.06c0.16,0.05,0.25,0.16,0.29,0.32c0.04,0.12,0.03,0.54-0.2,1.82c-0.01,0.05,0.02,0.1,0.07,0.12l0.86,0.31
		c0.03,0.01,0.05,0.01,0.08,0c0.02-0.01,0.04-0.04,0.05-0.06c0.57-1.87,1.08-3.42,1.52-4.64c0.44-1.23,0.97-2.57,1.57-3.99
		c0.01-0.03,0.01-0.05,0-0.08c-0.01-0.03-0.03-0.05-0.06-0.06l-0.16-0.05c0.69-1.16,1.34-2.2,1.95-3.09
		c0.65-0.95,1.35-1.92,2.11-2.88c0.01-0.02,0.01-0.05,0.01-0.08c0-0.02-0.01-0.06-0.03-0.06l-0.76-0.52
		c-0.04-0.03-0.1-0.03-0.13,0.01c-0.17,0.17-0.29,0.3-0.38,0.39c-0.83,0.89-1.16,1.17-1.29,1.23c-0.13,0.08-0.25,0.11-0.36,0.11
		c-0.04,0-0.06-0.01-0.12-0.01c-0.04,0-0.22-0.07-1.09-0.59c-1.14-0.68-3.45-2.2-6.85-4.49c-0.53-0.36-1.17-0.8-1.89-1.31
		c7.69,1.13,12.53,1.85,14.78,2.21c0.04,0.01,0.07-0.01,0.1-0.05l0.56-0.83c0.02-0.03,0.02-0.08,0.01-0.11l-1.56-2.64
		c-3.22-5.42-5.23-8.83-5.97-10.14c0.54,0.36,0.87,0.58,0.98,0.66c1.52,1.02,3.57,2.42,6.31,4.29c1.22,0.84,1.93,1.32,2.07,1.45
		c0.13,0.12,0.23,0.25,0.26,0.37C75.99,94.7,76,94.84,75.96,95c-0.03,0.17-0.34,0.9-0.9,2.16c-0.03,0.05-0.01,0.1,0.04,0.12
		l0.75,0.51c0.04,0.02,0.06,0.02,0.08,0.02c0.03-0.01,0.05-0.02,0.07-0.05c1.16-1.87,2.07-3.3,2.7-4.24c0.62-0.91,1.56-2.22,2.8-3.9
		c0.02-0.02,0.02-0.05,0.02-0.08C81.53,89.52,81.51,89.5,81.48,89.49 M56.94,119.56l-0.83,2.28l-4.32-4.21l5.98-0.43
		C57.41,118.23,57.15,119.01,56.94,119.56"/>
	<path class="st0" d="M76.26,71.89c0.03,0.04,0.08,0.05,0.12,0.03c0.21-0.12,0.37-0.2,0.46-0.26c1.23-0.67,1.65-0.84,1.81-0.86
		c0.15-0.03,0.31,0.02,0.48,0.14c0.18,0.12,0.66,0.68,1.41,1.63l2.72,3.42c2.6,3.3,4.02,5.09,4.18,5.34
		c0.2,0.31,0.27,0.56,0.23,0.78c-0.03,0.15-0.35,0.62-1.59,2c-0.04,0.04-0.04,0.1,0,0.13l0.57,0.72c0.01,0.02,0.04,0.04,0.07,0.04
		h0.01c0.02,0,0.05-0.01,0.07-0.03c1.3-1.15,2.53-2.19,3.67-3.1c1.14-0.91,2.59-2,4.32-3.26c0.02-0.02,0.04-0.04,0.04-0.07
		c0.01-0.03,0-0.06-0.02-0.08l-0.58-0.72c-0.03-0.03-0.08-0.05-0.12-0.02c-0.25,0.13-0.42,0.24-0.54,0.32
		c-0.91,0.58-1.54,0.91-1.87,1.01c-0.17,0.06-0.33,0.05-0.48-0.01c-0.1-0.05-0.33-0.24-0.84-0.88l-3.39-4.27l1.75-1.39
		c0.89-0.71,1.27-0.91,1.42-0.96c0.16-0.05,0.33-0.03,0.48,0.03c0.24,0.12,0.85,0.56,1.81,1.32c0.03,0.03,0.09,0.03,0.13,0
		l0.84-0.67c0.01-0.01,0.03-0.04,0.04-0.07c0-0.03-0.01-0.06-0.04-0.08c-0.7-0.73-1.39-1.51-2.04-2.31c-0.7-0.88-1.4-1.86-2.11-2.9
		c-0.01-0.02-0.04-0.03-0.07-0.04c-0.03-0.01-0.05,0-0.08,0.02l-0.84,0.67c-0.04,0.03-0.05,0.08-0.03,0.13
		c0.45,0.95,0.69,1.61,0.74,1.97c0.02,0.22-0.02,0.42-0.13,0.6c-0.11,0.19-0.52,0.56-1.19,1.1l-1.69,1.34l-3.6-4.53l3.82-3.04
		c0.55-0.44,0.94-0.71,1.19-0.8c0.21-0.08,0.43-0.1,0.6-0.05c0.49,0.15,1.23,0.55,2.21,1.19l0.34,0.22c0.04,0.03,0.08,0.03,0.11,0
		l0.84-0.67c0.02-0.02,0.03-0.05,0.04-0.08c0-0.03-0.02-0.06-0.03-0.08c-1.03-0.99-2.14-2.2-3.31-3.6
		c-0.01-0.02-0.04-0.04-0.07-0.04c-0.02,0-0.06,0.01-0.08,0.02c-2.03,1.74-4.49,3.75-7.28,5.98c-1.06,0.84-2.77,2.14-5.07,3.86
		c-0.02,0.02-0.04,0.04-0.05,0.07c-0.01,0.03,0.01,0.05,0.02,0.08L76.26,71.89z"/>
	<path class="st0" d="M113.47,56.89c-1.18-2.35-2.9-3.88-5.1-4.52c-2.2-0.66-4.62-0.32-7.24,0.99c-2.75,1.39-4.59,3.3-5.44,5.69
		c-0.86,2.39-0.64,4.9,0.63,7.45c1.28,2.52,3.03,4.13,5.21,4.8c0.72,0.22,1.48,0.33,2.26,0.33c1.57,0,3.27-0.46,5.05-1.35
		c1.6-0.81,2.87-1.76,3.76-2.81c0.6-0.72,1.11-1.6,1.5-2.64c0.39-1.04,0.57-2.18,0.55-3.38C114.63,59.91,114.23,58.38,113.47,56.89
		 M110.68,66.73c-0.42,0.79-1.11,1.44-2.07,1.92c-1.38,0.7-2.69,0.77-3.89,0.22c-1.63-0.73-3.14-2.45-4.47-5.1
		c-0.66-1.31-1.07-2.59-1.25-3.81c-0.17-1.21-0.01-2.24,0.44-3.07c0.46-0.83,1.16-1.48,2.06-1.94c0.73-0.36,1.44-0.55,2.11-0.55
		c0.07,0,0.15,0,0.22,0c0.73,0.05,1.42,0.25,2.02,0.62c0.61,0.37,1.28,1,1.96,1.87c0.7,0.87,1.32,1.85,1.85,2.91
		c0.7,1.39,1.15,2.71,1.35,3.92C111.2,64.92,111.1,65.93,110.68,66.73"/>
	<path class="st0" d="M135.61,51.12c-0.62-2.56-1.95-4.43-3.94-5.57c-1.99-1.14-4.43-1.36-7.27-0.67c-3,0.73-5.21,2.18-6.59,4.31
		c-1.38,2.13-1.73,4.62-1.07,7.4c0.67,2.74,2.02,4.71,3.99,5.85c1.22,0.71,2.63,1.06,4.21,1.06c0.97,0,2.03-0.14,3.14-0.41
		c1.73-0.43,3.19-1.06,4.31-1.89c0.74-0.55,1.43-1.3,2.05-2.23c0.62-0.92,1.06-1.99,1.3-3.18
		C136.05,54.32,136.01,52.74,135.61,51.12 M131.67,57.21c-0.08,1.22-0.41,2.18-1,2.85c-0.58,0.69-1.41,1.15-2.45,1.41
		c-0.47,0.12-0.93,0.17-1.36,0.17c-0.93,0-1.76-0.28-2.49-0.84c-1.43-1.08-2.5-3.09-3.21-5.99c-0.34-1.42-0.46-2.76-0.35-3.99
		c0.11-1.21,0.49-2.18,1.13-2.89c0.63-0.71,1.46-1.18,2.44-1.42c0.45-0.11,0.88-0.17,1.28-0.17c0.39,0,0.76,0.06,1.12,0.16
		c0.7,0.21,1.32,0.56,1.83,1.06c0.52,0.5,1.02,1.26,1.48,2.26c0.48,1,0.86,2.1,1.14,3.25C131.61,54.6,131.76,55.99,131.67,57.21"/>
	<path class="st0" d="M137.87,48.05l1.19-0.05c0.04,0,0.08-0.03,0.09-0.08c0.38-1.39,0.67-2.35,0.88-2.81
		c0.14-0.29,0.32-0.49,0.52-0.61c0.22-0.12,0.7-0.19,1.42-0.21l2.09-0.07l0.4,11.36c0.07,1.88,0.04,2.44-0.01,2.57
		c-0.04,0.19-0.14,0.32-0.28,0.4c-0.25,0.14-1.06,0.34-2.42,0.62c-0.06,0.01-0.09,0.05-0.09,0.1l0.02,0.92
		c0,0.03,0.02,0.06,0.04,0.07c0.03,0.02,0.06,0.02,0.07,0.02h0.02c2.09-0.16,3.67-0.27,4.69-0.3c0.77-0.03,2.49-0.04,5.11-0.05
		c0.03,0,0.06-0.01,0.07-0.03c0.02-0.02,0.03-0.05,0.03-0.08l-0.03-0.92c0-0.05-0.04-0.1-0.09-0.1c-1.7-0.23-2.22-0.34-2.35-0.4
		c-0.19-0.08-0.29-0.17-0.34-0.31c-0.12-0.28-0.19-1.14-0.24-2.57l-0.41-11.48l1.16-0.04c0.45-0.01,0.84-0.02,1.17-0.02
		c0.74,0,1.01,0.04,1.11,0.08c0.23,0.08,0.4,0.22,0.54,0.43c0.14,0.22,0.54,1.2,1.19,2.91c0.01,0.05,0.07,0.07,0.11,0.07l1.21-0.04
		c0.03,0,0.06-0.02,0.07-0.05c0.02-0.02,0.03-0.05,0.02-0.08c-0.31-1.86-0.5-3.61-0.58-5.19c0-0.03-0.01-0.05-0.03-0.08
		c-0.02-0.02-0.05-0.03-0.08-0.03c-1.21,0.1-3.23,0.2-5.99,0.33c-3.25,0.13-6.65,0.21-10.08,0.24c-0.06,0-0.11,0.05-0.11,0.1
		c0.01,1.36,0,2.25-0.01,2.7c-0.02,0.47-0.09,1.31-0.18,2.52c0,0.03,0.01,0.07,0.02,0.08C137.81,48.04,137.85,48.05,137.87,48.05"/>
	<path class="st0" d="M173,48.48c0.21-1.32-0.19-2.43-1.17-3.29c-0.74-0.65-2.04-1.12-3.87-1.4c-0.52-0.08-1.08-0.16-1.67-0.23
		c-1.27-0.16-2.2-0.29-2.75-0.38c-1.42-0.21-3.18-0.54-5.25-0.95c-0.04,0-0.06,0.01-0.08,0.02c-0.03,0.02-0.03,0.04-0.03,0.07
		l-0.15,0.91c-0.01,0.05,0.03,0.09,0.07,0.11c1.76,0.63,2.11,0.76,2.15,0.79c0.16,0.1,0.27,0.19,0.32,0.3
		c0.09,0.21,0.1,0.63,0.03,1.24c-0.28,2.12-0.5,3.7-0.65,4.67c-0.27,1.75-0.58,3.68-0.93,5.75c-0.19,1.16-0.34,1.87-0.44,2.1
		c-0.06,0.13-0.14,0.23-0.24,0.29c-0.1,0.07-0.23,0.11-0.4,0.14l-2.22,0.11c-0.05,0-0.08,0.04-0.1,0.09l-0.14,0.91
		c0,0.02,0,0.06,0.02,0.08c0.02,0.03,0.04,0.04,0.08,0.04c2.19,0.24,3.63,0.41,4.27,0.51c0.36,0.05,1.01,0.18,1.97,0.37
		c0.73,0.14,1.36,0.24,1.85,0.32c0.92,0.14,1.77,0.21,2.54,0.21c0.76,0,1.46-0.07,2.08-0.21c1.25-0.28,2.24-0.81,2.96-1.58
		c0.71-0.76,1.16-1.65,1.32-2.64c0.12-0.81,0.04-1.56-0.24-2.22c-0.3-0.66-0.77-1.21-1.41-1.61c-0.53-0.34-1.23-0.62-2.1-0.86
		c1.06-0.19,1.91-0.5,2.52-0.93C172.26,50.55,172.83,49.64,173,48.48 M168.13,56.44c-0.19,1.21-0.62,2.09-1.29,2.58
		c-0.48,0.36-1.11,0.54-1.85,0.54c-0.27,0-0.57-0.02-0.86-0.07c-0.45-0.07-0.94-0.19-1.45-0.36l1.04-6.75l0.54,0.08
		c1.61,0.25,2.72,0.67,3.3,1.23C168.13,54.26,168.33,55.18,168.13,56.44 M168.9,48.34c-0.17,1.06-0.6,1.84-1.3,2.28
		c-0.46,0.3-1.1,0.46-1.9,0.46c-0.36,0-0.78-0.03-1.22-0.1l-0.54-0.08l0.92-5.96c0.59,0.02,1.08,0.05,1.47,0.12
		c0.99,0.15,1.7,0.51,2.13,1.07C168.9,46.67,169.04,47.41,168.9,48.34"/>
	<path class="st0" d="M191.67,68.2c-1.07-0.72-1.39-1.01-1.49-1.12c-0.12-0.16-0.23-0.41-0.31-0.72c-0.12-0.47-0.33-2.35-0.64-5.58
		c-0.54-5.84-0.86-9.85-0.95-11.94c0-0.04-0.03-0.08-0.06-0.09l-0.99-0.36c-0.04-0.02-0.07-0.01-0.1,0.02
		c-3.34,3.38-5.94,5.97-7.71,7.69c-2.79,2.7-4.45,4.26-4.94,4.62c-0.25,0.19-0.47,0.3-0.69,0.36c-0.34,0.08-0.89,0.06-1.66-0.06
		c-0.04,0-0.09,0.02-0.11,0.07l-0.31,0.86c-0.01,0.03-0.01,0.06,0,0.08c0.02,0.02,0.04,0.04,0.06,0.05c1.06,0.3,2.12,0.63,3.12,1
		c0.94,0.35,1.91,0.75,2.9,1.21c0.02,0.01,0.06,0.01,0.08,0c0.03-0.02,0.05-0.04,0.06-0.06l0.31-0.86c0.03-0.05,0-0.1-0.04-0.12
		c-1.24-0.73-1.49-0.95-1.54-1.02c-0.08-0.11-0.1-0.24-0.04-0.4c0.04-0.1,0.42-0.6,2.53-2.76c1.48,0.51,2.48,0.88,3.09,1.1
		c0.75,0.28,1.69,0.63,2.8,1.06c0.11,1.88,0.17,2.98,0.18,3.33c0,0.15-0.02,0.27-0.06,0.37c-0.05,0.15-0.17,0.25-0.32,0.3
		c-0.03,0.01-0.08,0.01-0.16,0.01c-0.29,0-0.84-0.08-1.67-0.22c-0.05-0.01-0.1,0.02-0.12,0.07l-0.31,0.86
		c-0.01,0.03,0,0.06,0.01,0.08c0.01,0.02,0.03,0.05,0.06,0.05c1.87,0.59,3.43,1.12,4.63,1.56c1.23,0.45,2.57,0.99,3.97,1.6
		c0.01,0.01,0.04,0.01,0.05,0.01c0.01,0,0.03,0,0.04-0.01c0.03,0,0.04-0.02,0.05-0.05l0.31-0.86
		C191.73,68.27,191.7,68.22,191.67,68.2 M182.64,58.63l-2.27-0.85l4.24-4.29l0.38,5.98C183.98,59.12,183.19,58.83,182.64,58.63"/>
	<path class="st0" d="M191.47,69.51c0.01,0.03,0.02,0.05,0.05,0.06c1.87,1.08,3.66,2.17,5.35,3.23c2.05,1.3,4.64,3.01,7.7,5.05
		c0.02,0.01,0.04,0.02,0.06,0.02c0.03,0,0.05-0.01,0.06-0.03c1.46-1.24,2.85-2.36,4.15-3.34c0.03-0.02,0.04-0.05,0.04-0.08
		c0-0.03-0.02-0.07-0.05-0.08l-0.99-0.63c-0.03-0.02-0.08-0.02-0.1,0c-1.4,0.66-2.35,1.06-2.81,1.19c-0.47,0.13-0.87,0.16-1.23,0.09
		c-0.26-0.06-0.73-0.29-1.38-0.7l-3.92-2.5l5.47-8.62l1.75-2.67c0.28-0.43,0.54-0.65,0.79-0.65h0.03c0.1,0.01,0.66,0.22,2.7,1.14
		c0.05,0.02,0.1,0,0.13-0.04l0.49-0.78c0.02-0.02,0.02-0.05,0.01-0.08c0-0.03-0.02-0.05-0.04-0.06c-1.82-1.05-3.29-1.92-4.34-2.6
		c-1.05-0.66-2.5-1.64-4.32-2.9c-0.02-0.01-0.05-0.02-0.08-0.02c-0.02,0.01-0.05,0.02-0.06,0.05l-0.5,0.78
		c-0.03,0.04-0.02,0.1,0.01,0.13c1.31,1.21,1.65,1.59,1.72,1.69c0.08,0.13,0.1,0.29,0.07,0.46c-0.07,0.26-0.45,0.95-1.16,2.05
		l-2.83,4.49c-1.96,3.08-3.05,4.76-3.24,4.98c-0.16,0.2-0.33,0.31-0.49,0.32c-0.13,0-0.66-0.14-2.42-0.85
		c-0.05-0.02-0.1,0-0.13,0.04l-0.49,0.77C191.46,69.45,191.46,69.48,191.47,69.51"/>
	<path class="st0" d="M209.43,78.89c-0.21,0.17-0.4,0.25-0.54,0.22c-0.1-0.01-0.52-0.2-2.23-1.28c-0.03-0.03-0.09-0.02-0.13,0.01
		l-0.62,0.67c-0.03,0.02-0.04,0.05-0.03,0.08c0,0.03,0.01,0.05,0.03,0.07c1.64,1.4,3.2,2.8,4.67,4.17c1.78,1.66,4.01,3.81,6.63,6.38
		c0.02,0.02,0.05,0.03,0.08,0.03c0.01,0,0.03-0.01,0.05-0.02c1.64-0.95,3.23-1.79,4.69-2.51c0.03-0.01,0.05-0.05,0.05-0.08
		c0.01-0.03,0-0.07-0.03-0.09l-0.86-0.81c-0.03-0.02-0.06-0.03-0.1-0.02c-1.5,0.39-2.51,0.61-2.99,0.65
		c-0.46,0.03-0.88-0.01-1.21-0.15c-0.25-0.1-0.66-0.41-1.22-0.94l-3.4-3.18l6.97-7.47l2.22-2.3c0.32-0.34,0.59-0.5,0.81-0.5
		c0.03,0,0.07,0,0.1,0.01c0.11,0.03,0.61,0.34,2.45,1.61c0.04,0.03,0.1,0.02,0.14-0.01l0.62-0.67c0.02-0.02,0.03-0.05,0.03-0.08
		c0-0.02-0.02-0.05-0.04-0.08c-1.59-1.35-2.86-2.48-3.79-3.35c-0.9-0.84-2.14-2.07-3.7-3.64c-0.02-0.01-0.04-0.03-0.07-0.03
		c-0.02,0-0.06,0.01-0.08,0.03l-0.63,0.68c-0.03,0.03-0.04,0.09,0,0.13c1.05,1.43,1.32,1.87,1.37,1.98c0.06,0.15,0.05,0.3-0.02,0.47
		c-0.07,0.16-0.39,0.62-1.51,1.81l-3.61,3.9C211.04,77.26,209.66,78.71,209.43,78.89"/>
	<path class="st0" d="M230.88,108.22c0.99,0.89,2.3,1.75,3.87,2.55c0.03,0.01,0.04,0.01,0.05,0.01c0.04,0,0.07-0.02,0.1-0.05
		l0.67-1.19c0.01-0.02,0.01-0.05,0.01-0.08c-0.01-0.03-0.03-0.05-0.05-0.06c-1.8-1.03-3.2-2.35-4.16-3.94
		c-1.06-1.78-1.39-3.54-0.95-5.22c0.43-1.69,1.7-3.17,3.76-4.4c1.98-1.19,3.86-1.6,5.62-1.22c1.45,0.31,2.66,1.28,3.62,2.87
		c0.63,1.06,0.96,2.01,0.97,2.83c0.01,0.83-0.17,1.54-0.52,2.12c-0.16,0.25-0.81,0.98-1.93,2.16c-0.04,0.04-0.04,0.08-0.02,0.13
		l0.74,1.23c0.01,0.03,0.04,0.05,0.07,0.05c0.03,0.01,0.05,0,0.07-0.01c1.17-0.85,2.19-1.54,3.05-2.05c0.49-0.3,0.99-0.57,1.47-0.79
		c0.04-0.02,0.07-0.07,0.06-0.12c-0.38-1.48-0.77-2.71-1.14-3.65c-0.37-0.94-0.84-1.88-1.39-2.79c-1.72-2.88-3.87-4.71-6.35-5.44
		c-2.49-0.73-5.01-0.35-7.47,1.13c-2.33,1.4-3.77,3.27-4.27,5.54c-0.5,2.28,0,4.72,1.53,7.25
		C229.01,106.27,229.88,107.33,230.88,108.22"/>
	<path class="st0" d="M249.21,109.39c-0.01,0.16-0.1,0.29-0.24,0.4c-0.21,0.18-0.94,0.48-2.17,0.92l-5,1.79
		c-3.44,1.22-5.33,1.87-5.61,1.93c-0.26,0.05-0.45,0.04-0.57-0.06c-0.08-0.06-0.37-0.41-1.39-2.16c-0.03-0.05-0.08-0.07-0.13-0.05
		l-0.86,0.3c-0.02,0.01-0.05,0.03-0.06,0.06c-0.01,0.03-0.01,0.06,0,0.08c0.81,2,1.56,3.97,2.23,5.84c0.81,2.32,1.81,5.26,2.96,8.73
		c0.01,0.04,0.05,0.07,0.09,0.07h0.01c1.91-0.09,3.69-0.12,5.31-0.08h0.01c0.03,0,0.07-0.01,0.08-0.04
		c0.02-0.03,0.03-0.06,0.02-0.09l-0.4-1.11c-0.01-0.03-0.04-0.06-0.08-0.07c-1.51-0.34-2.51-0.61-2.96-0.8
		c-0.43-0.18-0.77-0.41-1.02-0.69c-0.17-0.2-0.39-0.67-0.65-1.39l-1.56-4.38l9.65-3.42l3.01-1.02c0.51-0.18,0.86-0.19,1.04-0.02
		c0.08,0.08,0.39,0.59,1.43,2.56c0.02,0.05,0.07,0.07,0.12,0.05l0.86-0.31c0.03-0.01,0.06-0.03,0.06-0.06
		c0.02-0.02,0.02-0.05,0-0.08c-0.79-1.95-1.39-3.54-1.83-4.72c-0.42-1.18-0.95-2.84-1.6-4.93c-0.01-0.03-0.03-0.05-0.05-0.07
		c-0.03-0.01-0.05-0.01-0.08-0.01l-0.87,0.31c-0.05,0.01-0.07,0.06-0.07,0.11C249.17,108.76,249.22,109.27,249.21,109.39"/>
	<path class="st0" d="M258.51,139.13c-0.01-0.03-0.02-0.05-0.04-0.07c-0.02-0.02-0.05-0.03-0.07-0.02l-0.91,0.12
		c-0.05,0.01-0.08,0.05-0.09,0.1c-0.01,0.23-0.02,0.41-0.03,0.52c-0.05,1.19-0.12,1.59-0.18,1.7c-0.04,0.12-0.12,0.21-0.22,0.26
		c-0.14,0.08-0.62,0.22-2.16,0.5c-2.39,0.4-3.67,0.62-4.14,0.69c-2.12,0.3-3.64,0.41-4.53,0.33c-0.88-0.08-1.64-0.42-2.25-1.03
		c-0.62-0.61-1.03-1.61-1.22-2.96c-0.16-1.23-0.08-2.21,0.29-2.95c0.35-0.73,0.9-1.28,1.6-1.61c0.54-0.26,1.63-0.51,3.24-0.74
		l6.3-0.88c0.84-0.12,1.4-0.15,1.59-0.1c0.14,0.04,0.25,0.14,0.35,0.32c0.18,0.29,0.47,1.06,0.83,2.28
		c0.01,0.05,0.07,0.08,0.11,0.07l0.9-0.13c0.03,0,0.06-0.02,0.07-0.04c0.02-0.02,0.03-0.05,0.02-0.08
		c-0.36-1.95-0.63-3.55-0.81-4.78c-0.16-1.2-0.35-2.83-0.55-4.85c0-0.03-0.01-0.05-0.04-0.07c-0.02-0.02-0.05-0.02-0.07-0.02
		l-0.91,0.13c-0.05,0.01-0.09,0.05-0.09,0.1c-0.07,1.61-0.12,2.12-0.15,2.25c-0.06,0.18-0.14,0.32-0.26,0.4
		c-0.23,0.13-0.84,0.27-1.79,0.4l-7.59,1.07c-1.66,0.23-2.9,0.64-3.71,1.21c-0.81,0.57-1.41,1.48-1.78,2.7
		c-0.38,1.21-0.43,2.79-0.17,4.72c0.17,1.14,0.46,2.21,0.9,3.17c0.32,0.73,0.79,1.39,1.36,1.95c0.57,0.57,1.19,0.97,1.82,1.23
		c0.62,0.24,1.41,0.37,2.36,0.39c0.69,0,2.1-0.14,4.22-0.42c3.65-0.49,5.69-0.72,6.22-0.72H257c0.25,0,0.44,0.08,0.59,0.25
		c0.1,0.12,0.34,0.59,0.85,2.16c0.01,0.04,0.05,0.06,0.09,0.06h0.01l0.91-0.13c0.02,0,0.05-0.02,0.07-0.04
		c0.01-0.03,0.02-0.06,0.01-0.08c-0.29-1.43-0.49-2.61-0.62-3.49C258.81,142.24,258.68,140.97,258.51,139.13"/>
	<path class="st0" d="M259.46,149.93c-0.03-0.02-0.05-0.03-0.08-0.03l-0.92-0.06c-0.05,0-0.09,0.03-0.1,0.08
		c-0.51,1.93-0.58,2.19-0.6,2.22c-0.08,0.16-0.17,0.28-0.27,0.34c-0.2,0.11-0.62,0.16-1.24,0.13c-2.12-0.08-3.72-0.16-4.7-0.22
		c-1.84-0.12-3.79-0.26-5.8-0.41c-1.18-0.09-1.9-0.18-2.13-0.26c-0.14-0.05-0.25-0.12-0.32-0.21c-0.07-0.09-0.12-0.22-0.18-0.39
		l-0.3-2.2c-0.01-0.05-0.04-0.09-0.09-0.09l-0.92-0.06c-0.04,0-0.06,0.01-0.08,0.03c-0.02,0.02-0.03,0.04-0.03,0.08
		c-0.05,2.2-0.1,3.65-0.14,4.31c-0.02,0.36-0.08,1.02-0.2,1.98c-0.07,0.77-0.12,1.39-0.16,1.87c-0.11,1.85,0.02,3.39,0.41,4.59
		c0.39,1.22,1,2.17,1.83,2.82c0.83,0.65,1.75,1.02,2.75,1.08c0.12,0.01,0.22,0.01,0.33,0.01c0.69,0,1.31-0.15,1.87-0.45
		c0.63-0.35,1.12-0.87,1.47-1.54c0.3-0.56,0.51-1.28,0.67-2.17c0.28,1.05,0.67,1.86,1.14,2.42c0.73,0.89,1.69,1.37,2.86,1.44
		c1.33,0.1,2.42-0.4,3.17-1.45c0.58-0.8,0.93-2.13,1.06-3.98c0.04-0.51,0.06-1.08,0.08-1.68c0.06-1.32,0.1-2.23,0.13-2.77
		c0.1-1.44,0.26-3.23,0.49-5.32C259.49,149.98,259.48,149.95,259.46,149.93 M249.81,156.86c-0.1,1.62-0.43,2.77-0.94,3.4
		c-0.51,0.62-1.43,0.9-2.67,0.82c-1.24-0.08-2.14-0.43-2.69-1.05c-0.54-0.62-0.78-1.52-0.71-2.68c0.03-0.45,0.1-0.95,0.23-1.48
		l6.83,0.44L249.81,156.86z M257.38,158.28c-0.06,0.99-0.36,1.74-0.88,2.22c-0.51,0.48-1.24,0.69-2.18,0.62
		c-1.08-0.07-1.88-0.44-2.39-1.08c-0.51-0.66-0.72-1.69-0.63-3.08l0.03-0.54l6.03,0.39C257.4,157.38,257.4,157.88,257.38,158.28"/>
	<polygon class="st2" points="58.12,176.2 59.86,181.54 65.46,181.54 60.93,184.83 62.66,190.18 58.12,186.88 53.58,190.18 
		55.31,184.83 50.77,181.54 56.38,181.54 	"/>
	<polygon class="st2" points="241.42,176.2 243.15,181.54 248.75,181.54 244.22,184.83 245.95,190.18 241.42,186.88 236.87,190.18 
		238.61,184.83 234.07,181.54 239.68,181.54 	"/>
	<path class="st3" d="M119.77,78.84v143.6c3.63,1.54,7.41,2.79,11.29,3.77V75.07C127.18,76.04,123.41,77.3,119.77,78.84"/>
	<path class="st1" d="M150,72.73c-1.91,0-3.78,0.09-5.65,0.23v155.37c1.87,0.14,3.74,0.22,5.65,0.22c1.9,0,3.78-0.09,5.65-0.22
		V72.96C153.78,72.82,151.9,72.73,150,72.73"/>
	<path class="st3" d="M168.94,226.21c3.88-0.97,7.66-2.23,11.29-3.77V78.84c-3.63-1.54-7.41-2.8-11.29-3.77V226.21z"/>
	<path class="st0" d="M121.39,199.86c7.86,8.01,21.78,19.56,28.15,20.14c0.13,0.02,0.28,0.03,0.43,0.03c0.21,0,0.43-0.02,0.66-0.05
		c5.6-0.79,18.79-11.09,27.79-20.18c17.95-18.14,21.72-31.78,21.72-40.03v-56.57c0-4.35-2.48-6.87-6.99-7.07
		c-18.32-0.85-34.32-11.11-39.58-14.48c-0.54-0.34-1.09-0.7-1.54-0.99c-0.75-0.47-1.61-0.71-2.49-0.71c-0.88,0-1.74,0.25-2.48,0.71
		c-0.47,0.29-1.02,0.65-1.57,1.01L144.98,82c-6.73,4.33-20.75,13.34-38.14,14.14c-4.5,0.21-6.98,2.72-6.98,7.07v56.57
		c0,6.55,2.29,13.74,6.81,21.39C110.29,187.29,115.25,193.58,121.39,199.86"/>
	<path class="st2" d="M193.15,96.14c-0.36-0.01-0.71-0.03-1.07-0.06c-0.71-0.05-1.42-0.11-2.13-0.19c-0.35-0.03-0.7-0.08-1.05-0.12
		c-0.36-0.05-0.72-0.1-1.08-0.14c-0.27-0.04-0.54-0.08-0.82-0.12c-0.41-0.06-0.81-0.13-1.22-0.21c-0.34-0.06-0.68-0.12-1.02-0.19
		c-0.27-0.05-0.54-0.11-0.81-0.16c-0.27-0.05-0.54-0.11-0.81-0.17c-0.27-0.06-0.54-0.12-0.8-0.18c-0.53-0.12-1.06-0.25-1.58-0.39
		c-0.18-0.04-0.35-0.09-0.52-0.14c-0.61-0.16-1.21-0.33-1.81-0.51c-0.25-0.07-0.51-0.15-0.76-0.23c-0.25-0.07-0.51-0.15-0.75-0.24
		c-0.5-0.16-1-0.32-1.49-0.49c-0.49-0.17-0.97-0.34-1.46-0.51c-0.25-0.09-0.48-0.18-0.72-0.27c-0.43-0.16-0.86-0.32-1.29-0.5
		c-0.5-0.19-1-0.39-1.49-0.6c-0.23-0.09-0.45-0.19-0.67-0.28c-0.23-0.1-0.45-0.19-0.67-0.29c-0.06-0.02-0.12-0.05-0.18-0.08
		c-0.16-0.07-0.32-0.14-0.48-0.21c-1.02-0.45-2-0.91-2.94-1.36c-0.67-0.33-1.32-0.66-1.95-0.98c-0.38-0.19-0.75-0.39-1.11-0.58
		c-0.25-0.13-0.49-0.26-0.73-0.39c-0.11-0.06-0.23-0.12-0.34-0.19c-0.17-0.1-0.34-0.19-0.51-0.28c-1.37-0.76-2.6-1.48-3.69-2.14
		c-0.27-0.16-0.53-0.32-0.79-0.48c-0.26-0.16-0.52-0.32-0.76-0.47v0c-0.11-0.07-0.21-0.14-0.31-0.2c-0.34-0.21-0.65-0.41-0.95-0.6
		c-0.04-0.02-0.08-0.05-0.12-0.07c-0.25-0.16-0.48-0.31-0.69-0.45c-0.53-0.34-1.09-0.7-1.54-0.98c-0.75-0.47-1.61-0.71-2.49-0.71
		c-0.88,0-1.74,0.24-2.48,0.71c-0.47,0.29-1.02,0.65-1.57,1.01l-0.5,0.32h-0.01c-0.21,0.13-0.41,0.27-0.63,0.4
		c-3.15,2.02-7.7,4.88-13.29,7.47c-0.58,0.27-1.17,0.53-1.77,0.79c-0.28,0.12-0.56,0.24-0.85,0.36c-0.34,0.15-0.69,0.29-1.04,0.43
		c-0.11,0.05-0.22,0.09-0.33,0.13c-0.32,0.13-0.64,0.26-0.97,0.38c-0.01,0.01-0.03,0.01-0.03,0.01c-0.21,0.08-0.42,0.16-0.63,0.23
		c-0.67,0.25-1.34,0.49-2.03,0.71c-0.46,0.16-0.92,0.31-1.38,0.45c-0.74,0.24-1.5,0.46-2.26,0.67c-0.76,0.21-1.52,0.4-2.3,0.58
		c-0.26,0.06-0.52,0.12-0.78,0.18c-0.51,0.12-1.04,0.23-1.58,0.33c-0.26,0.05-0.53,0.1-0.8,0.15c-0.27,0.05-0.54,0.1-0.81,0.14
		c-0.27,0.05-0.54,0.09-0.81,0.13c-0.28,0.04-0.55,0.08-0.82,0.12c-0.27,0.03-0.55,0.08-0.82,0.11c-0.85,0.11-1.71,0.19-2.59,0.26
		c-0.26,0.02-0.54,0.04-0.81,0.05c-0.27,0.02-0.54,0.03-0.81,0.04c-4.5,0.21-6.98,2.72-6.98,7.08v56.57
		c0,6.55,2.29,13.74,6.81,21.39c0.41,0.7,0.84,1.39,1.29,2.1c0.23,0.35,0.45,0.7,0.68,1.05c0.22,0.34,0.46,0.69,0.69,1.03
		c0,0.01,0.01,0.02,0.02,0.04c0.24,0.35,0.48,0.69,0.72,1.04c0.25,0.35,0.5,0.71,0.76,1.07c0.24,0.33,0.48,0.66,0.73,0.99
		c0.04,0.05,0.08,0.11,0.13,0.16c0.23,0.31,0.47,0.62,0.71,0.93c1.72,2.24,3.61,4.49,5.65,6.75c0.56,0.61,1.13,1.23,1.71,1.84
		c0.53,0.56,1.07,1.13,1.62,1.69c0.17,0.17,0.34,0.34,0.51,0.52c0.17,0.17,0.35,0.35,0.53,0.53c1.63,1.62,3.48,3.36,5.43,5.09
		c0.18,0.16,0.37,0.32,0.55,0.49c0.87,0.76,1.75,1.52,2.64,2.27c0.7,0.58,1.4,1.16,2.1,1.73c0.29,0.23,0.59,0.47,0.88,0.7
		c0.19,0.16,0.38,0.3,0.57,0.45c0.25,0.2,0.5,0.39,0.74,0.58c1.21,0.93,2.41,1.81,3.59,2.62c0.22,0.15,0.44,0.3,0.67,0.45
		c0.57,0.39,1.14,0.76,1.69,1.11c0.23,0.14,0.45,0.28,0.68,0.42c0.82,0.5,1.61,0.95,2.37,1.35c0.73,0.38,1.42,0.71,2.09,0.97
		c0.08,0.03,0.16,0.07,0.25,0.1c0.27,0.11,0.54,0.21,0.8,0.29c0.1,0.03,0.21,0.07,0.31,0.1c0.1,0.03,0.21,0.07,0.31,0.09
		c0.21,0.05,0.4,0.1,0.6,0.14c0.09,0.02,0.19,0.04,0.28,0.06c0.18,0.03,0.37,0.06,0.54,0.08c0.13,0.02,0.28,0.03,0.43,0.03
		c0.21,0,0.43-0.02,0.66-0.05c0.09-0.01,0.18-0.02,0.27-0.04c0.18-0.03,0.37-0.08,0.56-0.13c0.1-0.03,0.2-0.06,0.3-0.08
		c0.1-0.03,0.2-0.06,0.3-0.09c0.07-0.03,0.14-0.05,0.21-0.08c0.2-0.07,0.4-0.14,0.61-0.23c0.21-0.08,0.43-0.18,0.65-0.27
		c0.11-0.05,0.22-0.1,0.34-0.15c0.56-0.26,1.16-0.56,1.78-0.9c0.3-0.16,0.6-0.33,0.92-0.52c0.19-0.1,0.37-0.21,0.56-0.33
		c0.54-0.32,1.1-0.67,1.67-1.04c0.22-0.14,0.45-0.29,0.68-0.45c0.01-0.01,0.03-0.01,0.04-0.02c0.26-0.17,0.52-0.35,0.78-0.53
		c0.66-0.45,1.32-0.92,2-1.41c0.46-0.33,0.92-0.68,1.38-1.02c0.29-0.22,0.58-0.44,0.87-0.66c0.29-0.22,0.58-0.45,0.88-0.68
		c1.16-0.91,2.35-1.87,3.52-2.85c2.68-2.24,5.32-4.63,7.75-6.98c0.3-0.29,0.58-0.57,0.87-0.86c0.29-0.29,0.58-0.57,0.86-0.86
		c0.62-0.62,1.23-1.25,1.82-1.87c0.51-0.54,1.01-1.07,1.5-1.6c0.25-0.26,0.49-0.53,0.72-0.79c4.04-4.47,7.2-8.62,9.66-12.48
		c0.14-0.22,0.29-0.45,0.43-0.68c2.51-4.04,4.26-7.71,5.43-11.03c0.06-0.18,0.13-0.37,0.19-0.55c0.18-0.55,0.36-1.08,0.51-1.6
		c0.05-0.17,0.1-0.35,0.15-0.52c0.13-0.45,0.24-0.9,0.35-1.34c0.07-0.3,0.14-0.6,0.2-0.89c0.17-0.75,0.3-1.47,0.4-2.17
		c0.02-0.14,0.04-0.28,0.06-0.42c0.11-0.74,0.18-1.46,0.23-2.14c0.02-0.26,0.03-0.51,0.04-0.76c0.02-0.41,0.03-0.81,0.03-1.19
		v-56.57C200.13,98.86,197.66,96.34,193.15,96.14 M198.68,159.78c0,7.52-3.29,19.73-18.45,36.02c-0.91,0.97-1.86,1.97-2.86,2.98
		c-2.7,2.73-5.58,5.39-8.43,7.82c-4.83,4.13-9.59,7.6-13.3,9.74c-2.17,1.24-3.98,2.03-5.23,2.21c-0.15,0.02-0.3,0.03-0.45,0.03
		c-0.1,0-0.2-0.01-0.3-0.01c-1.35-0.13-3.19-0.87-5.32-2.04c-3.83-2.12-8.63-5.67-13.29-9.65c-3.03-2.59-6.01-5.36-8.63-8.03
		c-0.92-0.93-1.8-1.87-2.66-2.8c-4.84-5.26-8.82-10.5-11.85-15.61c-4.38-7.42-6.6-14.37-6.6-20.65v-56.57
		c0-3.56,1.88-5.45,5.59-5.62c4.54-0.21,8.84-0.96,12.86-2.04c4.09-1.1,7.88-2.54,11.29-4.08c5.5-2.49,10.02-5.26,13.29-7.35
		c0.5-0.32,0.98-0.62,1.42-0.91l0.5-0.32c0.55-0.35,1.1-0.7,1.56-0.99c0.52-0.32,1.12-0.49,1.71-0.49c0.6,0,1.19,0.16,1.71,0.49
		c0.45,0.28,1,0.63,1.53,0.97c0.75,0.48,1.71,1.1,2.86,1.81c3.16,1.94,7.75,4.57,13.3,6.95c3.43,1.48,7.24,2.86,11.29,3.93
		c4.06,1.07,8.39,1.82,12.85,2.03c3.72,0.17,5.6,2.06,5.6,5.62V159.78z"/>
	<path class="st2" d="M180.23,140.21c-3.56-1.98-7.34-3.63-11.29-4.88c-4.24-1.34-8.7-2.24-13.29-2.62
		c-1.71-0.14-3.45-0.22-5.19-0.22c-2.06,0-4.1,0.1-6.11,0.3c-4.6,0.45-9.05,1.42-13.29,2.84c-3.96,1.32-7.75,3.04-11.29,5.11
		c-4.05,2.35-7.79,5.15-11.18,8.32v10.72c0,8.04,4.8,16.93,11.18,25.03c3.47,4.4,7.41,8.58,11.29,12.25
		c4.85,4.6,9.61,8.41,13.29,10.95c2.41,1.66,4.35,2.77,5.54,3.18c1.15-0.43,2.95-1.47,5.18-2.99c0.19-0.13,0.38-0.26,0.58-0.4v0
		c3.71-2.59,8.47-6.42,13.29-10.99c3.89-3.68,7.82-7.84,11.29-12.23c6.39-8.08,11.18-16.89,11.18-24.81v-11.57
		C188.01,145.14,184.26,142.45,180.23,140.21 M173.33,163.64c-0.68,3.8-2.22,7.23-4.39,10.11c-3.28,4.35-7.98,7.48-13.29,8.81
		c-3.16,0.79-6.55,0.94-9.96,0.33c-0.45-0.08-0.89-0.18-1.33-0.28c-5.45-1.3-10.06-4.41-13.29-8.58
		c-3.98-5.14-5.85-11.88-4.62-18.78c0.7-3.93,2.33-7.46,4.62-10.4c3.31-4.27,8.02-7.31,13.29-8.58c3.1-0.75,6.4-0.88,9.73-0.28
		c0.53,0.1,1.05,0.21,1.56,0.33c5.49,1.37,10.1,4.58,13.29,8.83C172.76,150.26,174.55,156.87,173.33,163.64"/>
	<path class="st1" d="M192.93,100.83c-4.41-0.21-8.68-0.91-12.7-1.91c-4.04-1.01-7.84-2.32-11.29-3.75
		c-5.36-2.21-9.91-4.68-13.29-6.69c-1.94-1.15-3.5-2.15-4.61-2.86c-0.52-0.34-1.05-0.67-1.49-0.95c-0.45,0.28-0.99,0.62-1.52,0.97
		l-0.5,0.31c-0.93,0.6-1.99,1.28-3.17,2.02c-3.46,2.15-7.95,4.75-13.29,7.06c-3.44,1.49-7.22,2.85-11.29,3.89
		c-3.98,1.02-8.23,1.72-12.71,1.93c-2.26,0.1-2.5,0.81-2.5,2.38v56.57c0,10.34,6.81,21.67,15.2,31.39
		c3.61,4.18,7.51,8.05,11.29,11.43c4.94,4.4,9.68,7.95,13.29,10.18c2.53,1.56,4.5,2.47,5.61,2.57c1.07-0.15,3.07-1.13,5.68-2.78
		c3.6-2.28,8.35-5.85,13.29-10.25c3.78-3.36,7.69-7.21,11.29-11.35c8.39-9.65,15.2-20.86,15.2-31.18v-56.57
		C195.44,101.64,195.2,100.93,192.93,100.83 M191.42,159.78c0,7.92-4.8,16.73-11.18,24.81c-3.47,4.38-7.41,8.54-11.29,12.23
		c-4.82,4.58-9.58,8.4-13.29,10.99c-0.19,0.14-0.39,0.27-0.58,0.4c-2.23,1.52-4.03,2.56-5.18,2.99c-1.19-0.42-3.13-1.53-5.54-3.18
		c-3.68-2.54-8.45-6.35-13.29-10.95c-3.89-3.68-7.82-7.85-11.29-12.25c-6.38-8.1-11.19-16.99-11.19-25.03v-55.01
		c3.92-0.26,7.66-0.87,11.19-1.72c4.06-0.96,7.83-2.24,11.29-3.66c5.2-2.13,9.68-4.56,13.29-6.71c2.01-1.21,3.75-2.32,5.19-3.25
		c1.48,0.95,3.55,2.25,6.1,3.69c3.58,2.02,8.09,4.33,13.29,6.37c3.49,1.36,7.28,2.61,11.29,3.56c3.57,0.84,7.31,1.45,11.18,1.71
		V159.78z"/>
	<path class="st1" d="M168.94,145.16c-3.19-4.25-7.8-7.46-13.3-8.83c-0.51-0.12-1.03-0.24-1.56-0.33c-3.33-0.6-6.63-0.47-9.73,0.28
		c-5.27,1.26-9.98,4.31-13.29,8.58c-2.29,2.95-3.92,6.48-4.62,10.4c-1.23,6.9,0.64,13.64,4.62,18.78c3.22,4.17,7.84,7.28,13.29,8.58
		c0.44,0.1,0.88,0.2,1.33,0.28c3.42,0.61,6.8,0.46,9.96-0.33c5.31-1.32,10.02-4.45,13.3-8.81c2.17-2.89,3.71-6.32,4.39-10.11
		C174.54,156.86,172.76,150.26,168.94,145.16 M155.65,138.09c0.31-0.08,0.61-0.17,0.91-0.27c5.25,1.59,9.57,4.99,12.39,9.37
		c0.2,0.32,0.4,0.63,0.58,0.96c-0.03,0.29-0.06,0.63-0.1,1.02c-0.04,0.39-0.07,0.82-0.11,1.26c-0.12-0.06-0.24-0.11-0.37-0.16
		c-1.64-0.69-3.72-1.04-6.07-1.02c-1.1-1.47-5.39-5.23-7.09-5.92c-0.03-0.47-0.07-0.96-0.14-1.45c-0.18-1.39-0.48-2.77-0.71-3.63
		C155.17,138.2,155.41,138.15,155.65,138.09 M159.12,158.12c0.95,1.57,3.16,5.54,3.28,8.77c-2.27,3.13-4.27,5.45-6.09,7.13
		c-0.22,0.02-0.44,0.05-0.67,0.07c-1.33,0.1-2.78,0.01-4.34-0.27c-1.53-0.27-2.87-0.68-3.73-0.98c-0.49-0.16-0.86-0.32-1.1-0.4
		c-0.03-0.01-0.06-0.03-0.08-0.03c-0.82-1.63-1.49-3.37-2.05-5.08c-0.38-1.15-0.71-2.27-1.03-3.33c0.27-0.62,0.62-1.24,1.03-1.84
		c0.87-1.31,1.96-2.52,2.86-3.42c0.63-0.62,1.28-1.24,1.99-1.84c0.29-0.24,0.51-0.42,0.64-0.53c0.93,0.14,1.84,0.26,2.79,0.38
		c0.97,0.12,1.96,0.25,3.01,0.41c0.64,0.1,1.31,0.2,2,0.33c0.41,0.08,0.82,0.15,1.21,0.23
		C158.94,157.81,159.03,157.96,159.12,158.12 M138.5,139.97c1.82-1.08,3.79-1.9,5.86-2.43c2.47-0.65,5.09-0.86,7.75-0.61
		c0,0,0.01,0.01,0.01,0.01c0.74,0.42,1.44,0.82,2.15,1.17c0.33,1.1,0.8,3.38,0.91,5.2c-2.16,0.41-6.49,2.65-7.68,3.44
		c-0.86-0.45-1.96-0.87-3.14-1.21c-0.62-0.17-1.27-0.32-1.91-0.44c-1.55-0.27-2.88-0.33-3.81-0.15
		C138.39,143.7,138.29,141.68,138.5,139.97 M138.58,145.58c0.85-0.21,2.2-0.16,3.74,0.12l0.02-0.12h0.01l-0.02,0.12
		c0.69,0.12,1.37,0.28,2.02,0.47c1.08,0.32,2.09,0.71,2.87,1.14c0.16,0.67,0.31,1.37,0.47,2.02c0.49,2.21,1.02,4.48,1.66,6.63
		c-0.97,0.8-3.27,2.78-5,5.11c-0.6,0.81-1.14,1.67-1.53,2.53c-1.21-0.22-2.49-0.45-3.74-0.67c-0.81-0.14-1.61-0.27-2.37-0.42
		c-0.59-0.1-1.11-0.2-1.55-0.28c-1.15-1.75-1.84-4.12-2.23-5.81c-0.25-1.08-0.42-2.04-0.49-2.65c-0.06-0.37-0.09-0.66-0.11-0.84
		C134.28,150.09,136.48,147.71,138.58,145.58 M127.78,155.41c0.21-1.14,0.49-2.24,0.85-3.3c0.75,0.35,1.69,0.64,2.43,0.83
		c0.26,0.07,0.49,0.13,0.68,0.17c0.16,1.33,0.85,6.2,2.83,9.32c-0.95,1.52-2.4,4.28-2.16,6.86c-0.47,0.36-0.92,0.73-1.35,1.1
		c-0.17,0.15-0.34,0.3-0.51,0.45C127.91,166.34,126.79,160.94,127.78,155.41 M131.06,171.64c-0.07-0.09-0.13-0.19-0.19-0.29
		c0.06-0.05,0.12-0.11,0.19-0.17c0.5-0.44,1.04-0.88,1.59-1.31c1.12,1.78,4.91,5.72,6.85,6.43c0.99,2.01,2.55,3.58,3.82,4.63
		C138.14,179.33,133.86,175.97,131.06,171.64 M155.35,181.07c-0.23,0.13-0.46,0.25-0.68,0.37c-2.76,0.6-5.7,0.67-8.66,0.14
		c-0.37-0.06-0.75-0.14-1.11-0.23c-0.17-0.11-0.35-0.24-0.54-0.38c-1.3-0.97-3.05-2.55-4.16-4.65c0.94-0.19,2.66-0.96,4.16-1.89
		c0.73-0.45,1.4-0.95,1.92-1.43c0.82,0.33,2.68,1.01,4.94,1.42c1.58,0.28,3.07,0.38,4.44,0.28c0.18-0.02,0.36-0.03,0.54-0.05
		c0.74,2.08,1.59,3.4,2.56,4.03c-0.9,0.8-1.94,1.54-3.1,2.24C155.55,180.95,155.45,181.01,155.35,181.07 M156.81,180.87
		c0.97-0.63,1.84-1.3,2.62-2.01c1.12-0.21,2.48-0.58,4.05-1.42C161.48,178.93,159.22,180.11,156.81,180.87 M163.53,166.81
		c-0.21-0.04-0.39-0.08-0.54-0.12c-0.2-3.54-2.67-7.8-3.57-9.25c1.72-2.12,2.98-4.8,3.57-7.61c1.16,0,2.24,0.09,3.23,0.27
		c1.02,0.17,1.93,0.45,2.72,0.82c0.15,0.06,0.3,0.13,0.44,0.21c1.15,1.95,2.51,5.39,2.78,8.02c-0.01,0.08-0.03,0.17-0.05,0.27
		c-0.19,1.11-0.97,4.7-3.17,7.34c-0.15,0.18-0.31,0.35-0.46,0.52C167.42,167.25,164.96,167.07,163.53,166.81 M172.17,163.35
		c-0.54,3.03-1.66,5.8-3.23,8.24c-0.5,0.78-1.05,1.52-1.64,2.22c0.97-1.88,1.52-3.74,1.64-5.56c0.01-0.21,0.03-0.4,0.03-0.61
		c2.1-2.22,3.1-5.26,3.53-7.12C172.45,161.46,172.35,162.41,172.17,163.35"/>
	<path class="st1" d="M114.51,118.63c0,0,3.22-5.13,20.17-6.39c33.89-2.54,52.78,6.62,32.96,12.79c-7.65,2.37-19.04,1.88-18.87,2.47
		c0.14,0.52,15.25,0.18,25.03-2.55c11.6-3.26,12.09-6.89,12.09-6.89s4.43-8.88-20.12-11.35c-15.71-1.58-36.92-1.39-48.4,5.18
		C111.39,115.3,114.51,118.63,114.51,118.63"/>
	<path class="st3" d="M150.16,121.98l-0.02-3.85c0-1.14,0-2.45-0.66-3.23c-0.5-0.63-1.37-0.76-1.99-0.75
		c-0.88,0.01-1.62,0.27-2.45,0.58c-0.17,0.06-0.36,0.13-0.53,0.13c-0.06,0-0.12-0.01-0.16-0.03c-0.11-0.06-0.19-0.17-0.28-0.32
		l-0.25,3.78l0.26,0.04c0.07-0.28,0.16-0.54,0.27-0.79c0.46-1.09,1.19-1.77,2.08-1.78c0.36-0.01,0.74,0.1,1.01,0.55
		c0.23,0.39,0.2,0.91,0.2,1.41v0.17c-0.94,0.23-2.33,0.65-3.29,1.63c-0.66,0.68-1.12,1.61-1.12,2.94c0.01,1.21,0.49,2.02,1.12,2.41
		c0.28,0.16,0.58,0.25,0.88,0.25c0.82,0,1.96-0.58,2.44-1.7c0.08,0.53,0.22,1.04,0.47,1.42l2.77,0v-0.53
		C150.09,124.17,150.16,122.95,150.16,121.98 M146.44,123c-0.45,0-0.72-0.65-0.72-1.3c-0.01-0.79,0.4-1.59,0.8-1.99
		c0.36-0.38,0.74-0.51,1.15-0.62C147.68,120.38,147.53,123,146.44,123"/>
	<path class="st3" d="M163.46,122.56l-0.03-4.88c0-0.87-0.01-1.96-0.38-2.66c-0.34-0.61-0.86-0.93-1.36-0.93
		c-0.98,0-1.91,0.95-2.53,2.12c-0.23-1.37-0.84-2.11-1.75-2.11c-0.94,0-1.89,1.07-2.54,2.12c-0.09-0.67-0.12-1.39-0.37-2.01
		l-2.83,0.31l0.01,0.53c0.49,0.04,0.72,0.59,0.72,1.68l0.03,5.85c0,1.1-0.22,1.65-0.72,1.69l0,0.54l3.97-0.01l0-0.54
		c-0.49-0.04-0.72-0.59-0.77-1.69l-0.01-2.79c-0.01-0.74-0.01-1.54,0.17-2.24c0.17-0.57,0.55-1.16,0.96-1.17
		c0.73,0,0.64,1.39,0.64,2.15l0.03,4.03c0,1.1-0.28,1.65-0.77,1.69l0.01,0.53l3.99-0.01v-0.53c-0.49-0.04-0.74-0.59-0.74-1.69
		l-0.01-2.49c0-0.91-0.03-1.85,0.24-2.66c0.17-0.53,0.51-1.04,0.9-1.04c0.68,0,0.63,1.37,0.64,2.09l0.02,4.1
		c0,1.1-0.26,1.64-0.76,1.69l0.01,0.53l4-0.02v-0.52C163.72,124.21,163.47,123.66,163.46,122.56"/>
	<path class="st3" d="M139.7,123.53c-0.4,0-0.66-0.04-0.95-0.06l3.48-9.04l-4.92,0.02c-0.13,0-0.29,0-0.44-0.06
		c-0.15-0.04-0.29-0.14-0.36-0.35l-0.51,3.75l0.27,0.11c0.26-1.38,1.2-2.12,1.83-2.13c0.4,0,0.57,0.07,0.75,0.08l-3.5,9.01
		l5.37-0.02c0.27,0,0.73,0,0.91,0.42l0.71-4.04l-0.29-0.12C141.67,122.87,140.65,123.53,139.7,123.53"/>
	<path class="st3" d="M134.67,124.35c-0.82-0.12-0.74-1.34-0.74-2.32l-0.01-3.85c-0.01-1.14,0-2.45-0.66-3.23
		c-0.5-0.63-1.37-0.76-2-0.75c-0.06,0-0.13,0-0.19,0.01c-0.79,0.03-1.48,0.29-2.25,0.57c-0.18,0.07-0.36,0.13-0.53,0.13
		c-0.21,0-0.31-0.15-0.44-0.36l-0.26,3.79l0.27,0.03c0.4-1.54,1.26-2.56,2.34-2.56c0.3,0,0.62,0.07,0.87,0.36
		c0.05,0.06,0.1,0.12,0.14,0.19c0.23,0.4,0.21,0.9,0.2,1.41v0.17c-0.11,0.03-0.22,0.05-0.34,0.09c-1.61,0.43-4.09,1.43-4.08,4.48
		c0.01,1.74,1,2.66,2,2.66c0.65-0.01,1.51-0.37,2.07-1.08c0.14-0.19,0.27-0.39,0.36-0.62c0.08,0.53,0.21,1.04,0.47,1.41l2.78-0.01
		L134.67,124.35z M131.06,122.2c-0.18,0.51-0.46,0.86-0.86,0.86c-0.46,0.01-0.72-0.65-0.73-1.3c0-0.78,0.4-1.59,0.8-1.99
		c0.25-0.27,0.51-0.41,0.79-0.51c0.11-0.04,0.23-0.08,0.36-0.11C131.43,119.97,131.38,121.32,131.06,122.2"/>
	<g>
		<g>
			<defs>
				<rect id="SVGID_1_" x="135.01" y="186.01" width="30.72" height="10.18"/>
			</defs>
			<clipPath id="SVGID_2_">
				<use xlink:href="#SVGID_1_"  style="overflow:visible;"/>
			</clipPath>
			<g class="st4">
				<defs>
					<rect id="SVGID_3_" x="135.01" y="186.01" width="30.72" height="10.18"/>
				</defs>
				<clipPath id="SVGID_4_">
					<use xlink:href="#SVGID_3_"  style="overflow:visible;"/>
				</clipPath>
				<path class="st5" d="M141.93,193.44c-0.25,0.91-0.44,1.91-0.61,2.57h-6.32v-0.41c0.84-0.82,1.75-1.68,2.52-2.6
					c1.1-1.31,1.73-2.48,1.73-3.68c0-1.08-0.56-1.87-1.65-1.87c-0.94,0-1.6,0.66-2.11,1.4l-0.46-0.38l1.01-1.48
					c0.6-0.58,1.38-0.97,2.37-0.97c1.56,0,2.86,1.05,2.86,2.8c0,1.25-0.64,2.22-2.2,3.7l-1.88,1.79h2.56c0.94,0,1.07-0.03,1.65-1.05
					L141.93,193.44z"/>
				<path class="st5" d="M149.77,191.1c0,2.29-0.83,5.09-3.48,5.09c-2.64,0-3.49-2.82-3.49-5.08c0-2.33,0.89-5.1,3.49-5.1
					C148.94,186.01,149.77,188.81,149.77,191.1 M144.95,191.04c0,2.12,0.33,4.5,1.37,4.5c1.04,0,1.31-2.29,1.31-4.48
					c0-2.21-0.34-4.4-1.36-4.4C145.2,186.66,144.95,188.94,144.95,191.04"/>
				<path class="st5" d="M157.62,191.1c0,2.29-0.82,5.09-3.47,5.09c-2.64,0-3.49-2.82-3.49-5.08c0-2.33,0.91-5.1,3.49-5.1
					C156.8,186.01,157.62,188.81,157.62,191.1 M152.82,191.04c0,2.12,0.33,4.5,1.37,4.5c1.04,0,1.3-2.29,1.3-4.48
					c0-2.21-0.32-4.4-1.35-4.4C153.07,186.66,152.82,188.94,152.82,191.04"/>
				<path class="st5" d="M164.31,193.26v0.99c0,0.94,0.11,1.1,1.28,1.21V196h-4.69v-0.54c1.34-0.12,1.41-0.33,1.41-1.29v-0.92h-3.99
					v-0.65c1.7-2.41,3.36-4.67,4.86-6.51h1.13v6.26h1.42v0.89H164.31z M162.31,188.24h-0.03c-0.76,1.04-1.76,2.49-2.79,4.13h2.82
					V188.24z"/>
			</g>
		</g>
	</g>
</g>
</svg>
