<svg xmlns="http://www.w3.org/2000/svg" xmlns:xlink="http://www.w3.org/1999/xlink" viewBox="0 0 270.01 270"><defs><style>.cls-1{fill:none;}.cls-2{isolation:isolate;}.cls-3{fill:#fff;}.cls-4{fill:#0137ae;}.cls-5{fill:#fd7f03;}.cls-6{fill:#fd0100;}.cls-7{mix-blend-mode:multiply;}.cls-8{clip-path:url(#clip-path);}.cls-9{clip-path:url(#clip-path-2);}.cls-10{fill:#015ab5;}</style><clipPath id="clip-path" transform="translate(-15 -15)"><rect class="cls-1" x="135.01" y="186.01" width="30.72" height="10.18"/></clipPath><clipPath id="clip-path-2" transform="translate(-15 -15)"><rect class="cls-1" x="135.01" y="186.01" width="30.72" height="10.18"/></clipPath></defs><title>logo-azamfc</title><g class="cls-2"><g id="Layer_1" data-name="Layer 1"><path class="cls-3" d="M150,15C75.56,15,15,75.56,15,150S75.56,285,150,285s135-60.56,135-135S224.44,15,150,15" transform="translate(-15 -15)"/><path class="cls-3" d="M150,77.06a73.59,73.59,0,1,0,73.58,73.58A73.67,73.67,0,0,0,150,77.06" transform="translate(-15 -15)"/><path class="cls-4" d="M150,25.3A124.71,124.71,0,1,0,274.7,150,124.85,124.85,0,0,0,150,25.3M150,72a78.65,78.65,0,1,1-78.65,78.65A78.74,78.74,0,0,1,150,72" transform="translate(-15 -15)"/><path class="cls-3" d="M150,67.92a82.73,82.73,0,1,0,82.73,82.72A82.81,82.81,0,0,0,150,67.92m53.44,133.26c-1.58,1.67-3.23,3.25-4.95,4.77l-.62.53c-.69.6-1.38,1.17-2.09,1.74l-1,.79a71.08,71.08,0,0,1-7.4,5c-.25.16-.5.31-.76.45l-.57.32q-.39.24-.81.45c-.16.1-.33.19-.49.27-.32.18-.64.34-1,.51s-.83.43-1.25.63-.73.36-1.1.53-.77.37-1.16.54l0,0-.94.41-.67.29-.14.06c-.33.14-.65.28-1,.41l-1.11.44-1.76.65-1.34.46-1.4.46-.1,0-1.37.4h0l-1.45.4-1.45.38-.17,0c-1.08.26-2.17.49-3.27.71q-.83.17-1.65.3l-1.61.26-.12,0-1.48.2-.75.08-1.09.12c-.56.06-1.12.11-1.69.15h0l-1.57.11-1.24,0h0l-1.42,0-1.42,0-1.42,0-1.41,0h0l-1.23,0-1.58-.11-1.71-.15c-.36,0-.72-.07-1.07-.12l-.2,0-.59-.07h-.13c-.42-.06-.85-.11-1.27-.18l-.19,0-1.56-.25h0c-.55-.09-1.09-.2-1.64-.3l-1.64-.34h0l-1.51-.35-.27-.06-1.46-.38-1.18-.32-.46-.13-1.16-.35-.14,0c-.45-.13-.89-.28-1.32-.43s-.89-.29-1.33-.45c-.25-.08-.49-.17-.74-.27-1.13-.41-2.24-.85-3.34-1.32l-.67-.29-1-.41c-1.25-.57-2.48-1.17-3.7-1.81l-.94-.49q-2.44-1.32-4.76-2.81l-.89-.58-1-.65-1.18-.82-1-.77c-.7-.52-1.38-1.05-2.06-1.58-1-.82-2-1.65-3-2.51,0,0,0,0,0,0l-.93-.84c-.64-.59-1.27-1.18-1.88-1.79s-1.1-1.1-1.64-1.66l-.19-.21-.87-.93-.71-.79-.27-.31-.72-.82-.19-.23-.66-.79-.82-1c-.54-.68-1.06-1.37-1.58-2.07l-.74-1,0,0c-.25-.35-.5-.7-.74-1.06L88.52,191h0c-.23-.36-.47-.72-.7-1.09s-.46-.73-.68-1.1l-.5-.82c-.12-.21-.25-.42-.36-.63a.64.64,0,0,1-.08-.14c-.3-.51-.59-1-.88-1.55,0-.09-.09-.18-.14-.27l-.58-1.1-.11-.2-.51-1-.57-1.18c-.16-.33-.31-.68-.47-1a1.22,1.22,0,0,1-.07-.17c-.18-.4-.36-.8-.53-1.2-.34-.79-.66-1.58-1-2.38-.21-.53-.41-1.07-.6-1.61-.1-.26-.19-.52-.28-.78-.26-.76-.51-1.53-.75-2.29-.09-.28-.17-.55-.25-.82s-.18-.59-.26-.88-.23-.83-.34-1.25-.21-.78-.3-1.16c-.36-1.43-.67-2.88-.94-4.33-.07-.36-.13-.72-.19-1.08-.15-.9-.29-1.8-.41-2.71-.05-.38-.09-.77-.14-1.16,0-.06,0-.13,0-.2,0-.44-.09-.88-.14-1.33-.13-1.35-.22-2.7-.26-4.07,0-.17,0-.35,0-.53s0-.61,0-.91c0-.47,0-.93,0-1.4s0-.93,0-1.39c0-.3,0-.61,0-.91s0-.36,0-.54c0-1.36.13-2.72.26-4.06.05-.43.09-.86.13-1.29l0-.24c0-.38.09-.75.14-1.13l0-.2c0-.31.08-.63.13-.94.08-.53.16-1.06.25-1.6.07-.38.13-.75.2-1.12.1-.55.21-1.1.32-1.64s.17-.79.26-1.18c0,0,0,0,0,0,.09-.4.18-.79.28-1.18a1,1,0,0,1,.06-.25q.14-.58.3-1.17c.11-.41.22-.83.34-1.25s.19-.65.29-1l.21-.71c.1-.3.19-.61.29-.9s.25-.77.38-1.16a.64.64,0,0,0,.06-.18c.11-.28.21-.56.31-.84.18-.52.37-1,.57-1.54.32-.82.65-1.64,1-2.44.17-.4.35-.81.53-1.21s.36-.79.54-1.19l.57-1.18.51-1a1.09,1.09,0,0,0,.08-.15c.2-.39.41-.78.62-1.16,0-.09.09-.17.13-.26.29-.52.58-1,.88-1.55a1,1,0,0,1,.08-.14c.11-.21.24-.42.36-.63l.5-.82c.22-.37.45-.73.68-1.1s.47-.73.7-1.09h0l.73-1.08c.25-.37.5-.74.76-1.1l.74-1c.52-.7,1-1.38,1.58-2.06.27-.35.54-.68.82-1l.66-.8A2.11,2.11,0,0,0,94,103l.72-.82c.08-.11.18-.2.27-.31l.71-.79.87-.93c.9-1,1.82-1.88,2.77-2.77.28-.27.56-.54.85-.8s.7-.65,1-1l1-.85c.32-.29.65-.56,1-.84.68-.56,1.37-1.11,2.08-1.66l1-.72q2.49-1.83,5.13-3.47l.5-.31c.52-.32,1.05-.63,1.59-.94.23-.14.47-.27.71-.4.51-.3,1-.58,1.56-.85l.76-.4c1.07-.55,2.16-1.08,3.27-1.58l1-.42.67-.28c1.1-.47,2.21-.92,3.34-1.32.25-.1.49-.19.74-.27l1.33-.46c.43-.14.87-.29,1.32-.42l.14,0,1.16-.35.46-.13,1.18-.33,1.46-.37.27-.06,1.51-.35h0c.55-.12,1.09-.24,1.64-.34s1.09-.21,1.64-.3h0c.51-.08,1-.17,1.56-.24l.19,0c.42-.07.85-.12,1.27-.18h.13l.59-.07.2,0,1.07-.12,1.71-.14,1.58-.11,1.23,0h0l1.41,0c.47,0,.94,0,1.42,0s.95,0,1.42,0l1.42,0h0l1.24,0,1.57.11h0l1.69.14,1.09.12.75.09,1.48.2.12,0,1.61.26q.82.14,1.65.3c1.1.21,2.19.45,3.27.71l.17,0,1.45.37,1.45.4h0l1.37.41.1,0,1.4.45,1.34.47c.58.21,1.17.42,1.76.65l1.11.44c.34.13.66.27,1,.41a.84.84,0,0,1,.14.06l.67.28.94.42h0l1.16.54c.37.18.74.35,1.1.54,1.12.55,2.22,1.13,3.31,1.74l.77.44c.26.14.51.29.76.44l.76.46.57.35.37.22.57.37a72.52,72.52,0,0,1,8.24,6.14l.89.77q2.34,2.07,4.48,4.33l.42.44c.47.5.93,1,1.37,1.51.16.16.31.33.45.5l.3.34.41.49a71.7,71.7,0,0,1,5.3,7.08c.22.34.44.67.66,1,.42.66.82,1.32,1.22,2l.45.77c.13.22.26.44.38.66l.49.89.21.4c.15.27.29.54.43.81l.7,1.37c.16.32.31.64.46,1,.46,1,.89,1.92,1.3,2.89.13.32.27.63.39,1s.29.72.43,1.08c.08.19.15.37.22.56.17.44.33.88.49,1.33.4,1.12.77,2.25,1.11,3.38l.33,1.11a.31.31,0,0,1,0,.08c.12.4.23.8.34,1.21,0,0,0,.06,0,.09.09.32.17.64.25,1s.11.43.16.64.13.57.19.86c.2.81.36,1.63.52,2.45,0,.19.07.38.11.56s.11.64.17,1c.16.94.3,1.88.42,2.83,0,.38.1.75.14,1.13l0,.25c.05.42.09.85.13,1.28.13,1.34.22,2.7.27,4.06,0,.18,0,.36,0,.54l0,.91c0,.46,0,.93,0,1.39s0,.93,0,1.4l0,.91c0,.18,0,.36,0,.53-.05,1.37-.14,2.72-.27,4.07,0,.45-.09.89-.14,1.33a1.23,1.23,0,0,1,0,.2c0,.39-.09.78-.14,1.16-.12.91-.26,1.81-.41,2.71-.06.36-.13.72-.19,1.08-.27,1.46-.58,2.9-.93,4.33l-.3,1.16c-.11.42-.23.83-.35,1.25a.25.25,0,0,1,0,.07c-.11.4-.22.79-.34,1.18a.76.76,0,0,1,0,.11c-.13.41-.25.81-.38,1.21s-.31.95-.48,1.42l-.27.78c-.2.54-.4,1.08-.61,1.61-.31.8-.63,1.59-1,2.38l-.52,1.2-.08.17c-.15.34-.31.69-.47,1L216,183.1l-.51,1c0,.07-.07.14-.1.2-.19.37-.39.73-.59,1.1,0,.09-.09.18-.14.27l-.87,1.55-.09.14q-.16.31-.36.63l-.49.82-.69,1.1c-.23.37-.46.73-.7,1.09h0l-.73,1.08c-.25.37-.5.74-.76,1.1s-.49.69-.74,1c-.52.7-1,1.39-1.58,2.07l-.82,1c-.21.26-.43.53-.66.79l-.19.23c-.24.28-.47.55-.72.82-.09.1-.17.21-.27.31l-.71.79c-.28.32-.57.63-.86.93" transform="translate(-15 -15)"/><path class="cls-3" d="M75.89,207,71,200.79l-.67.52c1,1.56,1.06,1.84-.54,3.1L62.66,210c-1.59,1.25-1.88,1.15-3.29-.37l-.66.51,4.16,5.29a14,14,0,0,0,6.46,5,7.41,7.41,0,0,0,7-1.38,6.54,6.54,0,0,0,2.53-4.93c.11-2.25-1-4.61-3-7.18m.5,4.61a6.83,6.83,0,0,1-2.84,4.69c-3.32,2.63-6.87,2.35-9-.41-1.13-1.43-.91-2.11.43-3.17l7.48-5.89c.54-.42.89-.63,1.2-.59a3,3,0,0,1,1.28,1.1,6.18,6.18,0,0,1,1.49,4.27" transform="translate(-15 -15)"/><path class="cls-3" d="M84.41,232.87c1.44-4.19,3-8.37,4.49-12.59l-1.21-.66-12.12,5.6c-2,.92-2.38.91-3.8-.1l-.57.61,4.38,3.89.55-.63c-1.28-1.42-1.1-1.7-.07-2.32.87-.5,1.7-.91,2.4-1.28l3.76,3.34c-.36,1-.73,2-1,2.7-.38,1.06-.68,1.19-2,.32l-.55.63,5.6,5,.55-.62c-1.11-1.24-1.16-1.69-.44-3.85m-4.79-8.13c1.63-.81,3.26-1.66,4.95-2.48l.07.07-2,5.12Z" transform="translate(-15 -15)"/><path class="cls-3" d="M104.89,233.08c-.53-1.11-1.56-2-3.51-3.2l-6.28-3.81-.43.7c1.55,1.14,1.63,1.47.64,3.1l-4.75,7.79c-1,1.68-1.38,1.72-3.14.85l-.43.72,6.75,4.09.44-.7c-1.6-1.17-1.7-1.51-.68-3.17l1.81-3,.41.26a1.8,1.8,0,0,1,.94,1.79c0,1.45,0,2.91,0,4.11.11,1.81.63,2.91,3.37,4.75.28.16.53.35.67.43l.53-.57a3.86,3.86,0,0,1-.83-1.71,20.07,20.07,0,0,1-.39-3.24c-.08-1.33-.1-3.2-.06-4,1.84.35,3.72.18,4.8-1.61a3.52,3.52,0,0,0,.12-3.62m-3.46,2a3.24,3.24,0,0,1-2.55,1.77,4,4,0,0,1-2.52-.78l-.58-.35,3-5c.26-.43.43-.61.65-.63a1.91,1.91,0,0,1,1.14.41c1.25.75,2.15,2.4.85,4.54" transform="translate(-15 -15)"/><path class="cls-3" d="M123.65,252c-.5,1-1.7,2.84-2.12,3.46l-12.66-4.24.27-.79c2.16.54,2.45.5,3.1-1.43l2.89-8.66c.65-2,.45-2.16-1.26-2.89l.26-.78,11.68,3.92c-.11.41-.51,2-.88,3.46l-.93-.18a4.8,4.8,0,0,0-.37-2.29c-.29-.55-.9-.92-2.29-1.39l-1.19-.4c-.92-.31-1-.3-1.28.45L117.26,245l1.66.56c2.09.69,2.45.69,3.32-.77l.91.3-1.54,4.55-.89-.29c.2-1.74-.07-1.93-2.18-2.64l-1.66-.56-1.31,3.9c-.35,1.07-.44,1.66,0,2.05a7.37,7.37,0,0,0,2.16,1,4.09,4.09,0,0,0,3,.2,9,9,0,0,0,2.13-1.75Z" transform="translate(-15 -15)"/><path class="cls-3" d="M136.67,246.59c-.28-1.57-.92-3.48-3-3.86a2.37,2.37,0,0,0-2.91,1.87c-.24,1.28.55,2.2,2.63,3.64,2.49,1.68,4.11,3.33,3.69,5.65-.48,2.66-3.36,4.29-7.12,3.61a10,10,0,0,1-2.54-.79,12.88,12.88,0,0,1-1.47-.8,25.59,25.59,0,0,1,0-4.12l.94-.08c.25,1.58,1.3,4.48,3.77,4.93a2.41,2.41,0,0,0,3-2c.25-1.39-.74-2.46-2.49-3.74-2.43-1.7-4-3.29-3.63-5.54.47-2.58,3.07-4.19,6.72-3.53a12.09,12.09,0,0,1,3.47,1.28c-.06.89-.06,2-.12,3.44Z" transform="translate(-15 -15)"/><path class="cls-3" d="M155.24,247.33c-.58-1.49-1.57-3.23-3.71-3.2a2.37,2.37,0,0,0-2.5,2.39c0,1.31,1,2.06,3.29,3.07,2.76,1.17,4.67,2.47,4.72,4.83,0,2.71-2.47,4.87-6.29,4.93a10.11,10.11,0,0,1-2.65-.29,12.13,12.13,0,0,1-1.6-.5,25,25,0,0,1-.82-4l.91-.28c.55,1.51,2.13,4.16,4.64,4.12a2.42,2.42,0,0,0,2.58-2.55c0-1.4-1.18-2.26-3.17-3.18-2.71-1.2-4.59-2.44-4.62-4.74,0-2.61,2.19-4.69,5.91-4.75a11.58,11.58,0,0,1,3.65.58c.11.88.31,1.92.55,3.4Z" transform="translate(-15 -15)"/><path class="cls-3" d="M177.16,255.07c-1.65.1-2-.15-3.27-2.06-2.38-3.74-4.69-7.54-7-11.36l-1.27.54-3.18,13c-.51,2.12-.77,2.43-2.44,2.91l.11.83,5.78-1-.14-.83c-1.92.12-2-.2-1.87-1.38.16-1,.34-1.9.5-2.68l4.95-.85c.55.89,1.11,1.81,1.48,2.46.6,1,.51,1.27-1,1.74l.13.82,7.38-1.27Zm-12.6-3.39c.37-1.78.73-3.58,1.15-5.41h.07l2.79,4.73Z" transform="translate(-15 -15)"/><path class="cls-3" d="M191.62,246.63c.13,1,.41,3.43.42,4.11L180,255l-.28-.78c2.1-.92,2.28-1.17,1.62-3l-3-8.59c-.7-1.93-1-2-2.91-1.48l-.28-.78,7.54-2.67.28.78c-1.84.84-2,1-1.33,3l3.09,8.74c.38,1,.62,1.42,1.2,1.44a6.26,6.26,0,0,0,1.93-.45,3.58,3.58,0,0,0,2.24-1.65,7.81,7.81,0,0,0,.57-2.8Z" transform="translate(-15 -15)"/><path class="cls-3" d="M210.54,240c-1.54.65-2,.54-3.78-.84-3.49-2.74-6.95-5.54-10.44-8.35l-1,.93L196.63,245c.23,2.15.09,2.54-1.32,3.55l.38.75,5.11-2.88-.41-.73c-1.77.75-2,.48-2.21-.69-.2-1-.33-1.89-.44-2.68l4.38-2.46c.82.65,1.65,1.34,2.23,1.82.88.71.9,1-.34,2l.41.72,6.53-3.67Zm-13,1c-.23-1.8-.51-3.61-.72-5.49l.07,0,4.21,3.52Z" transform="translate(-15 -15)"/><path class="cls-3" d="M226.2,227.18c-1.39.92-1.85.89-3.87-.13-3.94-2-7.84-4.16-11.81-6.27l-.81,1.09,3.75,12.82c.62,2.08.55,2.48-.65,3.73l.52.67,4.48-3.78-.53-.63c-1.61,1.06-1.85.84-2.3-.27-.37-.94-.67-1.8-.92-2.55l3.84-3.24c.93.5,1.88,1,2.53,1.38,1,.54,1.09.84,0,2l.53.63,5.73-4.81Zm-12.61,3.42c-.58-1.73-1.17-3.46-1.73-5.26l.07-.05,4.78,2.69Z" transform="translate(-15 -15)"/><path class="cls-3" d="M237.88,214.47l-.66-.52c1.06-1.66,1-1.88-.71-3.21l-7.26-5.6-.07.11,6.19,12.17-.45.58-12.85-3.26-.06.08,4.7,4.07a20.86,20.86,0,0,0,3,2.36c.91.57,1.39.29,2.57-1l.66.51-3.87,4.95-.65-.51c.8-1.23.77-1.89.21-2.52a33.76,33.76,0,0,0-3.2-3.21L222,216.28c-2-1.83-2.38-1.89-3.92-.23l-.65-.51,3.33-4.27,11.32,2.42L227,203.24l3.24-4.14.66.51c-1.14,1.77-1,2,.54,3.14l7.15,5.29c1.76,1.3,2,1.3,3.38-.19l.65.51Z" transform="translate(-15 -15)"/><path class="cls-5" d="M150,67.37a83.27,83.27,0,1,0,83.28,83.27A83.36,83.36,0,0,0,150,67.37m30.23,155.07q-3.47,1.47-7.08,2.6-.66.21-1.32.39c-1,.28-1.92.54-2.89.79a77.21,77.21,0,0,1-17.51,2.31l-1.43,0-1.42,0a77.22,77.22,0,0,1-17.52-2.31l-1.45-.38c-.48-.13-1-.26-1.44-.41l-.95-.28-.15-.05-.6-.19q-2.85-.9-5.61-2c-.36-.14-.73-.29-1.09-.45h0A77.9,77.9,0,0,1,148.58,72.75l1.42,0,1.43,0a77.9,77.9,0,0,1,28.8,149.69" transform="translate(-15 -15)"/><path class="cls-3" d="M150,24.22A126.42,126.42,0,1,0,276.43,150.64,126.57,126.57,0,0,0,150,24.22m0,244.7A118.28,118.28,0,1,1,268.28,150.64,118.41,118.41,0,0,1,150,268.92" transform="translate(-15 -15)"/><path class="cls-4" d="M150,19.61c-72.25,0-131,58.78-131,131s58.78,131,131,131,131-58.79,131-131a131.17,131.17,0,0,0-131-131m0,253.62A122.59,122.59,0,1,1,272.59,150.64,122.72,122.72,0,0,1,150,273.23" transform="translate(-15 -15)"/><path class="cls-3" d="M59.16,164.37c-.06-1-.08-2.06-.06-3.14a.07.07,0,0,0,0-.07.1.1,0,0,0-.07,0l-.92.07a.09.09,0,0,0-.09.08,6.72,6.72,0,0,1-.32,1.84.4.4,0,0,1-.34.19,23.86,23.86,0,0,1-3.55-1.21c-.12-1.52-.2-2.62-.25-3.26-.05-.8-.1-1.8-.15-3,1.65-.85,2.64-1.35,3-1.51a1.18,1.18,0,0,1,.35-.1h0a.46.46,0,0,1,.37.18,6.66,6.66,0,0,1,.53,1.74.14.14,0,0,0,.11.09h0l.91-.06a.19.19,0,0,0,.08,0,.09.09,0,0,0,0-.08c-.21-1.92-.36-3.56-.44-4.87s-.13-2.75-.14-4.28a.13.13,0,0,0,0-.08s0,0-.08,0l-.91.07a.11.11,0,0,0-.1.08,8.91,8.91,0,0,1-.42,1.81,2,2,0,0,1-.53.58c-.38.3-2,1.26-4.86,2.84C46.15,155,42.6,157,40.72,157.88a.08.08,0,0,0,0,.1l0,1s0,.07.08.09c4.45,1.69,7.86,3,10.14,3.94,3.59,1.46,5.68,2.35,6.23,2.65a1.63,1.63,0,0,1,.59.49,4.49,4.49,0,0,1,.63,1.54.12.12,0,0,0,.09.08h0l.93-.07a.11.11,0,0,0,.07,0,.1.1,0,0,0,0-.08c-.16-1.09-.28-2.18-.35-3.26m-12.69-5,5.33-2.76c.07,1.07.13,1.91.17,2.49l.14,2.41Z" transform="translate(-15 -15)"/><path class="cls-3" d="M41.11,142.27c1.75.33,3.37.7,4.83,1.08a.11.11,0,0,0,.08,0,.14.14,0,0,0,0-.08l.16-1.07a.1.1,0,0,0-.06-.1l-.82-.42a6,6,0,0,1-1.68-1.05,1,1,0,0,1-.3-.6,5.25,5.25,0,0,1,.08-1.44l.73-5.05,4.1,3.84,9,8.71s0,0,.07,0l1,.14h0a.07.07,0,0,0,.06,0l.05-.06c.43-3.65.75-6.16.94-7.46l1.23-7.54a.11.11,0,0,0-.07-.12l-2.17-.68-2.68-1a.08.08,0,0,0-.08,0,.11.11,0,0,0-.06.07l-.16,1.16a.12.12,0,0,0,.05.1,8.72,8.72,0,0,1,2.26,1.51,1.87,1.87,0,0,1,.61,1,7.29,7.29,0,0,1-.12,2l-.8,5.5c-1.13-1-3.73-3.44-7.69-7.3-2.62-2.53-4.44-4.33-5.43-5.35l-.06,0-1-.15a.11.11,0,0,0-.08,0,.25.25,0,0,0,0,.07c-.32,2.85-.63,5.29-.92,7.26s-.67,4.34-1.13,6.88a.11.11,0,0,0,.08.12" transform="translate(-15 -15)"/><path class="cls-3" d="M81.48,89.49,80.73,89a.14.14,0,0,0-.14,0l-.43.42a6.35,6.35,0,0,1-1.41,1.3.55.55,0,0,1-.37,0,3.6,3.6,0,0,1-1-.53c-.15-.09-2-1.32-5.41-3.65-2.71-1.83-4.27-2.91-4.62-3.21a1.3,1.3,0,0,1-.54-.73,5.8,5.8,0,0,1,.67-1.83,5.54,5.54,0,0,0,.24-.54.13.13,0,0,0,0-.13l-.76-.51a.08.08,0,0,0-.08,0,.12.12,0,0,0-.07,0c-.86,1.43-1.48,2.43-1.84,3s-1.13,1.59-2.12,2.89a.15.15,0,0,0,0,.13c.68,1,1.22,1.8,1.64,2.45s.93,1.51,1.55,2.55l3.64,6.32c-2.65-.32-5.85-.78-9.52-1.38-1.41-.22-2.61-.46-3.58-.68a.11.11,0,0,0-.12.05c-.62,1.08-1.24,2.08-1.85,3s-1.32,1.88-2.26,3.1a.22.22,0,0,0,0,.08.11.11,0,0,0,0,.08l.77.51a.1.1,0,0,0,.13,0l.42-.47A7.83,7.83,0,0,1,55,99.83a.66.66,0,0,1,.51-.07,7.61,7.61,0,0,1,1.76,1l2.52,1.76,6.44,4.56a2.12,2.12,0,0,1,.75.7,1,1,0,0,1,0,.62c-.08.24-.35.89-.82,1.92a.13.13,0,0,0,0,.13l.18.11a8.17,8.17,0,0,1-1.05,1.4,1.88,1.88,0,0,1-.71.32c-.47.12-2.36.35-5.58.68-5.84.6-9.85,1-11.93,1.06a.1.1,0,0,0-.1.06l-.35,1s0,.08,0,.11c3.41,3.32,6,5.9,7.75,7.65,2.72,2.76,4.29,4.4,4.67,4.89a1.8,1.8,0,0,1,.36.68,5,5,0,0,1,0,1.66.1.1,0,0,0,.06.12l.87.31h.08a.12.12,0,0,0,.06-.06c.28-1.07.61-2.13,1-3.14s.73-1.91,1.19-2.9v-.08a.17.17,0,0,0-.06-.06l-.87-.31a.1.1,0,0,0-.13,0,8.28,8.28,0,0,1-1,1.56.43.43,0,0,1-.4,0A21.56,21.56,0,0,1,57.41,123c.48-1.42.84-2.47,1.07-3.09s.61-1.7,1-2.81l3.33-.21a1.32,1.32,0,0,1,.37,0,.44.44,0,0,1,.29.33,5.81,5.81,0,0,1-.19,1.82.11.11,0,0,0,.07.12l.86.3a.11.11,0,0,0,.08,0,.15.15,0,0,0,0-.06c.57-1.87,1.09-3.43,1.53-4.65s1-2.57,1.56-4a.11.11,0,0,0,0-.08s0,0,0-.06l-.16-.06c.69-1.15,1.34-2.2,1.94-3.08s1.35-1.92,2.12-2.88a.19.19,0,0,0,0-.08.07.07,0,0,0,0-.07l-.76-.51s-.11,0-.13,0l-.39.39a8.4,8.4,0,0,1-1.28,1.23.82.82,0,0,1-.37.11h-.11a7.56,7.56,0,0,1-1.09-.59c-1.14-.69-3.45-2.2-6.85-4.5-.54-.36-1.18-.8-1.9-1.31,7.69,1.12,12.53,1.85,14.78,2.21a.11.11,0,0,0,.11,0l.55-.83a.14.14,0,0,0,0-.11L72.3,98c-3.22-5.43-5.23-8.83-6-10.14l1,.66c1.52,1,3.57,2.43,6.31,4.29,1.22.84,1.93,1.32,2.06,1.46a.79.79,0,0,1,.26.36A.66.66,0,0,1,76,95a21.07,21.07,0,0,1-.9,2.16.09.09,0,0,0,0,.13l.75.51.08,0a.12.12,0,0,0,.07,0c1.16-1.87,2.07-3.3,2.7-4.24s1.57-2.23,2.81-3.9a.12.12,0,0,0,0-.08.06.06,0,0,0,0-.06M56.94,119.56l-.82,2.28-4.33-4.21,6-.43c-.36,1-.62,1.81-.83,2.36" transform="translate(-15 -15)"/><path class="cls-3" d="M76.26,71.89a.1.1,0,0,0,.12,0l.46-.26a8.23,8.23,0,0,1,1.81-.86.67.67,0,0,1,.48.14,13,13,0,0,1,1.41,1.63L83.26,76c2.61,3.3,4,5.1,4.18,5.34a1,1,0,0,1,.23.77,8.73,8.73,0,0,1-1.59,2,.1.1,0,0,0,0,.14l.57.72a.1.1,0,0,0,.07,0h0a.11.11,0,0,0,.07,0c1.29-1.15,2.53-2.19,3.67-3.1s2.59-2,4.32-3.25a.13.13,0,0,0,0-.07.11.11,0,0,0,0-.08l-.58-.73a.11.11,0,0,0-.12,0l-.54.32a9,9,0,0,1-1.87,1,.66.66,0,0,1-.48,0,3.63,3.63,0,0,1-.84-.88L87,73.89l1.75-1.4a6.23,6.23,0,0,1,1.42-1,.72.72,0,0,1,.48,0,14.87,14.87,0,0,1,1.81,1.32.11.11,0,0,0,.13,0l.85-.67a.29.29,0,0,0,0-.08.1.1,0,0,0,0-.08c-.7-.73-1.39-1.5-2-2.31s-1.4-1.85-2.1-2.9c0,0,0,0-.08,0a.06.06,0,0,0-.07,0l-.85.67a.1.1,0,0,0,0,.13,7.73,7.73,0,0,1,.73,2,1,1,0,0,1-.13.61,6.59,6.59,0,0,1-1.19,1.09L86,72.64l-3.6-4.53,3.82-3a5.29,5.29,0,0,1,1.19-.8,1.05,1.05,0,0,1,.6,0,10,10,0,0,1,2.21,1.19l.35.22a.08.08,0,0,0,.11,0l.84-.67a.16.16,0,0,0,0-.07.15.15,0,0,0,0-.08c-1-1-2.14-2.21-3.32-3.6a.07.07,0,0,0-.07,0l-.08,0c-2,1.74-4.48,3.75-7.28,6C79.71,68,78,69.31,75.7,71a.07.07,0,0,0,0,.07.07.07,0,0,0,0,.07Z" transform="translate(-15 -15)"/><path class="cls-3" d="M113.47,56.89a8.28,8.28,0,0,0-5.09-4.52,9.69,9.69,0,0,0-7.24,1A10.36,10.36,0,0,0,95.7,59a9.18,9.18,0,0,0,.62,7.45,8.84,8.84,0,0,0,5.22,4.8,7.66,7.66,0,0,0,2.25.33,11.38,11.38,0,0,0,5-1.35,12.13,12.13,0,0,0,3.77-2.81,9.14,9.14,0,0,0,2-6,10.41,10.41,0,0,0-1.19-4.54m-2.79,9.84a4.57,4.57,0,0,1-2.07,1.92,4.31,4.31,0,0,1-3.89.22c-1.64-.73-3.14-2.45-4.47-5.1A12.31,12.31,0,0,1,99,60a4.84,4.84,0,0,1,.44-3.07,5.06,5.06,0,0,1,4.17-2.49h.22a4.28,4.28,0,0,1,2,.63,7.38,7.38,0,0,1,2,1.86,16.19,16.19,0,0,1,1.85,2.91A13.71,13.71,0,0,1,111,63.72a4.73,4.73,0,0,1-.32,3" transform="translate(-15 -15)"/><path class="cls-3" d="M135.61,51.12a8.29,8.29,0,0,0-3.94-5.57,9.71,9.71,0,0,0-7.27-.66,10.4,10.4,0,0,0-6.59,4.31,9.15,9.15,0,0,0-1.07,7.39,8.8,8.8,0,0,0,4,5.86A8.3,8.3,0,0,0,125,63.51a13.42,13.42,0,0,0,3.14-.41,12.14,12.14,0,0,0,4.31-1.89,9.08,9.08,0,0,0,2-2.23,8.73,8.73,0,0,0,1.29-3.18,10.48,10.48,0,0,0-.13-4.68m-3.94,6.09a4.68,4.68,0,0,1-1,2.85,4.43,4.43,0,0,1-2.45,1.41,5.4,5.4,0,0,1-1.35.18,4,4,0,0,1-2.49-.84c-1.43-1.08-2.51-3.09-3.21-6a12.09,12.09,0,0,1-.35-4A4.83,4.83,0,0,1,122,48a4.64,4.64,0,0,1,2.44-1.42,5.44,5.44,0,0,1,1.28-.17,3.68,3.68,0,0,1,1.11.16,4.36,4.36,0,0,1,1.84,1.06,7.67,7.67,0,0,1,1.48,2.26,16.63,16.63,0,0,1,1.14,3.25,13.41,13.41,0,0,1,.43,4.12" transform="translate(-15 -15)"/><path class="cls-3" d="M137.87,48.05l1.19,0a.09.09,0,0,0,.09-.07,21.26,21.26,0,0,1,.88-2.81,1.35,1.35,0,0,1,.53-.61A4.26,4.26,0,0,1,142,44.3l2.08-.07.4,11.35a13.07,13.07,0,0,1,0,2.58.55.55,0,0,1-.28.4,12.64,12.64,0,0,1-2.42.63c-.07,0-.09.05-.09.1l0,.92a.13.13,0,0,0,0,.07.12.12,0,0,0,.07,0h0c2.09-.16,3.67-.26,4.69-.3.76,0,2.48,0,5.1,0a.15.15,0,0,0,.08,0,.13.13,0,0,0,0-.08l0-.92a.11.11,0,0,0-.1-.1,13.83,13.83,0,0,1-2.35-.4.52.52,0,0,1-.34-.3,12,12,0,0,1-.24-2.57l-.41-11.48,1.16,0,1.17,0a4,4,0,0,1,1.11.08,1.07,1.07,0,0,1,.54.42c.14.23.54,1.21,1.19,2.91a.1.1,0,0,0,.1.07l1.22,0a.08.08,0,0,0,.07,0,.08.08,0,0,0,0-.08,46.14,46.14,0,0,1-.58-5.2.09.09,0,0,0,0-.07.11.11,0,0,0-.07,0c-1.21.1-3.23.2-6,.33-3.25.13-6.65.21-10.08.24a.11.11,0,0,0-.11.11c0,1.36,0,2.25,0,2.7s-.09,1.32-.18,2.52a.2.2,0,0,0,0,.09.13.13,0,0,0,.08,0" transform="translate(-15 -15)"/><path class="cls-3" d="M173,48.48a3.44,3.44,0,0,0-1.17-3.3,7.88,7.88,0,0,0-3.87-1.4c-.52-.08-1.08-.16-1.68-.23-1.26-.16-2.19-.3-2.75-.38-1.42-.22-3.18-.55-5.25-1a.1.1,0,0,0-.08,0,.07.07,0,0,0,0,.07l-.15.92a.1.1,0,0,0,.07.11c1.76.63,2.11.76,2.15.79a.78.78,0,0,1,.32.3,2.78,2.78,0,0,1,0,1.24c-.27,2.12-.49,3.7-.64,4.67-.28,1.75-.58,3.68-.93,5.75a13.4,13.4,0,0,1-.44,2.1.79.79,0,0,1-.24.29,1,1,0,0,1-.41.14l-2.22.11s-.08,0-.1.09l-.14.9a.11.11,0,0,0,0,.08.08.08,0,0,0,.08,0c2.19.24,3.63.41,4.27.51l2,.37,1.85.33a17,17,0,0,0,2.54.21,9.42,9.42,0,0,0,2.07-.21,5.76,5.76,0,0,0,3-1.58,5,5,0,0,0,1.32-2.64,4.28,4.28,0,0,0-.24-2.22A3.67,3.67,0,0,0,170.89,53a8.06,8.06,0,0,0-2.1-.86,6.33,6.33,0,0,0,2.52-.93A3.84,3.84,0,0,0,173,48.48m-4.87,8A3.77,3.77,0,0,1,166.84,59a3,3,0,0,1-1.85.54,5.36,5.36,0,0,1-.87-.07,9.27,9.27,0,0,1-1.45-.36l1-6.75.54.08a6.15,6.15,0,0,1,3.3,1.24,3,3,0,0,1,.58,2.74m.77-8.1a3.15,3.15,0,0,1-1.3,2.28,3.43,3.43,0,0,1-1.9.46,7.79,7.79,0,0,1-1.22-.1l-.54-.09.92-6a10.87,10.87,0,0,1,1.47.12,3.11,3.11,0,0,1,2.13,1.07,2.76,2.76,0,0,1,.44,2.22" transform="translate(-15 -15)"/><path class="cls-3" d="M191.67,68.2a10.86,10.86,0,0,1-1.5-1.12,2,2,0,0,1-.3-.73c-.12-.46-.34-2.34-.64-5.58-.54-5.84-.86-9.85-.95-11.94a.1.1,0,0,0-.06-.09l-1-.36a.09.09,0,0,0-.11,0c-3.34,3.38-5.94,6-7.71,7.69-2.78,2.7-4.45,4.26-4.93,4.62a1.91,1.91,0,0,1-.69.36,4.83,4.83,0,0,1-1.66-.06s-.1,0-.11.07l-.32.86V62s0,0,.07,0c1.06.3,2.11.64,3.12,1s1.91.75,2.89,1.21h.09a.17.17,0,0,0,.06-.06l.31-.86a.09.09,0,0,0-.05-.12,8.11,8.11,0,0,1-1.54-1,.41.41,0,0,1,0-.39,23.15,23.15,0,0,1,2.54-2.77c1.47.51,2.48.88,3.08,1.1l2.8,1.06c.11,1.89.17,3,.18,3.34a1,1,0,0,1-.06.37.48.48,0,0,1-.32.3h-.16A11.62,11.62,0,0,1,183,65a.11.11,0,0,0-.12.07l-.31.86a.11.11,0,0,0,0,.08s0,0,.06,0c1.86.59,3.43,1.12,4.63,1.57s2.57,1,4,1.59h.09s0,0,0,0l.31-.86a.09.09,0,0,0,0-.12m-9-9.57-2.27-.85,4.24-4.28.38,6-2.35-.85" transform="translate(-15 -15)"/><path class="cls-3" d="M191.47,69.51s0,0,.05.06c1.87,1.08,3.66,2.17,5.35,3.23,2,1.31,4.65,3,7.7,5a.09.09,0,0,0,.06,0,.06.06,0,0,0,.06,0c1.45-1.24,2.85-2.36,4.15-3.34,0,0,0-.05,0-.08a.08.08,0,0,0,0-.08l-1-.64a.09.09,0,0,0-.1,0,23,23,0,0,1-2.82,1.19,2.8,2.8,0,0,1-1.23.09,5.51,5.51,0,0,1-1.37-.71l-3.92-2.49,5.47-8.63,1.75-2.67c.28-.43.55-.65.79-.65h0a24,24,0,0,1,2.7,1.14.1.1,0,0,0,.12,0l.49-.78a.11.11,0,0,0,0-.08.07.07,0,0,0,0-.06c-1.83-1.05-3.29-1.93-4.35-2.6s-2.49-1.64-4.31-2.9l-.08,0a.1.1,0,0,0-.06,0l-.5.78a.1.1,0,0,0,0,.13,18.05,18.05,0,0,1,1.73,1.69.65.65,0,0,1,.07.46,11.08,11.08,0,0,1-1.16,2.06l-2.83,4.49c-2,3.08-3,4.77-3.24,5a.67.67,0,0,1-.49.32,13,13,0,0,1-2.42-.85.11.11,0,0,0-.13,0l-.49.77a.1.1,0,0,0,0,.09" transform="translate(-15 -15)"/><path class="cls-3" d="M209.43,78.89a.71.71,0,0,1-.54.22,12,12,0,0,1-2.23-1.28s-.08,0-.13,0l-.61.68s0,0,0,.08a.09.09,0,0,0,0,.07c1.63,1.4,3.2,2.8,4.67,4.17,1.77,1.65,4,3.8,6.63,6.38a.11.11,0,0,0,.08,0l0,0c1.64-1,3.22-1.79,4.68-2.51a.08.08,0,0,0,.05-.08.08.08,0,0,0,0-.09l-.86-.81a.1.1,0,0,0-.09,0,25.53,25.53,0,0,1-3,.66,2.71,2.71,0,0,1-1.21-.15,5.21,5.21,0,0,1-1.22-.94l-3.41-3.17,7-7.48,2.21-2.3a1.28,1.28,0,0,1,.82-.5h.1a23.43,23.43,0,0,1,2.45,1.61.09.09,0,0,0,.13,0l.62-.67a.07.07,0,0,0,0-.08.41.41,0,0,0,0-.08c-1.59-1.35-2.86-2.48-3.8-3.34s-2.14-2.07-3.7-3.65l-.07,0-.07,0-.63.68a.1.1,0,0,0,0,.13,21.78,21.78,0,0,1,1.38,2,.56.56,0,0,1,0,.47,10.1,10.1,0,0,1-1.5,1.81l-3.61,3.89c-2.49,2.67-3.87,4.12-4.1,4.3" transform="translate(-15 -15)"/><path class="cls-3" d="M230.88,108.22a18.54,18.54,0,0,0,3.87,2.56h.05a.12.12,0,0,0,.1-.05l.68-1.19a.17.17,0,0,0,0-.07.13.13,0,0,0-.05-.07,11.35,11.35,0,0,1-4.16-3.93,6.71,6.71,0,0,1-.95-5.23,7.51,7.51,0,0,1,3.76-4.39,7.63,7.63,0,0,1,5.63-1.23,5.66,5.66,0,0,1,3.62,2.87,5.89,5.89,0,0,1,1,2.83,3.86,3.86,0,0,1-.53,2.12,23.76,23.76,0,0,1-1.93,2.16.09.09,0,0,0,0,.12l.74,1.23a.08.08,0,0,0,.07.05.08.08,0,0,0,.07,0c1.17-.85,2.19-1.54,3.05-2.06.5-.3,1-.56,1.47-.79a.1.1,0,0,0,0-.12,28.32,28.32,0,0,0-1.14-3.65,18.59,18.59,0,0,0-1.39-2.79,11.33,11.33,0,0,0-6.34-5.43A9.09,9.09,0,0,0,231,92.29a8.53,8.53,0,0,0-4.27,5.54,9.78,9.78,0,0,0,1.53,7.25,13.36,13.36,0,0,0,2.58,3.14" transform="translate(-15 -15)"/><path class="cls-3" d="M249.21,109.39a.59.59,0,0,1-.24.4,9.86,9.86,0,0,1-2.17.92l-5,1.79c-3.44,1.23-5.33,1.88-5.62,1.94a.73.73,0,0,1-.57-.06,12.14,12.14,0,0,1-1.39-2.16.1.1,0,0,0-.13,0l-.86.31a.1.1,0,0,0-.06,0,.06.06,0,0,0,0,.08c.8,2,1.55,4,2.22,5.85.82,2.32,1.81,5.25,3,8.73a.1.1,0,0,0,.09.07h0c1.9-.09,3.68-.12,5.31-.08h0a.07.07,0,0,0,.07,0,.1.1,0,0,0,0-.1l-.39-1.11a.1.1,0,0,0-.08-.06,24,24,0,0,1-3-.8,2.86,2.86,0,0,1-1-.69,5.51,5.51,0,0,1-.65-1.39l-1.56-4.39,9.64-3.42,3-1c.5-.18.86-.19,1,0a24.25,24.25,0,0,1,1.43,2.56.1.1,0,0,0,.12,0l.87-.31a.1.1,0,0,0,.06,0,.06.06,0,0,0,0-.08c-.79-2-1.39-3.55-1.83-4.73s-.95-2.83-1.6-4.93a.12.12,0,0,0-.05-.07.11.11,0,0,0-.08,0l-.87.31a.1.1,0,0,0-.07.11,20.35,20.35,0,0,1,.32,2.39" transform="translate(-15 -15)"/><path class="cls-3" d="M258.51,139.13s0-.06,0-.07a.07.07,0,0,0-.07,0l-.91.12a.1.1,0,0,0-.09.1c0,.23,0,.4,0,.52a6.17,6.17,0,0,1-.18,1.7.51.51,0,0,1-.22.26,10.51,10.51,0,0,1-2.16.5c-2.4.4-3.67.62-4.14.68a21.32,21.32,0,0,1-4.53.33,3.5,3.5,0,0,1-2.25-1,6.35,6.35,0,0,1-.93-5.9,3.36,3.36,0,0,1,1.6-1.62,13.31,13.31,0,0,1,3.24-.74l6.3-.88a6.53,6.53,0,0,1,1.6-.1.66.66,0,0,1,.35.32,12.91,12.91,0,0,1,.83,2.28.1.1,0,0,0,.11.07l.9-.13a.09.09,0,0,0,.08,0s0,0,0-.08c-.36-1.94-.63-3.55-.8-4.77s-.35-2.84-.55-4.85a.07.07,0,0,0,0-.07.06.06,0,0,0-.07,0l-.91.13a.09.09,0,0,0-.09.09,22,22,0,0,1-.15,2.26.78.78,0,0,1-.26.4,6.59,6.59,0,0,1-1.79.4l-7.6,1.07a8.38,8.38,0,0,0-3.7,1.21,4.85,4.85,0,0,0-1.79,2.7,11.15,11.15,0,0,0-.16,4.71,11.77,11.77,0,0,0,.9,3.17,6.06,6.06,0,0,0,1.36,1.95,5.43,5.43,0,0,0,1.82,1.23,7,7,0,0,0,2.36.39,40.91,40.91,0,0,0,4.22-.42c3.65-.49,5.69-.72,6.23-.72h0a.76.76,0,0,1,.59.25,9.24,9.24,0,0,1,.85,2.16.1.1,0,0,0,.09.07h0l.91-.13.07,0a.14.14,0,0,0,0-.09c-.29-1.43-.49-2.6-.62-3.48s-.24-2-.41-3.87" transform="translate(-15 -15)"/><path class="cls-3" d="M259.46,149.93l-.08,0-.92-.06a.11.11,0,0,0-.1.08c-.51,1.93-.58,2.19-.6,2.22a.72.72,0,0,1-.27.33,2.57,2.57,0,0,1-1.24.13c-2.12-.08-3.71-.15-4.7-.22l-5.81-.41a12.65,12.65,0,0,1-2.12-.26.7.7,0,0,1-.32-.22,1,1,0,0,1-.18-.39l-.3-2.19c0-.05,0-.1-.09-.1l-.92-.06a.1.1,0,0,0-.11.11c0,2.2-.09,3.64-.13,4.31,0,.35-.09,1-.2,2-.07.76-.13,1.38-.16,1.87a12.29,12.29,0,0,0,.41,4.59,5.66,5.66,0,0,0,1.83,2.82,4.87,4.87,0,0,0,2.75,1.08h.32a3.89,3.89,0,0,0,1.87-.45,3.59,3.59,0,0,0,1.47-1.54,7.5,7.5,0,0,0,.68-2.17,6.13,6.13,0,0,0,1.14,2.42,3.86,3.86,0,0,0,2.86,1.45,3.42,3.42,0,0,0,3.18-1.46,7.91,7.91,0,0,0,1.06-4c0-.51.06-1.07.08-1.68.06-1.33.1-2.23.13-2.77.11-1.44.26-3.23.5-5.32a.11.11,0,0,0,0-.08m-9.65,6.93a6.18,6.18,0,0,1-.95,3.4,3,3,0,0,1-2.67.81,3.78,3.78,0,0,1-2.69-1,3.62,3.62,0,0,1-.71-2.68,9.63,9.63,0,0,1,.23-1.47l6.83.44Zm7.57,1.42a3.13,3.13,0,0,1-.88,2.21,2.79,2.79,0,0,1-2.18.63,3.14,3.14,0,0,1-2.39-1.09,4.53,4.53,0,0,1-.63-3.08l0-.54,6,.39a12.59,12.59,0,0,1,0,1.48" transform="translate(-15 -15)"/><polygon class="cls-5" points="43.12 161.2 44.86 166.54 50.47 166.54 45.93 169.83 47.66 175.18 43.12 171.88 38.58 175.18 40.32 169.83 35.77 166.54 41.38 166.54 43.12 161.2"/><polygon class="cls-5" points="226.42 161.2 228.16 166.54 233.76 166.54 229.22 169.83 230.96 175.18 226.42 171.88 221.88 175.18 223.61 169.83 219.07 166.54 224.68 166.54 226.42 161.2"/><path class="cls-6" d="M119.77,78.84V222.45a77.86,77.86,0,0,0,11.29,3.76V75.07a76.7,76.7,0,0,0-11.29,3.77" transform="translate(-15 -15)"/><path class="cls-4" d="M150,72.73c-1.9,0-3.78.09-5.65.23V228.33c1.87.13,3.75.22,5.65.22s3.78-.09,5.65-.22V73c-1.87-.14-3.75-.23-5.65-.23" transform="translate(-15 -15)"/><path class="cls-6" d="M168.94,226.21a77.45,77.45,0,0,0,11.29-3.76V78.84a76.31,76.31,0,0,0-11.29-3.77Z" transform="translate(-15 -15)"/><path class="cls-3" d="M121.39,199.86c7.86,8,21.78,19.56,28.15,20.15a2.9,2.9,0,0,0,.43,0,3.85,3.85,0,0,0,.66-.06c5.6-.79,18.78-11.08,27.78-20.17,18-18.14,21.73-31.78,21.73-40V103.21c0-4.35-2.48-6.86-7-7.07-18.32-.85-34.32-11.11-39.58-14.47l-1.53-1a4.75,4.75,0,0,0-5,0l-1.57,1L145,82c-6.73,4.33-20.75,13.34-38.13,14.14-4.5.21-7,2.72-7,7.07v56.57c0,6.55,2.29,13.75,6.81,21.39a99.89,99.89,0,0,0,14.71,18.69" transform="translate(-15 -15)"/><path class="cls-5" d="M193.15,96.14l-1.07-.06c-.71,0-1.42-.11-2.13-.19l-1-.11-1.08-.15-.82-.12c-.41-.06-.81-.13-1.21-.21l-1-.19L184,95q-.4-.08-.81-.18l-.8-.17-1.58-.4-.53-.14c-.6-.16-1.21-.33-1.8-.51l-.77-.23q-.37-.1-.75-.24c-.5-.15-1-.32-1.49-.49L174,92.08l-.72-.27-1.29-.5c-.5-.19-1-.39-1.49-.6l-.68-.29-.66-.28-.18-.08-.48-.21c-1-.46-2-.91-2.93-1.37-.67-.33-1.33-.65-2-1l-1.11-.58-.73-.39-.34-.19-.51-.27c-1.37-.76-2.61-1.49-3.69-2.14l-.79-.48-.75-.47h0l-.32-.2-1-.6-.11-.07-.69-.45-1.55-1a4.67,4.67,0,0,0-2.48-.71,4.73,4.73,0,0,0-2.49.7c-.47.29-1,.66-1.57,1L145,82h0l-.63.4a107.38,107.38,0,0,1-13.29,7.47c-.58.27-1.17.53-1.77.79l-.85.37c-.34.15-.69.29-1,.42l-.33.13-1,.38,0,0-.62.23c-.67.25-1.34.49-2,.72l-1.38.45c-.75.23-1.51.46-2.27.67s-1.52.4-2.3.58l-.78.18c-.52.12-1,.23-1.58.33l-.79.15-.81.14-.81.13-.83.11-.82.11c-.85.11-1.71.19-2.59.26l-.81,0-.8,0c-4.5.2-7,2.72-7,7.07v56.57c0,6.55,2.29,13.74,6.8,21.39.42.69.85,1.39,1.29,2.09l.69,1.06c.22.34.45.68.69,1,0,0,0,0,0,0l.72,1,.77,1.06.73,1,.12.16.71.93c1.72,2.24,3.61,4.5,5.65,6.75.56.61,1.13,1.23,1.71,1.84s1.07,1.13,1.62,1.69l.52.52.53.53c1.63,1.62,3.48,3.36,5.43,5.09l.55.49c.87.77,1.75,1.53,2.64,2.27l2.1,1.73.89.7.57.45.74.58c1.21.92,2.42,1.8,3.59,2.62l.67.45c.57.39,1.13.76,1.69,1.11.23.15.45.29.68.42.81.5,1.6,1,2.36,1.35s1.43.71,2.09,1l.25.1c.28.11.54.21.81.29l.31.1a1.81,1.81,0,0,0,.31.09,5.84,5.84,0,0,0,.6.15l.28.05a5.42,5.42,0,0,0,.54.08,3,3,0,0,0,.43,0,4.82,4.82,0,0,0,.65,0l.28-.05a4.09,4.09,0,0,0,.56-.13l.3-.08.3-.09.21-.08c.2-.07.4-.14.61-.23l.65-.27.34-.15c.56-.26,1.15-.56,1.78-.9.3-.16.6-.33.91-.52s.37-.21.56-.33c.54-.32,1.1-.67,1.67-1l.68-.45,0,0,.78-.53c.66-.45,1.33-.92,2-1.41l1.39-1,.87-.67.87-.67c1.16-.91,2.35-1.87,3.52-2.86,2.68-2.24,5.32-4.62,7.75-7l.87-.86.86-.86c.62-.62,1.23-1.25,1.81-1.87s1-1.07,1.5-1.6c.25-.26.49-.53.72-.79a94.48,94.48,0,0,0,9.66-12.48c.15-.22.29-.45.43-.67a57.1,57.1,0,0,0,5.43-11l.19-.55c.18-.54.36-1.07.51-1.6l.15-.52c.13-.45.24-.9.35-1.34s.15-.6.21-.89c.16-.75.3-1.47.4-2.16,0-.14,0-.29.06-.42.11-.74.18-1.46.23-2.14,0-.26,0-.52,0-.77,0-.4,0-.8,0-1.19V103.21c0-4.35-2.47-6.87-7-7.07m5.53,63.64c0,7.52-3.29,19.73-18.45,36-.9,1-1.86,2-2.85,3-2.71,2.73-5.58,5.39-8.44,7.82a95.06,95.06,0,0,1-13.29,9.74,17,17,0,0,1-5.23,2.21l-.45,0h-.3a15.45,15.45,0,0,1-5.32-2,88,88,0,0,1-13.29-9.65c-3-2.59-6-5.36-8.63-8-.92-.93-1.8-1.86-2.66-2.8a94,94,0,0,1-11.85-15.61c-4.37-7.42-6.6-14.37-6.6-20.65V103.21c0-3.55,1.88-5.45,5.59-5.61a60.75,60.75,0,0,0,12.86-2,73.47,73.47,0,0,0,11.29-4.09,105,105,0,0,0,13.29-7.34l1.42-.91.5-.32,1.56-1a3.3,3.3,0,0,1,1.72-.49,3.21,3.21,0,0,1,1.71.5l1.53,1c.74.48,1.71,1.1,2.86,1.81a103.88,103.88,0,0,0,13.29,7,79.38,79.38,0,0,0,11.29,3.93,62.13,62.13,0,0,0,12.85,2c3.72.16,5.6,2.06,5.6,5.61Z" transform="translate(-15 -15)"/><path class="cls-5" d="M180.23,140.21a60.69,60.69,0,0,0-24.58-7.5c-1.71-.15-3.45-.22-5.19-.22q-3.09,0-6.11.3a60.68,60.68,0,0,0-24.58,8,61.82,61.82,0,0,0-11.19,8.32v10.72c0,8,4.81,16.93,11.19,25A123.75,123.75,0,0,0,144.35,208a28.21,28.21,0,0,0,5.54,3.19,29.2,29.2,0,0,0,5.18-3l.58-.4h0a120,120,0,0,0,13.29-11,117.89,117.89,0,0,0,11.29-12.22c6.39-8.08,11.19-16.89,11.19-24.81V148.21a61.09,61.09,0,0,0-11.19-8m-6.9,23.43a23.8,23.8,0,0,1-27.65,19.25c-.44-.08-.89-.18-1.33-.28A23.82,23.82,0,0,1,154.09,136c.52.09,1,.21,1.56.33a23.84,23.84,0,0,1,17.68,27.31" transform="translate(-15 -15)"/><path class="cls-4" d="M192.93,100.83a64.26,64.26,0,0,1-12.7-1.91,81.64,81.64,0,0,1-11.29-3.75,102.92,102.92,0,0,1-13.29-6.69c-1.94-1.15-3.5-2.15-4.61-2.87l-1.49-1c-.45.28-1,.62-1.52,1l-.5.31c-.93.6-2,1.29-3.17,2A100.3,100.3,0,0,1,131.06,95a73.57,73.57,0,0,1-11.29,3.88,62.33,62.33,0,0,1-12.71,1.93c-2.26.1-2.49.81-2.49,2.38v56.57c0,10.34,6.8,21.67,15.2,31.39a126,126,0,0,0,11.29,11.43,101.24,101.24,0,0,0,13.3,10.18c2.52,1.55,4.5,2.46,5.61,2.57,1.07-.15,3.07-1.14,5.68-2.79a107.85,107.85,0,0,0,13.29-10.25A127.46,127.46,0,0,0,180.23,191c8.4-9.64,15.21-20.86,15.21-31.18V103.21c0-1.57-.24-2.28-2.51-2.38m-1.51,59c0,7.92-4.8,16.73-11.19,24.81a116.8,116.8,0,0,1-11.29,12.22,120,120,0,0,1-13.29,11l-.58.41a29.2,29.2,0,0,1-5.18,3,27.92,27.92,0,0,1-5.53-3.19,123.44,123.44,0,0,1-24.59-23.2c-6.38-8.1-11.19-17-11.19-25v-55a67.64,67.64,0,0,0,11.19-1.72,76.64,76.64,0,0,0,11.29-3.66,99.76,99.76,0,0,0,13.3-6.72c2-1.2,3.75-2.32,5.19-3.24,1.48.95,3.55,2.25,6.1,3.69a103.57,103.57,0,0,0,13.29,6.38,83.48,83.48,0,0,0,11.29,3.55,68.06,68.06,0,0,0,11.19,1.72Z" transform="translate(-15 -15)"/><path class="cls-4" d="M168.94,145.16a23.8,23.8,0,0,0-13.29-8.83c-.52-.12-1-.24-1.57-.33a23.72,23.72,0,0,0-9.73.27,23.82,23.82,0,0,0,0,46.34c.44.1.88.2,1.33.28a23.82,23.82,0,0,0,23.26-37.73m-13.29-7.07c.3-.08.6-.18.9-.28a22.48,22.48,0,0,1,12.39,9.37c.2.32.4.64.58,1,0,.29-.05.63-.09,1s-.07.82-.11,1.25l-.38-.16a15.86,15.86,0,0,0-6.07-1c-1.1-1.47-5.4-5.23-7.09-5.92,0-.47-.07-1-.13-1.45a29.94,29.94,0,0,0-.71-3.63l.71-.15m3.47,20c.95,1.56,3.16,5.54,3.28,8.76a47.87,47.87,0,0,1-6.09,7.13l-.66.07a16.85,16.85,0,0,1-4.34-.28,24.53,24.53,0,0,1-3.73-1c-.49-.15-.86-.31-1.1-.4l-.07,0a38.87,38.87,0,0,1-2.06-5.08c-.38-1.15-.71-2.28-1-3.34a12,12,0,0,1,1-1.84,24.26,24.26,0,0,1,2.87-3.41c.63-.62,1.28-1.24,2-1.85l.64-.52c.94.14,1.84.26,2.8.38s2,.25,3,.4l2,.33,1.21.23c.08.12.17.27.26.43M138.5,140a22.4,22.4,0,0,1,13.61-3h0c.74.42,1.44.83,2.15,1.17a26.53,26.53,0,0,1,.9,5.2,32.15,32.15,0,0,0-7.68,3.44,16.61,16.61,0,0,0-3.14-1.21c-.62-.17-1.26-.32-1.9-.44a11.57,11.57,0,0,0-3.81-.15,17.51,17.51,0,0,1-.14-5m.08,5.61a9.87,9.87,0,0,1,3.74.12l0-.12h0v.12a19,19,0,0,1,2,.47,13.83,13.83,0,0,1,2.88,1.14c.15.67.3,1.36.47,2,.49,2.21,1,4.48,1.66,6.63a31.62,31.62,0,0,0-5,5.12,13.86,13.86,0,0,0-1.53,2.53l-3.74-.67c-.81-.14-1.61-.27-2.36-.42-.59-.1-1.11-.19-1.55-.28a18.93,18.93,0,0,1-2.23-5.81c-.24-1.08-.41-2-.49-2.65,0-.37-.09-.66-.11-.83a52.39,52.39,0,0,1,6.24-7.37m-10.8,9.83a23.46,23.46,0,0,1,.85-3.3,14.86,14.86,0,0,0,2.43.83l.68.17c.16,1.33.85,6.2,2.84,9.32-1,1.52-2.4,4.28-2.16,6.86-.47.36-.92.72-1.36,1.09l-.51.45a22.48,22.48,0,0,1-2.77-15.42m3.28,16.23-.19-.29.19-.17c.5-.44,1-.88,1.6-1.31,1.12,1.78,4.91,5.72,6.85,6.43a14.61,14.61,0,0,0,3.82,4.63,22.49,22.49,0,0,1-12.27-9.29m24.29,9.43-.68.37a22.32,22.32,0,0,1-8.67.14,10.44,10.44,0,0,1-1.11-.24c-.16-.11-.35-.23-.54-.38a14.33,14.33,0,0,1-4.15-4.65,15.37,15.37,0,0,0,4.15-1.89,12.44,12.44,0,0,0,1.92-1.43,26.54,26.54,0,0,0,4.94,1.41,17.14,17.14,0,0,0,4.44.28l.54-.05c.74,2.08,1.58,3.4,2.56,4a20.89,20.89,0,0,1-3.1,2.23l-.3.18m1.46-.2a20.65,20.65,0,0,0,2.63-2,14.19,14.19,0,0,0,4.05-1.42,22.74,22.74,0,0,1-6.68,3.43m6.72-14.06-.54-.12c-.2-3.53-2.67-7.8-3.58-9.25a18,18,0,0,0,3.57-7.6,18.22,18.22,0,0,1,3.24.27,11.12,11.12,0,0,1,2.72.81l.44.21a23.16,23.16,0,0,1,2.78,8c0,.08,0,.17,0,.28a16.72,16.72,0,0,1-3.17,7.34c-.15.17-.3.35-.46.52a44.87,44.87,0,0,1-4.95-.48m8.64-3.46a22.41,22.41,0,0,1-4.87,10.47,13.88,13.88,0,0,0,1.64-5.56c0-.21,0-.4,0-.61a15.85,15.85,0,0,0,3.53-7.12,21,21,0,0,1-.33,2.82" transform="translate(-15 -15)"/><path class="cls-4" d="M114.51,118.63s3.22-5.12,20.17-6.38c33.89-2.54,52.78,6.62,33,12.78-7.66,2.37-19,1.89-18.88,2.48s15.25.18,25-2.55c11.6-3.26,12.09-6.89,12.09-6.89s4.43-8.88-20.12-11.36c-15.72-1.58-36.93-1.38-48.41,5.18-6,3.41-2.84,6.74-2.84,6.74" transform="translate(-15 -15)"/><path class="cls-6" d="M150.16,122v-3.85c0-1.14,0-2.45-.66-3.23a2.49,2.49,0,0,0-2-.75,6.75,6.75,0,0,0-2.44.58,1.69,1.69,0,0,1-.53.12.43.43,0,0,1-.17,0,.82.82,0,0,1-.28-.32l-.25,3.78.27,0a6.09,6.09,0,0,1,.26-.79c.47-1.09,1.2-1.77,2.09-1.77a1.06,1.06,0,0,1,1,.55,2.8,2.8,0,0,1,.2,1.41v.17a6.81,6.81,0,0,0-3.3,1.63,4,4,0,0,0-1.11,2.94,2.7,2.7,0,0,0,1.11,2.41,1.78,1.78,0,0,0,.88.25,2.83,2.83,0,0,0,2.43-1.7,3.79,3.79,0,0,0,.47,1.41h2.77v-.53c-.81-.13-.74-1.35-.74-2.32m-3.72,1c-.45,0-.72-.65-.72-1.3a3,3,0,0,1,.79-2,2.26,2.26,0,0,1,1.15-.62c0,1.29-.13,3.91-1.22,3.91" transform="translate(-15 -15)"/><path class="cls-6" d="M163.46,122.56l0-4.88a6.23,6.23,0,0,0-.38-2.66,1.61,1.61,0,0,0-1.37-.92c-1,0-1.91,1-2.53,2.12-.23-1.37-.84-2.11-1.75-2.11s-1.89,1.07-2.53,2.12a8.73,8.73,0,0,0-.37-2l-2.83.31v.52c.49,0,.72.59.72,1.69l0,5.85c0,1.1-.22,1.65-.72,1.69v.53h4v-.54c-.48,0-.72-.58-.77-1.68V119.8a9.82,9.82,0,0,1,.17-2.24c.17-.57.55-1.16,1-1.16.73,0,.65,1.39.65,2.15l0,4c0,1.1-.29,1.65-.78,1.69v.53h4v-.53c-.49,0-.74-.59-.74-1.69v-2.49a9,9,0,0,1,.24-2.66c.17-.53.51-1,.9-1,.68,0,.63,1.38.64,2.09l0,4.1c0,1.1-.27,1.64-.77,1.69v.53l4,0v-.52c-.5,0-.75-.59-.76-1.69" transform="translate(-15 -15)"/><path class="cls-6" d="M139.7,123.53c-.4,0-.66,0-.94-.06l3.47-9-4.92,0a1,1,0,0,1-.44-.07.46.46,0,0,1-.35-.35L136,117.8l.26.11a2.38,2.38,0,0,1,1.83-2.13,4,4,0,0,1,.75.09l-3.5,9,5.38,0a.89.89,0,0,1,.91.42l.71-4-.29-.12c-.39,1.75-1.41,2.41-2.36,2.41" transform="translate(-15 -15)"/><path class="cls-6" d="M134.67,124.35c-.82-.12-.75-1.34-.75-2.32v-3.85c0-1.14,0-2.44-.66-3.22a2.52,2.52,0,0,0-2-.76h-.19a7.68,7.68,0,0,0-2.25.57,1.55,1.55,0,0,1-.53.14c-.21,0-.31-.16-.44-.37l-.26,3.79.27,0c.4-1.53,1.27-2.55,2.34-2.56a1.06,1.06,0,0,1,.87.36,1.15,1.15,0,0,1,.14.19,2.71,2.71,0,0,1,.2,1.41V118l-.34.09c-1.61.43-4.09,1.43-4.07,4.48,0,1.73,1,2.66,2,2.66a2.83,2.83,0,0,0,2.07-1.09,2.24,2.24,0,0,0,.36-.62,3.78,3.78,0,0,0,.47,1.42h2.78Zm-3.61-2.15c-.18.51-.45.86-.86.86s-.72-.65-.73-1.31a3.08,3.08,0,0,1,.81-2,2,2,0,0,1,.78-.51l.36-.11a9.89,9.89,0,0,1-.36,3.06" transform="translate(-15 -15)"/><g class="cls-7"><g class="cls-8"><g class="cls-9"><path class="cls-10" d="M141.93,193.44c-.25.91-.44,1.9-.6,2.56H135v-.41c.84-.82,1.75-1.68,2.52-2.59a6,6,0,0,0,1.73-3.69c0-1.08-.56-1.86-1.65-1.86a2.64,2.64,0,0,0-2.11,1.4l-.46-.38,1-1.48a3.33,3.33,0,0,1,2.38-1,2.73,2.73,0,0,1,2.86,2.8c0,1.25-.64,2.22-2.21,3.7l-1.87,1.79h2.56c.94,0,1.06,0,1.65-1.05Z" transform="translate(-15 -15)"/><path class="cls-10" d="M149.77,191.1c0,2.29-.83,5.09-3.48,5.09s-3.49-2.82-3.49-5.08.9-5.1,3.49-5.1,3.48,2.8,3.48,5.09M145,191c0,2.13.33,4.5,1.37,4.5s1.31-2.29,1.31-4.48-.33-4.4-1.35-4.4S145,188.94,145,191" transform="translate(-15 -15)"/><path class="cls-10" d="M157.62,191.1c0,2.29-.82,5.09-3.47,5.09s-3.49-2.82-3.49-5.08.91-5.1,3.49-5.1,3.47,2.8,3.47,5.09m-4.8-.06c0,2.13.33,4.5,1.37,4.5s1.3-2.29,1.3-4.48-.33-4.4-1.35-4.4-1.32,2.28-1.32,4.38" transform="translate(-15 -15)"/><path class="cls-10" d="M164.31,193.26v1c0,.94.11,1.09,1.28,1.21V196H160.9v-.53c1.34-.12,1.41-.33,1.41-1.29v-.92h-4v-.64c1.7-2.41,3.36-4.67,4.87-6.51h1.12v6.26h1.42v.89Zm-2-5h0c-.76,1-1.77,2.49-2.8,4.13h2.82Z" transform="translate(-15 -15)"/></g></g></g></g></g></svg>