<?xml version="1.0" encoding="utf-8"?>
<!-- Generator: Adobe Illustrator 24.0.0, SVG Export Plug-In . SVG Version: 6.00 Build 0)  -->
<svg version="1.1" id="Layer_1" xmlns="http://www.w3.org/2000/svg" xmlns:xlink="http://www.w3.org/1999/xlink" x="0px" y="0px"
	 viewBox="0 0 399 800" style="enable-background:new 0 0 399 800;" xml:space="preserve">
<style type="text/css">
	.st0{opacity:0.2;}
	.st1{fill:#B7D1E5;}
</style>
<g class="st0">
	<polygon class="st1" points="131,35.91 126.39,68.42 28.02,45.89 35.32,14 	"/>
	<polygon class="st1" points="231.03,40.1 231.03,73.67 126.39,49.7 131,17.18 	"/>
	<polygon class="st1" points="375.98,53.64 368.68,85.54 231.03,54 231.03,20.43 	"/>
	<polygon class="st1" points="120.28,111.39 120.28,111.4 115.66,143.91 28.02,123.84 35.32,91.94 	"/>
	<polygon class="st1" points="231.03,118.04 231.03,151.61 115.66,125.19 120.28,92.68 	"/>
	<polygon class="st1" points="375.98,131.58 368.68,163.48 231.03,131.95 231.03,98.38 	"/>
	<polygon class="st1" points="109.55,186.89 104.93,219.39 28.02,201.77 35.32,169.88 	"/>
	<polygon class="st1" points="231.03,195.98 231.03,229.55 104.93,200.66 109.55,168.16 	"/>
	<polygon class="st1" points="375.98,209.52 368.68,241.42 231.03,209.88 231.03,176.31 	"/>
	<polygon class="st1" points="98.83,262.37 94.2,294.88 28.02,279.72 35.32,247.82 	"/>
	<polygon class="st1" points="231.03,273.92 231.03,307.49 94.2,276.15 98.83,243.64 	"/>
	<polygon class="st1" points="375.98,287.46 368.68,319.36 231.03,287.83 231.03,254.26 	"/>
	<polygon class="st1" points="88.1,337.85 83.48,370.36 28.02,357.66 35.32,325.76 	"/>
	<polygon class="st1" points="231.03,351.86 231.03,385.43 83.48,351.63 88.1,319.12 	"/>
	<polygon class="st1" points="375.98,365.4 368.68,397.3 231.03,365.76 231.03,332.19 	"/>
	<polygon class="st1" points="77.38,413.33 72.76,445.84 28.02,435.6 35.32,403.7 	"/>
	<polygon class="st1" points="231.03,429.8 231.03,463.37 72.76,427.12 77.38,394.61 	"/>
	<polygon class="st1" points="375.98,443.34 368.68,475.24 231.03,443.71 231.03,410.14 	"/>
	<polygon class="st1" points="66.65,488.82 62.03,521.33 28.02,513.54 35.32,481.64 	"/>
	<polygon class="st1" points="231.03,507.74 231.03,541.31 62.03,502.6 66.65,470.09 	"/>
	<polygon class="st1" points="375.98,521.28 368.68,553.17 231.03,521.65 231.03,488.08 	"/>
	<polygon class="st1" points="55.92,564.3 51.31,596.82 28.02,591.48 35.32,559.58 	"/>
	<polygon class="st1" points="231.03,585.69 231.03,619.25 51.31,578.09 55.92,545.57 	"/>
	<polygon class="st1" points="375.98,599.23 368.68,631.12 231.03,599.59 231.03,566.02 	"/>
	<polygon class="st1" points="45.2,639.79 40.58,672.29 28.02,669.42 35.32,637.52 	"/>
	<polygon class="st1" points="231.03,663.62 231.03,697.19 40.58,653.56 45.2,621.06 	"/>
	<polygon class="st1" points="375.98,677.16 368.68,709.05 231.03,677.53 231.03,643.96 	"/>
	<polygon class="st1" points="231.03,741.56 231.03,775.13 28.02,728.63 35.32,696.73 	"/>
	<polygon class="st1" points="375.98,755.1 368.68,787 231.03,755.46 231.03,721.89 	"/>
	<line class="st1" x1="231.03" y1="176.31" x2="231.03" y2="131.95"/>
	<line class="st1" x1="231.03" y1="332.19" x2="231.03" y2="287.83"/>
	<line class="st1" x1="231.03" y1="488.08" x2="231.03" y2="443.71"/>
	<line class="st1" x1="231.03" y1="643.96" x2="231.03" y2="599.59"/>
	<line class="st1" x1="231.03" y1="721.89" x2="231.03" y2="677.53"/>
	<line class="st1" x1="231.03" y1="566.02" x2="231.03" y2="521.65"/>
	<line class="st1" x1="231.03" y1="410.14" x2="231.03" y2="365.76"/>
	<line class="st1" x1="231.03" y1="254.26" x2="231.03" y2="209.88"/>
	<line class="st1" x1="231.03" y1="98.38" x2="231.03" y2="54"/>
	<line class="st1" x1="115.66" y1="125.19" x2="109.55" y2="168.16"/>
	<line class="st1" x1="94.2" y1="276.15" x2="88.1" y2="319.12"/>
	<line class="st1" x1="72.76" y1="427.12" x2="66.65" y2="470.09"/>
	<line class="st1" x1="51.31" y1="578.09" x2="45.2" y2="621.06"/>
	<polyline class="st1" points="40.58,653.56 33.01,706.82 33,706.85 32.99,706.9 32.99,706.93 29.85,729.05 	"/>
	<line class="st1" x1="62.03" y1="502.6" x2="55.92" y2="545.57"/>
	<line class="st1" x1="83.48" y1="351.63" x2="77.38" y2="394.61"/>
	<line class="st1" x1="104.93" y1="200.66" x2="98.83" y2="243.64"/>
	<line class="st1" x1="126.39" y1="49.7" x2="120.28" y2="92.67"/>
</g>
</svg>
