<svg id="Layer_1" data-name="Layer 1" xmlns="http://www.w3.org/2000/svg" viewBox="0 0 1195.87 987.81"><defs><style>.cls-1{fill:#fff;}</style></defs><title>pattern3</title><polygon class="cls-1" points="1.1 583.25 0 580.99 0.82 580.59 605.27 287.14 606.78 289.19 1.1 583.25"/><polygon class="cls-1" points="1192.81 3.65 605.39 288.84 604.98 288.29 1192.51 3.04 1192.81 3.65"/><polygon class="cls-1" points="604.68 291.72 601.52 287.43 603.99 286.24 1193.56 0 1195.87 4.7 1193.81 5.71 604.68 291.72"/><polygon class="cls-1" points="1.1 602.52 0 600.26 0.82 599.86 605.27 306.4 606.78 308.45 1.1 602.52"/><polygon class="cls-1" points="1192.81 22.92 605.39 308.11 604.98 307.55 1192.51 22.31 1192.81 22.92"/><polygon class="cls-1" points="604.68 310.99 601.52 306.7 603.99 305.5 1193.56 19.26 1195.87 23.97 1193.81 24.97 604.68 310.99"/><polygon class="cls-1" points="1.1 621.78 0 619.52 0.82 619.12 605.27 325.67 606.78 327.71 1.1 621.78"/><polygon class="cls-1" points="1192.81 42.18 605.39 327.37 604.98 326.82 1192.51 41.57 1192.81 42.18"/><polygon class="cls-1" points="604.68 330.25 601.52 325.96 603.99 324.77 1193.56 38.53 1195.87 43.23 1193.81 44.23 604.68 330.25"/><polygon class="cls-1" points="1.1 641.05 0 638.78 0.82 638.39 605.27 344.93 606.78 346.98 1.1 641.05"/><polygon class="cls-1" points="1192.81 61.45 605.39 346.64 604.98 346.08 1192.51 60.84 1192.81 61.45"/><polygon class="cls-1" points="604.68 349.52 601.52 345.23 603.99 344.03 1193.56 57.79 1195.87 62.5 1193.81 63.5 604.68 349.52"/><polygon class="cls-1" points="1.1 660.31 0 658.05 0.82 657.65 605.27 364.19 606.78 366.24 1.1 660.31"/><polygon class="cls-1" points="1192.81 80.71 605.39 365.9 604.98 365.35 1192.51 80.1 1192.81 80.71"/><polygon class="cls-1" points="604.68 368.78 601.52 364.49 603.99 363.3 1193.56 77.06 1195.87 81.76 1193.81 82.76 604.68 368.78"/><polygon class="cls-1" points="1.1 679.58 0 677.31 0.82 676.92 605.27 383.46 606.78 385.51 1.1 679.58"/><polygon class="cls-1" points="1192.81 99.98 605.39 385.17 604.98 384.61 1192.51 99.36 1192.81 99.98"/><polygon class="cls-1" points="604.68 388.05 601.52 383.76 603.99 382.56 1193.56 96.32 1195.87 101.03 1193.81 102.03 604.68 388.05"/><polygon class="cls-1" points="1.1 698.84 0 696.58 0.82 696.18 605.27 402.72 606.78 404.77 1.1 698.84"/><polygon class="cls-1" points="1192.81 119.24 605.39 404.43 604.98 403.88 1192.51 118.63 1192.81 119.24"/><polygon class="cls-1" points="604.68 407.31 601.52 403.02 603.99 401.82 1193.56 115.59 1195.87 120.29 1193.81 121.29 604.68 407.31"/><polygon class="cls-1" points="1.1 718.11 0 715.84 0.82 715.45 605.27 421.99 606.78 424.04 1.1 718.11"/><polygon class="cls-1" points="1192.81 138.51 605.39 423.7 604.98 423.14 1192.51 137.9 1192.81 138.51"/><polygon class="cls-1" points="604.68 426.57 601.52 422.29 603.99 421.09 1193.56 134.85 1195.87 139.56 1193.81 140.56 604.68 426.57"/><polygon class="cls-1" points="1.1 737.37 0 735.11 0.82 734.71 605.27 441.25 606.78 443.3 1.1 737.37"/><polygon class="cls-1" points="1192.81 157.77 605.39 442.96 604.98 442.4 1192.51 157.16 1192.81 157.77"/><polygon class="cls-1" points="604.68 445.84 601.52 441.55 603.99 440.35 1193.56 154.12 1195.87 158.82 1193.81 159.82 604.68 445.84"/><polygon class="cls-1" points="1.1 756.63 0 754.37 0.82 753.97 605.27 460.52 606.78 462.57 1.1 756.63"/><polygon class="cls-1" points="1192.81 177.03 605.39 462.23 604.98 461.67 1192.51 176.42 1192.81 177.03"/><polygon class="cls-1" points="604.68 465.11 601.52 460.81 603.99 459.62 1193.56 173.38 1195.87 178.09 1193.81 179.09 604.68 465.11"/><polygon class="cls-1" points="1.1 775.9 0 773.64 0.82 773.24 605.27 479.78 606.78 481.83 1.1 775.9"/><polygon class="cls-1" points="1192.81 196.3 605.39 481.49 604.98 480.93 1192.51 195.69 1192.81 196.3"/><polygon class="cls-1" points="604.68 484.37 601.52 480.08 603.99 478.88 1193.56 192.65 1195.87 197.35 1193.81 198.35 604.68 484.37"/><polygon class="cls-1" points="1.1 795.16 0 792.9 0.82 792.5 605.27 499.05 606.78 501.1 1.1 795.16"/><polygon class="cls-1" points="1192.81 215.56 605.39 500.76 604.98 500.2 1192.51 214.95 1192.81 215.56"/><polygon class="cls-1" points="604.68 503.63 601.52 499.35 603.99 498.15 1193.56 211.91 1195.87 216.62 1193.81 217.62 604.68 503.63"/><polygon class="cls-1" points="1.1 814.43 0 812.17 0.82 811.77 605.27 518.31 606.78 520.36 1.1 814.43"/><polygon class="cls-1" points="1192.81 234.83 605.39 520.02 604.98 519.46 1192.51 234.22 1192.81 234.83"/><polygon class="cls-1" points="604.68 522.9 601.52 518.61 603.99 517.41 1193.56 231.18 1195.87 235.88 1193.81 236.88 604.68 522.9"/><polygon class="cls-1" points="1.1 833.69 0 831.43 0.82 831.03 605.27 537.58 606.78 539.63 1.1 833.69"/><polygon class="cls-1" points="1192.81 254.09 605.39 539.28 604.98 538.73 1192.51 253.48 1192.81 254.09"/><polygon class="cls-1" points="604.68 542.16 601.52 537.87 603.99 536.68 1193.56 250.44 1195.87 255.14 1193.81 256.14 604.68 542.16"/><polygon class="cls-1" points="1.1 852.96 0 850.7 0.82 850.3 605.27 556.84 606.78 558.89 1.1 852.96"/><polygon class="cls-1" points="1192.81 273.36 605.39 558.55 604.98 557.99 1192.51 272.75 1192.81 273.36"/><polygon class="cls-1" points="604.68 561.43 601.52 557.14 603.99 555.94 1193.56 269.7 1195.87 274.41 1193.81 275.41 604.68 561.43"/><polygon class="cls-1" points="1.1 872.22 0 869.96 0.82 869.56 605.27 576.11 606.78 578.15 1.1 872.22"/><polygon class="cls-1" points="1192.81 292.62 605.39 577.81 604.98 577.26 1192.51 292.01 1192.81 292.62"/><polygon class="cls-1" points="604.68 580.69 601.52 576.4 603.99 575.21 1193.56 288.97 1195.87 293.67 1193.81 294.67 604.68 580.69"/><polygon class="cls-1" points="1.1 891.49 0 889.23 0.82 888.83 605.27 595.37 606.78 597.42 1.1 891.49"/><polygon class="cls-1" points="1192.81 311.89 605.39 597.08 604.98 596.52 1192.51 311.28 1192.81 311.89"/><polygon class="cls-1" points="604.68 599.96 601.52 595.67 603.99 594.47 1193.56 308.23 1195.87 312.94 1193.81 313.94 604.68 599.96"/><polygon class="cls-1" points="1.1 910.75 0 908.49 0.82 908.09 605.27 614.63 606.78 616.68 1.1 910.75"/><polygon class="cls-1" points="1192.81 331.15 605.39 616.34 604.98 615.79 1192.51 330.54 1192.81 331.15"/><polygon class="cls-1" points="604.68 619.22 601.52 614.93 603.99 613.74 1193.56 327.5 1195.87 332.2 1193.81 333.2 604.68 619.22"/><polygon class="cls-1" points="1.1 930.02 0 927.75 0.82 927.36 605.27 633.9 606.78 635.95 1.1 930.02"/><polygon class="cls-1" points="1192.81 350.42 605.39 635.61 604.98 635.05 1192.51 349.81 1192.81 350.42"/><polygon class="cls-1" points="604.68 638.49 601.52 634.2 603.99 633 1193.56 346.76 1195.87 351.47 1193.81 352.47 604.68 638.49"/><polygon class="cls-1" points="1.1 949.28 0 947.02 0.82 946.62 605.27 653.16 606.78 655.21 1.1 949.28"/><polygon class="cls-1" points="1192.81 369.68 605.39 654.87 604.98 654.32 1192.51 369.07 1192.81 369.68"/><polygon class="cls-1" points="604.68 657.75 601.52 653.46 603.99 652.26 1193.56 366.03 1195.87 370.73 1193.81 371.73 604.68 657.75"/><polygon class="cls-1" points="1.1 968.55 0 966.28 0.82 965.89 605.27 672.43 606.78 674.48 1.1 968.55"/><polygon class="cls-1" points="1192.81 388.95 605.39 674.14 604.98 673.58 1192.51 388.34 1192.81 388.95"/><polygon class="cls-1" points="604.68 677.02 601.52 672.73 603.99 671.53 1193.56 385.29 1195.87 390 1193.81 391 604.68 677.02"/><polygon class="cls-1" points="1.1 987.81 0 985.55 0.82 985.15 605.27 691.69 606.78 693.74 1.1 987.81"/><polygon class="cls-1" points="1192.81 408.21 605.39 693.4 604.98 692.85 1192.51 407.6 1192.81 408.21"/><polygon class="cls-1" points="604.68 696.28 601.52 691.99 603.99 690.79 1193.56 404.56 1195.87 409.26 1193.81 410.26 604.68 696.28"/></svg>