<svg id="Layer_1" data-name="Layer 1" xmlns="http://www.w3.org/2000/svg" viewBox="0 0 1118.52 1245"><title>pattern1</title><line x1="646.12" y1="627.93" x2="635.68" y2="617.07"/><line x1="556.43" y1="622.51" x2="556.42" y2="622.49"/><line x1="770.99" y1="622.51" x2="770.98" y2="622.49"/><path d="M1065.67,473.78l-10.44-10.87-2.09-2.17L976,380.51c.47,2.2,48.4,225.59-7.22,452.54l-55.89-52.29S941.71,960.17,822.71,1218L608.14,1067.45c119-257.84,90.16-437.24,90.16-437.24l55.89,52.29c55.62-226.95,7.69-450.34,7.22-452.55l77.16,80.24,2.09,2.17,10.44,10.88v0l-6.25-57.72v-.12C816.47,67,770.42,11.77,770.42,11.77L958.84-27S1031,217.58,1059.4,415.94v.11Z" transform="translate(52.85 27)"/><path d="M254.3,473.78l-10.44-10.87-2.09-2.17-77.16-80.23c.46,2.2,48.39,225.59-7.23,452.54l-55.89-52.29S130.34,960.17,11.34,1218l-64.19-45C77.86,1005.44,22.36,638.22,16,598.93c-.36-2.26-.57-3.43-.57-3.43l.88.89,97.39,99.18c31.55-97.37-24.34-469.69-24.34-469.69l86.55,95.56C166,170,89.57-15.09,89.57-15.09L147.47-27S219.66,217.58,248,415.94v.11Z" transform="translate(52.85 27)"/><path d="M700.55,473.78l-10.44-10.87L688,460.74l-77.16-80.23c.47,2.2,48.39,225.59-7.22,452.54l-55.9-52.29S576.59,960.17,457.59,1218l-64.19-45c130.71-167.52,75.22-534.74,68.82-574-.37-2.26-.57-3.43-.57-3.43l.87.89,97.39,99.18c31.56-97.37-24.34-469.69-24.34-469.69l86.55,95.56C612.2,170,535.82-15.09,535.82-15.09L593.72-27s72.19,244.58,100.57,442.94v.11Z" transform="translate(52.85 27)"/><path d="M457.14,473.78,446.7,462.91l-2.09-2.17-77.16-80.23c.47,2.2,48.39,225.59-7.22,452.54l-55.9-52.29S333.18,960.17,214.18,1218L150,1173c130.71-167.52,75.22-534.74,68.82-574-.37-2.26-.57-3.43-.57-3.43l.87.89,97.39,99.18c31.56-97.37-24.34-469.69-24.34-469.69l86.55,95.56C368.79,170,292.41-15.09,292.41-15.09L350.31-27S422.5,217.58,450.87,415.94v.11Z" transform="translate(52.85 27)"/><polyline points="860.68 627.92 860.68 627.94 850.24 617.06"/><path d="M74,594.68l-.31,2.53c-.36-2.25-.57-3.42-.57-3.42Z" transform="translate(52.85 27)"/></svg>