<?xml version="1.0" encoding="utf-8"?>
<!-- Generator: Adobe Illustrator 24.0.0, SVG Export Plug-In . SVG Version: 6.00 Build 0)  -->
<svg version="1.1" id="Layer_1" xmlns="http://www.w3.org/2000/svg" xmlns:xlink="http://www.w3.org/1999/xlink" x="0px" y="0px"
	 viewBox="0 0 2774.4 1861" style="enable-background:new 0 0 2774.4 1861;" xml:space="preserve">
<style type="text/css">
	.st0{fill:#00019E;}
</style>
<title>ui-pattern-two</title>
<path class="st0" d="M2774.4,1554.8c-162.5,56.6-329.3,100.8-498.6,130.3c-84.6,14.7-169.8,25.7-255.4,33.1
	c-32.6,2.8-65.2,4.9-97.9,6.5v-285.6c20.3-3.1,40.5-6.4,60.7-10c75.8-13.6,150.9-30.5,225.2-50.6c148.5-40.3,293.2-93.3,432.9-156.9
	L2774.4,1554.8z"/>
<path class="st0" d="M60.4,268.9c-10.1,80.3-15,161-13.7,241.2c0.2,10.3,0.6,20.5,1,30.8H0c0.5-10.7,1.2-21.3,2-32
	c12.4-164.8,49.9-325.5,104.1-479C86,108.6,70.8,188.4,60.4,268.9z"/>
<path class="st0" d="M246.3,1102.6H131.9c-5.5-12.7-10.6-25.5-15.9-38.3c-3.8-9.9-7.4-19.9-11.1-29.9c-1.8-5-3.8-9.9-5.4-15
	l-4.9-15.1l-4.9-15.1l-2.5-7.5l-2.2-7.7l-8.7-30.5c-2.7-10.2-5.1-20.5-7.6-30.7c-1.2-5.1-2.6-10.2-3.6-15.4L62,882l-3.2-15.5
	c-0.5-2.6-1.1-5.1-1.6-7.7l-1.3-7.8l-5.3-31l-4.3-31.2l-1.1-7.8c-0.4-2.6-0.6-5.2-0.9-7.8l-1.7-15.6c-7.7-72.4-8.8-144.9-5.1-216.8
	h47.7c2.8,69.8,10.3,139.1,23.9,206.9l2.9,14.6c0.5,2.4,0.9,4.9,1.5,7.3l1.7,7.2l6.7,28.9l7.7,28.5l1.9,7.1c0.6,2.4,1.4,4.7,2.1,7.1
	l4.3,14.1l4.3,14.1c1.4,4.7,3.2,9.3,4.7,14c3.2,9.3,6.3,18.6,9.7,27.8l10.6,27.3l2.6,6.8l2.9,6.7l5.8,13.5l5.8,13.4
	c1.9,4.5,4.1,8.8,6.2,13.2c4.2,8.8,8.3,17.6,12.6,26.3c9.1,17.2,17.8,34.5,27.8,51.1C235.8,1085.5,241,1094.1,246.3,1102.6z"/>
<path class="st0" d="M665.8,1460.6v188.9l-5.5-3.6l-26.5-18.2l-6.6-4.6l-6.5-4.7l-13-9.4l-13-9.4l-12.8-9.8l-12.8-9.7
	c-2.1-1.6-4.3-3.2-6.3-4.9l-6.3-5.1c-8.3-6.8-16.7-13.4-25-20.3l-24.5-20.9c-32.3-28.3-63.2-58-92.9-89.1
	c-59.1-62.2-111.6-130.4-156.4-203.5l-16.4-27.6l-15.5-28.1c-9.9-18.9-19.6-38-28.4-57.4c-3.3-6.8-6.3-13.6-9.3-20.4h114.3
	c4.9,7.9,10,15.8,15,23.7l16.2,24l17,23.4c46.3,61.8,98.9,118.5,157,169.3c29,25.3,59.1,49.3,90.3,71.9l23.6,16.7
	c8,5.4,16,10.7,24,16.1l6,4c2,1.3,4.1,2.6,6.1,3.9L665.8,1460.6z"/>
<path class="st0" d="M1319.6,1634v227c-3.3-0.7-6.5-1.4-9.8-2.2c-167.2-37.2-330.5-93.3-483.1-171.7c-38.2-19.4-75.5-40.6-112.1-63
	l-13.7-8.4l-6.8-4.2l-6.8-4.4l-21.5-14v-188.9l4.1,2.6l12.2,7.7l12.4,7.4l12.4,7.4l6.3,3.8l6.3,3.5l25.2,14.1l25.5,13.4l6.4,3.4
	l6.5,3.2l13,6.4c34.6,17,69.7,32.9,105.5,47.1C1035.6,1578,1176.6,1613.7,1319.6,1634z"/>
<path class="st0" d="M1960.3,1551.8v285.6c-53,2.6-106.1,3.7-159.2,3.3c-42.9-0.6-85.7-1.7-128.5-4.4l-16-0.9l-8-0.5l-8-0.6l-32-2.5
	l-8-0.6l-8-0.8l-16-1.6l-16-1.6c-5.3-0.5-10.7-1-16-1.7l-31.9-3.7l-8-0.9l-8-1.1l-15.9-2.2l-15.9-2.2l-8-1.1l-7.9-1.2l-31.7-5
	c-37-6.2-74-13-110.7-21v-227.4c7.9,1.1,15.7,2.2,23.6,3.2c38.2,5.1,76.7,8.5,115.1,11.4l28.9,1.8l7.2,0.5l7.2,0.3l14.5,0.6
	l14.4,0.6l7.2,0.3l7.2,0.2l28.9,0.7c4.8,0.2,9.6,0.2,14.5,0.2h14.5l14.4,0.1h7.2l7.2-0.1l28.9-0.4l7.2-0.1l7.2-0.3l14.4-0.5
	c38.5-1.1,77-3.7,115.4-6.6C1848.2,1566.9,1904.4,1560.3,1960.3,1551.8z"/>
<path class="st0" d="M2402.1,1279.3c-135.5,47.2-274.6,84-415.7,108.7c-70.6,12.2-141.6,21.4-212.9,27.6
	c-27.2,2.3-54.4,4.1-81.6,5.4v-238.2c16.9-2.6,33.8-5.4,50.6-8.3c63.2-11.4,125.8-25.4,187.8-42.2c123.8-33.6,244.5-77.8,361-130.8
	L2402.1,1279.3z"/>
<path class="st0" d="M139,207.1c-8.6,66.7-12.4,133.9-11.4,201.1c0.2,8.5,0.4,17.1,0.8,25.6H88.6c0.5-8.9,1-17.8,1.6-26.7
	C100.6,269.7,131.9,135.7,177,7.7C160.3,73.4,147.6,139.9,139,207.1z"/>
<path class="st0" d="M294,902.2h-95.3c-4.6-10.6-8.9-21.3-13.3-31.9c-3.1-8.3-6.2-16.6-9.2-24.9c-1.5-4.2-3.1-8.3-4.5-12.5
	l-4.1-12.6l-4.1-12.6l-2-6.3l-1.8-6.4l-7.2-25.4c-2.2-8.5-4.2-17.1-6.3-25.6c-1-4.3-2.2-8.5-3-12.8l-2.8-12.9l-2.7-12.9
	c-0.4-2.2-0.9-4.3-1.3-6.4l-1.1-6.5l-4.4-25.9l-3.6-26l-0.9-6.5c-0.3-2.2-0.5-4.3-0.7-6.5l-1.4-13c-6.4-60.3-7.3-120.8-4.2-180.8
	h39.8c2.3,58.2,8.6,116,19.9,172.5l2.4,12.1c0.4,2,0.8,4.1,1.3,6.1l1.4,6l5.6,24.1l6.4,23.8l1.6,6c0.5,2,1.2,3.9,1.8,5.9l3.6,11.7
	l3.6,11.8c1.2,3.9,2.6,7.8,3.9,11.6c2.7,7.7,5.3,15.5,8,23.2l8.8,22.8l2.2,5.7l2.4,5.6l4.8,11.2l4.8,11.2c1.6,3.7,3.5,7.3,5.2,11
	c3.5,7.3,6.9,14.7,10.5,22c7.6,14.3,14.8,28.8,23.2,42.6C285.3,888,289.6,895.1,294,902.2z"/>
<path class="st0" d="M643.8,1200.8v157.5l-4.6-3l-22.1-15.2l-5.5-3.8l-5.4-4l-10.8-7.9l-10.8-7.9l-10.7-8.2l-10.7-8.2
	c-1.8-1.4-3.5-2.7-5.3-4.1l-5.2-4.2c-6.9-5.6-13.9-11.2-20.8-16.9l-20.4-17.4c-26.9-23.6-52.7-48.4-77.4-74.3
	c-24.7-25.9-47.9-53.1-69.7-81.4c-21.8-28.3-42.1-57.7-60.7-88.2l-13.6-23L277,967.2c-8.3-15.8-16.4-31.7-23.6-47.9
	c-2.7-5.6-5.3-11.3-7.7-17h95.3c4.1,6.6,8.3,13.2,12.5,19.7l13.5,20l14.2,19.5c38.6,51.5,82.4,98.8,130.9,141.2
	c24.2,21.1,49.3,41.1,75.3,60l19.7,13.9c6.6,4.5,13.3,8.9,20,13.4l5,3.3c1.7,1.1,3.4,2.2,5.1,3.2L643.8,1200.8z"/>
<path class="st0" d="M1189,1345.4v189.3c-2.7-0.6-5.5-1.2-8.2-1.8c-139.4-31-275.6-77.8-402.8-143.2c-31.8-16.2-63-33.9-93.5-52.5
	l-11.4-7l-5.7-3.5l-5.6-3.7l-17.9-11.7v-157.5l3.5,2.2l10.2,6.4l10.4,6.2l10.3,6.1l5.2,3.1l5.3,2.9l21,11.8l21.3,11.2l5.3,2.8
	l5.4,2.7l10.8,5.3c28.8,14.2,58.1,27.4,88,39.3C952.2,1298.7,1069.8,1328.4,1189,1345.4z"/>
<path class="st0" d="M1723.2,1276.8V1515c-44.2,2.2-88.5,3.1-132.7,2.7c-35.8-0.5-71.5-1.4-107.2-3.7l-13.4-0.8l-6.7-0.4l-6.7-0.5
	l-26.7-2.1l-6.7-0.5l-6.7-0.6l-13.3-1.3l-13.3-1.3c-4.4-0.4-8.9-0.9-13.3-1.4l-26.6-3.1l-6.7-0.8l-6.7-0.9l-13.3-1.8l-13.3-1.8
	l-6.6-0.9l-6.6-1l-26.4-4.2c-30.9-5.2-61.7-10.8-92.3-17.5v-189.7c6.6,0.9,13.1,1.8,19.7,2.6c31.9,4.2,64,7.1,96,9.5l24.1,1.5l6,0.4
	l6,0.3l12.1,0.5l12.1,0.5l6,0.3l6,0.1l24.1,0.6c4,0.1,8,0.2,12.1,0.2h12.1l12,0.1h6l6-0.1l24.1-0.3l6-0.1l6-0.2l12-0.4
	c32.1-0.9,64.2-3.1,96.2-5.5C1629.7,1289.4,1676.6,1283.9,1723.2,1276.8z"/>
<path class="st0" d="M1978.9,1016.2c-105.5,36.8-213.9,65.4-323.8,84.6c-55,9.5-110.2,16.7-165.8,21.5c-21.2,1.8-42.3,3.2-63.6,4.2
	V941c13.2-2,26.3-4.2,39.4-6.5c49.2-8.9,98-19.8,146.2-32.9c96.3-26.3,190.3-60.4,281.1-101.9L1978.9,1016.2z"/>
<path class="st0" d="M216.5,181.1c-6.7,51.9-9.6,104.3-8.9,156.6c0.1,6.7,0.3,13.3,0.6,20h-30.9c0.4-6.9,0.8-13.9,1.3-20.8
	c8.1-107,32.4-211.4,67.6-311C233.1,77,223.2,128.9,216.5,181.1z"/>
<path class="st0" d="M337.1,722.5h-74.2c-3.6-8.3-6.9-16.6-10.4-24.8c-2.5-6.5-4.8-13-7.2-19.4c-1.2-3.3-2.4-6.4-3.5-9.7l-3.2-9.8
	l-3.2-9.8l-1.6-4.9l-1.4-5l-5.6-19.8c-1.7-6.6-3.3-13.3-4.9-20c-0.8-3.3-1.7-6.6-2.4-10l-2.1-10l-2.1-10c-0.3-1.7-0.7-3.3-1-5
	l-0.9-5l-3.5-20.2l-2.8-20.2l-0.7-5c-0.2-1.7-0.4-3.4-0.6-5.1l-1.1-10.1c-5-47-5.7-94.1-3.3-140.8h31c1.8,45.3,6.7,90.3,15.5,134.3
	l1.9,9.5c0.3,1.6,0.6,3.2,1,4.7l1.1,4.7l4.4,18.7l5,18.5l1.3,4.6c0.4,1.5,0.9,3.1,1.4,4.6l2.8,9.2l2.8,9.2c0.9,3,2,6,3.1,9.1
	c2.1,6,4.1,12,6.3,18l6.9,17.8l1.7,4.4l1.9,4.4l3.8,8.7l3.8,8.7c1.2,2.9,2.7,5.7,4,8.6c2.7,5.7,5.4,11.4,8.2,17.1
	c5.9,11.1,11.5,22.4,18,33.2C330.4,711.4,333.7,717,337.1,722.5z"/>
<path class="st0" d="M609.6,955v122.7l-3.6-2.3l-17.2-11.8l-4.3-3l-4.2-3.1l-8.5-6.1l-8.4-6.1l-8.3-6.4l-8.3-6.3
	c-1.4-1.1-2.8-2.1-4.1-3.2l-4.1-3.3c-5.4-4.4-10.8-8.7-16.2-13.2l-15.9-13.6c-21-18.4-41.1-37.7-60.3-57.9
	c-38.4-40.4-72.5-84.7-101.6-132.2L334,791.3L324,773c-6.4-12.3-12.8-24.7-18.4-37.3c-2.1-4.4-4.1-8.8-6-13.3h74.2
	c3.2,5.2,6.5,10.3,9.8,15.4l10.5,15.6l11,15.2c30,40.1,64.2,76.9,101.9,109.9c18.8,16.5,38.4,32,58.6,46.7l15.3,10.8
	c5.2,3.5,10.4,7,15.6,10.4l3.9,2.6c1.3,0.9,2.6,1.7,4,2.5L609.6,955z"/>
<path class="st0" d="M1034.2,1067.6V1215l-6.4-1.4c-108.5-24.1-214.6-60.6-313.7-111.5c-24.8-12.6-49-26.4-72.8-40.9l-8.9-5.5
	l-4.4-2.8l-4.4-2.8l-13.9-9.1V918.4l2.7,1.7l7.9,5l8.1,4.8l8.1,4.8l4,2.4l4.1,2.3l16.4,9.2l16.6,8.7l4.1,2.2l4.2,2.1l8.4,4.2
	c22.5,11,45.3,21.3,68.5,30.6C849.8,1031.2,941.3,1054.4,1034.2,1067.6z"/>
<path class="st0" d="M1450.2,1014.2v185.5c-34.4,1.7-68.9,2.4-103.4,2.1c-27.8-0.4-55.7-1.1-83.4-2.9l-10.4-0.6l-5.2-0.3l-5.2-0.4
	l-20.8-1.6l-5.2-0.4l-5.2-0.5l-10.4-1l-10.4-1c-3.5-0.3-6.9-0.7-10.4-1.1l-20.7-2.4l-5.2-0.6l-5.2-0.7l-10.3-1.4l-10.3-1.4l-5.2-0.7
	l-5.2-0.8l-20.6-3.2c-24.1-4.1-48.1-8.4-71.9-13.6v-147.7c5.1,0.7,10.2,1.4,15.3,2.1c24.8,3.3,49.8,5.5,74.8,7.4l18.8,1.2l4.7,0.3
	l4.7,0.2l9.4,0.4l9.4,0.4l4.7,0.2l4.7,0.1l18.8,0.5c3.1,0.1,6.3,0.1,9.4,0.1h9.4h9.4h4.7l4.7-0.1l18.8-0.3l4.7-0.1l4.7-0.2l9.4-0.3
	c25-0.7,50-2.4,75-4.3C1377.5,1024,1413.9,1019.7,1450.2,1014.2z"/>
<path class="st0" d="M1749.7,826.9c-88.1,30.8-178.5,54.5-270.4,70.7c-45.9,7.9-92.1,13.9-138.5,18c-17.7,1.5-35.4,2.7-53.1,3.5
	V764.2c11-1.7,22-3.5,32.9-5.4c41.1-7.4,81.8-16.5,122.1-27.4c80.4-22,158.9-50.4,234.8-85.1L1749.7,826.9z"/>
<path class="st0" d="M278,129.6c-5.6,43.4-8,87.1-7.4,130.8c0.1,5.6,0.3,11.1,0.5,16.7h-25.9c0.3-5.8,0.7-11.6,1.1-17.4
	c6.7-89.4,27-176.5,56.4-259.7C291.8,42.7,283.6,86,278,129.6z"/>
<path class="st0" d="M378.7,581.7h-62c-3-6.9-5.8-13.8-8.6-20.8c-2-5.4-4-10.8-6-16.2c-1-2.7-2-5.4-2.9-8.1l-2.7-8.2l-2.7-8.2
	l-1.3-4.1l-1.2-4.1l-4.7-16.5c-1.5-5.5-2.8-11.1-4.1-16.7c-0.7-2.8-1.4-5.5-2-8.3l-1.7-8.4l-1.7-8.4c-0.3-1.4-0.6-2.8-0.9-4.2
	l-0.7-4.2l-2.9-16.8l-2.3-16.9l-0.6-4.2c-0.2-1.4-0.3-2.8-0.5-4.2l-0.9-8.5c-4-39.1-4.9-78.4-2.8-117.6h25.9
	c1.4,37.7,5.7,75.2,13,112.2l1.6,7.9c0.3,1.3,0.5,2.6,0.8,4l0.9,3.9l3.6,15.6l4.1,15.5l1,3.9c0.4,1.3,0.8,2.6,1.1,3.8l2.3,7.6
	l2.3,7.6c0.8,2.5,1.7,5,2.6,7.6c1.8,5,3.4,10.1,5.2,15.1l5.7,14.8l1.4,3.7l1.6,3.7l3.1,7.3l3.1,7.3c1,2.4,2.2,4.8,3.4,7.2
	c2.3,4.8,4.5,9.5,6.8,14.3c5,9.3,9.6,18.7,15.1,27.7C373.1,572.4,375.9,577.1,378.7,581.7z"/>
<path class="st0" d="M606.3,775.8v102.4l-3-1.9l-14.4-9.9l-3.6-2.5l-3.5-2.6l-7.1-5.1l-7-5.1l-6.9-5.3l-6.9-5.3
	c-1.2-0.9-2.3-1.8-3.4-2.7l-3.4-2.8c-4.5-3.7-9.1-7.3-13.5-11l-13.3-11.3c-17.5-15.3-34.3-31.4-50.3-48.3
	c-16-16.9-31.2-34.5-45.3-53c-14.2-18.4-27.4-37.6-39.5-57.4l-8.9-15l-8.4-15.2c-5.5-10.2-10.7-20.5-15.5-31.1
	c-1.8-3.7-3.4-7.3-5-11.1h62c2.7,4.3,5.4,8.6,8.1,12.8l8.8,13l9.2,12.7c25.1,33.5,53.6,64.2,85.1,91.8c15.7,13.7,32,26.7,49,39
	l12.8,9c4.3,2.9,8.7,5.8,13,8.7l3.3,2.2c1.1,0.7,2.2,1.4,3.3,2.1L606.3,775.8z"/>
<path class="st0" d="M960.8,869.9V993c-1.8-0.4-3.5-0.8-5.3-1.2c-90.6-20.2-179.2-50.6-262-93.1c-20.7-10.5-41-22-60.8-34.2
	l-7.4-4.6l-3.7-2.3l-3.7-2.4l-11.6-7.6V745.3l2.2,1.4l6.6,4.2l6.7,4l6.7,4l3.4,2l3.4,1.9l13.7,7.6l13.9,7.3l3.5,1.8l3.5,1.7l7,3.5
	c18.8,9.2,37.8,17.8,57.2,25.5C806.8,839.5,883.3,858.9,960.8,869.9z"/>
<path class="st0" d="M1308.2,825.3v154.9c-28.8,1.4-57.5,2-86.3,1.8c-23.3-0.3-46.5-0.9-69.7-2.4l-8.7-0.5l-4.3-0.3l-4.3-0.3
	l-17.4-1.4l-4.3-0.3l-4.3-0.4l-8.7-0.8l-8.7-0.8c-2.9-0.3-5.8-0.6-8.7-0.9l-17.3-2l-4.3-0.5l-4.3-0.6l-8.6-1.2l-8.6-1.2l-4.3-0.6
	l-4.3-0.7l-17.2-2.7c-20.1-3.4-40.1-7-60-11.4V829.6c4.3,0.6,8.5,1.2,12.8,1.7c20.7,2.7,41.6,4.6,62.4,6.2l15.7,1l3.9,0.3l3.9,0.2
	l7.8,0.3l7.8,0.3l3.9,0.2l3.9,0.1l15.7,0.4c2.6,0.1,5.2,0.1,7.8,0.1h7.8h7.8h3.9l3.9-0.1l15.7-0.2l3.9-0.1l3.9-0.1l7.8-0.3
	c20.9-0.6,41.8-2,62.6-3.6C1247.4,833.5,1277.8,829.9,1308.2,825.3z"/>
</svg>
