<?xml version="1.0" encoding="utf-8"?>
<!-- Generator: Adobe Illustrator 24.0.0, SVG Export Plug-In . SVG Version: 6.00 Build 0)  -->
<svg version="1.1" id="Layer_1" xmlns="http://www.w3.org/2000/svg" xmlns:xlink="http://www.w3.org/1999/xlink" x="0px" y="0px"
	 viewBox="0 0 676 1444.3" style="enable-background:new 0 0 676 1444.3;" xml:space="preserve">
<style type="text/css">
	.st0{fill:url(#SVGID_1_);}
	.st1{fill:url(#SVGID_2_);}
	.st2{fill:url(#SVGID_3_);}
	.st3{opacity:0.93;fill:url(#SVGID_4_);}
	.st4{opacity:0.93;fill:url(#SVGID_5_);}
	.st5{opacity:0.93;fill:url(#SVGID_6_);}
	.st6{opacity:0.93;fill:url(#SVGID_7_);}
	.st7{opacity:0.93;fill:url(#SVGID_8_);}
	.st8{opacity:0.93;fill:url(#SVGID_9_);}
	.st9{opacity:0.93;fill:url(#SVGID_10_);}
	.st10{opacity:0.93;fill:url(#SVGID_11_);}
	.st11{opacity:0.93;fill:url(#SVGID_12_);}
	.st12{opacity:0.93;fill:url(#SVGID_13_);}
	.st13{opacity:0.93;fill:url(#SVGID_14_);}
	.st14{opacity:0.93;fill:url(#SVGID_15_);}
	.st15{opacity:0.93;fill:url(#SVGID_16_);}
	.st16{opacity:0.93;fill:url(#SVGID_17_);}
	.st17{opacity:0.93;fill:url(#SVGID_18_);}
	.st18{opacity:0.93;fill:url(#SVGID_19_);}
	.st19{opacity:0.93;fill:url(#SVGID_20_);}
	.st20{opacity:0.93;fill:url(#SVGID_21_);}
	.st21{opacity:0.93;fill:url(#SVGID_22_);}
	.st22{opacity:0.93;fill:url(#SVGID_23_);}
	.st23{opacity:0.93;fill:url(#SVGID_24_);}
	.st24{opacity:0.93;fill:url(#SVGID_25_);}
	.st25{opacity:0.93;fill:url(#SVGID_26_);}
	.st26{opacity:0.93;fill:url(#SVGID_27_);}
	.st27{opacity:0.93;fill:url(#SVGID_28_);}
	.st28{opacity:0.93;fill:url(#SVGID_29_);}
	.st29{opacity:0.93;fill:url(#SVGID_30_);}
	.st30{opacity:0.93;fill:url(#SVGID_31_);}
	.st31{opacity:0.93;fill:url(#SVGID_32_);}
	.st32{opacity:0.93;fill:url(#SVGID_33_);}
	.st33{opacity:0.93;fill:url(#SVGID_34_);}
	.st34{opacity:0.93;fill:url(#SVGID_35_);}
	.st35{opacity:0.93;fill:url(#SVGID_36_);}
	.st36{opacity:0.93;fill:url(#SVGID_37_);}
	.st37{opacity:0.93;fill:url(#SVGID_38_);}
	.st38{opacity:0.93;fill:url(#SVGID_39_);}
	.st39{opacity:0.93;fill:url(#SVGID_40_);}
	.st40{opacity:0.93;fill:url(#SVGID_41_);}
	.st41{opacity:0.93;fill:url(#SVGID_42_);}
	.st42{opacity:0.93;fill:url(#SVGID_43_);}
	.st43{opacity:0.93;fill:url(#SVGID_44_);}
	.st44{opacity:0.93;fill:url(#SVGID_45_);}
	.st45{opacity:0.93;fill:url(#SVGID_46_);}
	.st46{opacity:0.93;fill:url(#SVGID_47_);}
	.st47{opacity:0.93;fill:url(#SVGID_48_);}
	.st48{opacity:0.93;fill:url(#SVGID_49_);}
	.st49{opacity:0.93;fill:url(#SVGID_50_);}
	.st50{opacity:0.93;fill:url(#SVGID_51_);}
	.st51{opacity:0.93;fill:url(#SVGID_52_);}
	.st52{opacity:0.93;fill:url(#SVGID_53_);}
	.st53{opacity:0.93;fill:url(#SVGID_54_);}
	.st54{opacity:0.93;fill:url(#SVGID_55_);}
	.st55{opacity:0.93;fill:url(#SVGID_56_);}
	.st56{opacity:0.93;fill:url(#SVGID_57_);}
	.st57{opacity:0.93;fill:url(#SVGID_58_);}
	.st58{opacity:0.93;fill:url(#SVGID_59_);}
	.st59{opacity:0.93;fill:url(#SVGID_60_);}
	.st60{opacity:0.93;fill:url(#SVGID_61_);}
	.st61{opacity:0.93;fill:url(#SVGID_62_);}
	.st62{opacity:0.93;fill:url(#SVGID_63_);}
	.st63{opacity:0.93;fill:url(#SVGID_64_);}
	.st64{opacity:0.93;fill:url(#SVGID_65_);}
	.st65{opacity:0.93;fill:url(#SVGID_66_);}
	.st66{opacity:0.93;fill:url(#SVGID_67_);}
	.st67{opacity:0.93;fill:url(#SVGID_68_);}
	.st68{opacity:0.93;fill:url(#SVGID_69_);}
	.st69{opacity:0.93;fill:url(#SVGID_70_);}
	.st70{opacity:0.93;fill:url(#SVGID_71_);}
	.st71{opacity:0.93;fill:url(#SVGID_72_);}
	.st72{opacity:0.93;fill:url(#SVGID_73_);}
	.st73{opacity:0.93;fill:url(#SVGID_74_);}
	.st74{opacity:0.93;fill:url(#SVGID_75_);}
	.st75{opacity:0.93;fill:url(#SVGID_76_);}
	.st76{opacity:0.93;fill:url(#SVGID_77_);}
	.st77{opacity:0.93;fill:url(#SVGID_78_);}
	.st78{opacity:0.93;fill:url(#SVGID_79_);}
	.st79{fill:url(#SVGID_80_);}
	.st80{fill:url(#SVGID_81_);}
	.st81{fill:url(#SVGID_82_);}
	.st82{fill:#FFFFFF;}
</style>
<title>zigzag-two</title>
<linearGradient id="SVGID_1_" gradientUnits="userSpaceOnUse" x1="2575.7097" y1="125.5427" x2="2222.0815" y2="1438.9094" gradientTransform="matrix(0.9997 2.507811e-02 2.507811e-02 -0.9997 -9.5471 1452.0787)">
	<stop  offset="0" style="stop-color:#00019E"/>
	<stop  offset="0.66" style="stop-color:#003193"/>
	<stop  offset="1" style="stop-color:#003393;stop-opacity:0"/>
</linearGradient>
<path class="st0" d="M2563.7,1392.3l-160.8,20.2c55.7-177.6-50.5-382.7-50.5-382.7l47.2,21.5c-5.5-56.6-18.6-109.9-33.5-155.7
	c-6.4-19.6-13.1-37.9-19.7-54.4c-22.7-57-43.9-93-44.3-93.7l47.5,24.9c-0.6-19.2-2.4-38.1-5-56.4c-7.2-50.7-20.7-96.7-33.2-131.6
	c-14.8-41.4-28.3-67.4-28.3-67.4l47.2,21.5c-15.9-164.8-96.6-302.4-97.4-303.7l67,35.1l1.8,1l9.1,4.8l-17-37v-0.1
	C2231.2,112.9,2189.5,87,2189.5,87l72-21c0,0,139.5,96,202.2,221.6v0.1l17,37l-9.1-4.8l-1.8-1l-66.9-35.1
	c0.8,1.4,81.5,139,97.4,303.8l-47.2-21.5c0.5,0.9,31.6,61.5,41.6,172.1c2,22,3.1,45.9,3,71.8l-25.6-13.4
	c0.3,0.5,10.7,18.3,24.8,48.5c25.3,54.5,62.4,149.3,72.7,255.3l-47.2-21.5C2522.2,1078.8,2580.9,1191.7,2563.7,1392.3z"/>
<linearGradient id="SVGID_2_" gradientUnits="userSpaceOnUse" x1="2839.5415" y1="135.991" x2="2485.9448" y2="1449.2411" gradientTransform="matrix(0.9997 2.507811e-02 2.507811e-02 -0.9997 -9.5471 1452.0787)">
	<stop  offset="0" style="stop-color:#00019E"/>
	<stop  offset="0.66" style="stop-color:#003193"/>
	<stop  offset="1" style="stop-color:#003393;stop-opacity:0"/>
</linearGradient>
<path class="st1" d="M2827.6,1388.5l-160.7,20.2c55.7-177.7-50.5-382.7-50.5-382.7l47.2,21.5c-5.5-56.6-18.6-109.9-33.5-155.7
	c-6.4-19.6-13.1-37.9-19.7-54.4c-22.7-57-43.9-93-44.3-93.7l47.5,24.9c-0.6-19.2-2.4-38.1-5-56.4c-7.2-50.7-20.7-96.7-33.2-131.6
	c-14.8-41.4-28.3-67.4-28.3-67.4l47.2,21.5c-15.9-164.8-96.6-302.4-97.4-303.7l67,35.1l1.8,1l9.1,4.8l-17-37v-0.1
	c-62.7-125.6-104.3-151.5-104.3-151.5l72-21c0,0,139.5,96,202.2,221.6v0.1l17,37l-9.1-4.8l-1.8-1l-67.1-35.1
	c0.8,1.4,81.5,139,97.4,303.8l-47.2-21.5c0.5,0.9,31.6,61.5,41.6,172.1c2,22,3.1,45.9,3,71.8l-25.6-13.4
	c0.3,0.5,10.7,18.3,24.8,48.5c25.3,54.5,62.4,149.3,72.7,255.3l-47.2-21.5C2786.2,1075.1,2844.9,1187.9,2827.6,1388.5z"/>
<linearGradient id="SVGID_3_" gradientUnits="userSpaceOnUse" x1="3059.4448" y1="256.9105" x2="2705.8105" y2="1570.2999" gradientTransform="matrix(0.9997 2.507811e-02 2.507811e-02 -0.9997 -9.5471 1452.0787)">
	<stop  offset="0" style="stop-color:#00019E"/>
	<stop  offset="0.66" style="stop-color:#003193"/>
	<stop  offset="1" style="stop-color:#003393;stop-opacity:0"/>
</linearGradient>
<path class="st2" d="M3050.6,1273.1l-160.8,20.2c55.7-177.6-50.5-382.7-50.5-382.7l47.2,21.5c-5.5-56.6-18.6-109.9-33.4-155.7
	c-6.4-19.7-13.1-37.9-19.7-54.4c-22.7-57-43.9-93.1-44.3-93.7l47.5,24.9c-0.6-19.2-2.4-38.2-5-56.4c-7.2-50.7-20.7-96.7-33.2-131.6
	c-14.8-41.4-28.2-67.3-28.2-67.3l47.2,21.5c-16.1-164.8-96.8-302.4-97.6-303.8l67,35.1l1.8,1l9.1,4.8l-17-37v-0.1
	C2718.1-6.3,2676.4-32.1,2676.4-32.1l71.9-21.1c0,0,139.5,96,202.2,221.6v0.1l17,37l-9.1-4.8l-1.8-1l-67-35.1
	c0.8,1.4,81.5,139,97.4,303.8l-47.1-21.4c0.5,0.9,31.6,61.5,41.6,172.1c2,22,3.1,45.9,3,71.8l-25.6-13.4
	c0.3,0.5,10.7,18.3,24.8,48.5c25.3,54.5,62.4,149.3,72.7,255.3l-47.2-21.5C3009.1,959.7,3067.8,1072.5,3050.6,1273.1z"/>
<g>
	<linearGradient id="SVGID_4_" gradientUnits="userSpaceOnUse" x1="-192.7989" y1="408.2372" x2="-267.0919" y2="-1008.8329">
		<stop  offset="0" style="stop-color:#00019E"/>
		<stop  offset="0.66" style="stop-color:#003193"/>
		<stop  offset="1" style="stop-color:#003393;stop-opacity:0"/>
	</linearGradient>
	<path class="st3" d="M-226.9,310.9c24.3,0,48.6,0,72.9,0c-26.7-22.5-57.9-37.6-88.7-59C-240.8,274.8-251.3,297.5-226.9,310.9z"/>
	<linearGradient id="SVGID_5_" gradientUnits="userSpaceOnUse" x1="-758.0623" y1="437.8723" x2="-832.3553" y2="-979.1978">
		<stop  offset="0" style="stop-color:#00019E"/>
		<stop  offset="0.66" style="stop-color:#003193"/>
		<stop  offset="1" style="stop-color:#003393;stop-opacity:0"/>
	</linearGradient>
	<path class="st4" d="M-733.8,294.7c-25.6-16.7-51.5-32.8-77.7-49.5c-5.4,19.8-1.1,32.3,16.3,40.8c13.7,6.6,25.9,16.4,38.8,24.8
		c12.7,0,25.4,0,38.1,0C-718,300.1-727.7,298.8-733.8,294.7z"/>
	<linearGradient id="SVGID_6_" gradientUnits="userSpaceOnUse" x1="-800.3903" y1="440.0915" x2="-874.6833" y2="-976.9786">
		<stop  offset="0" style="stop-color:#00019E"/>
		<stop  offset="0.66" style="stop-color:#003193"/>
		<stop  offset="1" style="stop-color:#003393;stop-opacity:0"/>
	</linearGradient>
	<path class="st5" d="M-811.3,303.3c-3.8,0-1.8,4.8-2.2,7.5c4.2,0,8.5,0,12.7,0C-802.6,305.9-807,303.3-811.3,303.3z"/>
	<linearGradient id="SVGID_7_" gradientUnits="userSpaceOnUse" x1="-179.207" y1="407.5246" x2="-253.5" y2="-1009.5455">
		<stop  offset="0" style="stop-color:#00019E"/>
		<stop  offset="0.66" style="stop-color:#003193"/>
		<stop  offset="1" style="stop-color:#003393;stop-opacity:0"/>
	</linearGradient>
	<path class="st6" d="M-242.7,95.5c0,4.1,1.2,7.2,4.8,9.4c29.4,18.6,58.8,37.3,90.4,57.4c0-18.7-0.1-34.6,0.1-50.5
		c0-4.1-1.1-7.3-4.6-9.5c-29.4-18.6-58.8-37.2-90.6-57.3C-242.7,63.8-242.6,79.6-242.7,95.5z"/>
	<linearGradient id="SVGID_8_" gradientUnits="userSpaceOnUse" x1="-500.1639" y1="424.3514" x2="-574.4569" y2="-992.7186">
		<stop  offset="0" style="stop-color:#00019E"/>
		<stop  offset="0.66" style="stop-color:#003193"/>
		<stop  offset="1" style="stop-color:#003393;stop-opacity:0"/>
	</linearGradient>
	<path class="st7" d="M-623.5-1028.7c1.1,10.6,0.4,21.4,0.2,32.2c-0.1,4.5,0.4,8.4,4.6,11.1c29.4,18.6,58.7,37.2,90.1,57.1
		c-0.3-22.8,4-43-5-62.4c0,0,0,0,0,0c3.9,3.1,5.4,1.6,5.4-2.9c0-14.4,0-28.8,0-43.3c0-3.9-0.5-7.2-4.2-9.6
		c-29.7-18.8-59.3-37.7-90.9-57.8c0,15.9,0.6,28.6-0.2,41.3c-0.6,10.4,1.4,18.8,11,23.9c0,0,0,0,0,0c0,0,0,0,0,0
		C-619.3-1039.1-624.6-1038.6-623.5-1028.7z"/>
	<linearGradient id="SVGID_9_" gradientUnits="userSpaceOnUse" x1="-182.7608" y1="407.7109" x2="-257.0538" y2="-1009.3592">
		<stop  offset="0" style="stop-color:#00019E"/>
		<stop  offset="0.66" style="stop-color:#003193"/>
		<stop  offset="1" style="stop-color:#003393;stop-opacity:0"/>
	</linearGradient>
	<path class="st8" d="M-236.4,171.7c28.6,18,57.2,36.2,88.8,56.3c0-18,0-32.8,0-47.7c0-3.3-0.6-6.2-3.8-8.2
		c-29.8-18.9-59.5-37.8-91.4-58.2c0,17.4,0.2,31.8-0.1,46.1C-242.9,165.5-240.9,168.9-236.4,171.7z"/>
	<linearGradient id="SVGID_10_" gradientUnits="userSpaceOnUse" x1="-470.882" y1="422.8163" x2="-545.175" y2="-994.2538">
		<stop  offset="0" style="stop-color:#00019E"/>
		<stop  offset="0.66" style="stop-color:#003193"/>
		<stop  offset="1" style="stop-color:#003393;stop-opacity:0"/>
	</linearGradient>
	<path class="st9" d="M-433.6-581.8c0.4-4.4,0.4-6,0.7-7.6c5.7-30.6-5.3-50.6-33.9-63.8c-21-9.7-39.7-24.4-60.8-37.8
		c-0.4,8.1-0.7,13.4-1,18.7c-31-19.2-62-38.4-94.7-58.7c0,9,0,14.9,0,20.7c0,7.8-1.2,15.2,7.8,20.6c26.2,15.8,51.7,32.8,77.7,49
		c2.8,1.7,6.4,7.5,10.1,0.7c0,0,0,0,0,0c0,0,0,0,0,0C-496.7-620.7-465.7-601.6-433.6-581.8z"/>
	<linearGradient id="SVGID_11_" gradientUnits="userSpaceOnUse" x1="-505.2585" y1="424.6185" x2="-579.5516" y2="-992.4515">
		<stop  offset="0" style="stop-color:#00019E"/>
		<stop  offset="0.66" style="stop-color:#003193"/>
		<stop  offset="1" style="stop-color:#003393;stop-opacity:0"/>
	</linearGradient>
	<path class="st10" d="M-618.9-926.9c29.3,18.6,58.7,37.3,90,57.2c2.6-48.4,2.6-48.5-33.9-71.8c-19.4-12.4-38.9-24.7-60.4-38.3
		c0,16.7,0.1,30,0,43.4C-623.3-932.6-622.4-929.2-618.9-926.9z"/>
	<linearGradient id="SVGID_12_" gradientUnits="userSpaceOnUse" x1="-186.3056" y1="407.8967" x2="-260.5986" y2="-1009.1733">
		<stop  offset="0" style="stop-color:#00019E"/>
		<stop  offset="0.66" style="stop-color:#003193"/>
		<stop  offset="1" style="stop-color:#003393;stop-opacity:0"/>
	</linearGradient>
	<path class="st11" d="M-153.7,239.5c-28.7-18-57.2-36.3-89-56.4c0,13.4,0.8,23.5-0.2,33.5c-1.2,12.2,2.8,19.6,13.6,25.7
		c18,10.1,34.9,22.2,52.6,32.9c9.2,5.5,17.1,13.9,29.2,15.9c0-13.9-0.2-26.7,0.1-39.6C-147.4,246-149.1,242.4-153.7,239.5z"/>
	<linearGradient id="SVGID_13_" gradientUnits="userSpaceOnUse" x1="-466.3416" y1="422.5782" x2="-540.6346" y2="-994.4918">
		<stop  offset="0" style="stop-color:#00019E"/>
		<stop  offset="0.66" style="stop-color:#003193"/>
		<stop  offset="1" style="stop-color:#003393;stop-opacity:0"/>
	</linearGradient>
	<path class="st12" d="M-610.5-862.5c27.7,16.5,54.6,34.2,81.8,51.4c0,4.8,0.1,9.7,0.1,14.5c-31-19.1-62-38.2-94.6-58.3
		c0,13.1,0.4,23.3-0.1,33.4c-0.3,6.7,2,10.8,7.6,14.3c29.2,18,58.2,36.3,87.2,54.5h0c0,6.3-0.1,12.6-0.1,18.9
		c-30.7-19.2-61.3-38.5-94.6-59.3c0,10.8,0.1,18.5,0,26.3c-0.2,7.6-0.1,14,8,18.9c26.6,16.1,52.7,33.3,79,49.9
		c2.6,1.6,5.9,6.2,8.6-0.1c0,0,0,0,0,0c0,0,0,0,0,0c31,19.1,62.1,38.2,94.7,58.3c0-14.9-0.9-27.2,0.3-39.3c0.9-9.8-2.9-16-10.1-21.1
		c-0.8-1-1.8-1.8-2.8-2.6c1,0.2,2.1,0.2,3.3-0.2c6.2,3.3,9.6,2.7,9.4-5.7c-0.4-12.8-0.3-25.6,0-38.4c0.1-5.4-1.6-8.9-6.2-11.7
		c-29.6-18.3-59-36.8-88.4-55.2c-0.2-11.2-0.4-22.4-0.5-33.7c0-4.8,0.2-9.3-4.9-12.5c-29.4-18.4-58.6-37.1-90.3-57.3
		c0,12.3,0.8,21.7-0.2,31C-624.7-875.2-620.5-868.5-610.5-862.5z"/>
	<linearGradient id="SVGID_14_" gradientUnits="userSpaceOnUse" x1="-177.5849" y1="407.4395" x2="-251.8779" y2="-1009.6306">
		<stop  offset="0" style="stop-color:#00019E"/>
		<stop  offset="0.66" style="stop-color:#003193"/>
		<stop  offset="1" style="stop-color:#003393;stop-opacity:0"/>
	</linearGradient>
	<path class="st13" d="M-333.2-861.6c29.5,18.6,58.9,37.4,89.8,57c0.3-6.9,0.6-11.5,0.8-16.2c32.8,15.9,61.2,39.7,96.3,57.8
		c-4-12.7,4.8-25.1-6.7-32.5c-29.7-19-58.7-39.3-89.8-56c-31.1-19.5-62.2-39.1-95-59.7c0,14.9,0.1,26.7,0,38.5
		C-337.9-868.2-337.5-864.3-333.2-861.6z"/>
	<linearGradient id="SVGID_15_" gradientUnits="userSpaceOnUse" x1="-477.7498" y1="423.1763" x2="-552.0428" y2="-993.8937">
		<stop  offset="0" style="stop-color:#00019E"/>
		<stop  offset="0.66" style="stop-color:#003193"/>
		<stop  offset="1" style="stop-color:#003393;stop-opacity:0"/>
	</linearGradient>
	<path class="st14" d="M-437.6-509.8c-29.4-18.6-58.8-37.2-89.9-56.9c-0.3,7.5-0.6,12.7-0.8,17.9c-32.7-16.1-61.2-39.2-95-57.5
		c2,12.6-6.1,25.1,7,33.5c26.8,17.2,53.6,34.3,80.5,51.2c2.6,1.6,6.4,5.9,8.1-1.2c0,0,0,0,0,0c0,0,0,0,0,0
		c30.8,19.2,61.5,38.4,94.6,59.1c0-13.3,0-23.3,0-33.3C-432.9-501.9-432.6-506.7-437.6-509.8z"/>
	<linearGradient id="SVGID_16_" gradientUnits="userSpaceOnUse" x1="-117.1629" y1="404.2718" x2="-191.4559" y2="-1012.7983">
		<stop  offset="0" style="stop-color:#00019E"/>
		<stop  offset="0.66" style="stop-color:#003193"/>
		<stop  offset="1" style="stop-color:#003393;stop-opacity:0"/>
	</linearGradient>
	<path class="st15" d="M-238-1082.3c29.4,18.5,58.7,37.1,88.7,56c5.6-39.6,5.6-39.6-25-59.2c-10.7-6.9-21.1-14.2-32.1-20.4
		c-11.6-6.7-21.7-16.4-36.3-20.6c0,11.4,0.1,21.5,0,31.6C-242.8-1090-242.9-1085.4-238-1082.3z"/>
	<linearGradient id="SVGID_17_" gradientUnits="userSpaceOnUse" x1="-184.8649" y1="407.8212" x2="-259.1579" y2="-1009.2488">
		<stop  offset="0" style="stop-color:#00019E"/>
		<stop  offset="0.66" style="stop-color:#003193"/>
		<stop  offset="1" style="stop-color:#003393;stop-opacity:0"/>
	</linearGradient>
	<path class="st16" d="M-318.9-734.6c21.8,11.8,42.1,26.5,63.3,39.5c3.9,2.4,7,9,13.4,4.6c30.8,19.2,61.5,38.4,92.9,58
		c4.2-14.5,1.4-23.1-11.1-30.3c-27.8-16.2-54.7-34.1-82-51.3c0.3-7.9-1.3-14-9-18.6c-28.3-17.2-56.1-35.1-86.5-54.3
		c0,7.9,0.7,12.6-0.1,17.1C-341-752.7-334-742.7-318.9-734.6z"/>
	<linearGradient id="SVGID_18_" gradientUnits="userSpaceOnUse" x1="-120.9525" y1="404.4705" x2="-195.2455" y2="-1012.5996">
		<stop  offset="0" style="stop-color:#00019E"/>
		<stop  offset="0.66" style="stop-color:#003193"/>
		<stop  offset="1" style="stop-color:#003393;stop-opacity:0"/>
	</linearGradient>
	<path class="st17" d="M-238.3-1017.2c29.2,18.7,58.5,37.2,90.8,57.8c0-10.4,0.4-16.8-0.1-23.1c-0.6-6.5,3.4-14.6-3.8-19.3
		c-29.5-19.1-59.3-37.7-91.2-58c0,9.9-0.4,16.7,0.1,23.5C-242.1-1029.8-245.7-1021.9-238.3-1017.2z"/>
	<linearGradient id="SVGID_19_" gradientUnits="userSpaceOnUse" x1="-124.2042" y1="404.6409" x2="-198.4972" y2="-1012.4291">
		<stop  offset="0" style="stop-color:#00019E"/>
		<stop  offset="0.66" style="stop-color:#003193"/>
		<stop  offset="1" style="stop-color:#003393;stop-opacity:0"/>
	</linearGradient>
	<path class="st18" d="M-237-950.7c28.7,18.7,57.8,36.9,90.1,57.5c-2.7-15.8,5.6-31.3-5-38.9c-28.6-20.6-59.1-38.4-89.6-57.8
		C-244.5-960.6-244.4-955.5-237-950.7z"/>
	<linearGradient id="SVGID_20_" gradientUnits="userSpaceOnUse" x1="-188.2824" y1="408.0004" x2="-262.5754" y2="-1009.0697">
		<stop  offset="0" style="stop-color:#00019E"/>
		<stop  offset="0.66" style="stop-color:#003193"/>
		<stop  offset="1" style="stop-color:#003393;stop-opacity:0"/>
	</linearGradient>
	<path class="st19" d="M-329.4-683.1c28.7,18,57.4,36.1,86.2,54.1c6,10.3,17.3,13.5,26.3,19.5c22.2,14.7,44.9,28.7,67.8,43.1
		c4.2-13.5-0.1-20.5-10.3-26.6c-28.1-16.9-55.4-35-83.1-52.6c-1.6-7,3.6-16.2-3.8-21.1c-29.5-19.4-59.5-38.1-93.3-59.6
		C-334.2-709-345.8-693.4-329.4-683.1z"/>
	<linearGradient id="SVGID_21_" gradientUnits="userSpaceOnUse" x1="-483.3081" y1="423.4677" x2="-557.6011" y2="-993.6024">
		<stop  offset="0" style="stop-color:#00019E"/>
		<stop  offset="0.66" style="stop-color:#003193"/>
		<stop  offset="1" style="stop-color:#003393;stop-opacity:0"/>
	</linearGradient>
	<path class="st20" d="M-437.5-384.5c-28.7-20.3-59-38.3-90.8-58.5c0,8.2,0,13.5,0,18.8c-31-18.9-62-37.9-93.5-57.2
		c-3.7,13.6-1.6,22.6,11,29.8c24.7,14.2,48.4,30.4,72.7,45.5c2.8,1.7,5.8,7.7,10.1,1.6c0,0,0,0,0,0c0,0,0,0,0,0
		c31.1,18.9,62.3,37.7,97.6,59.1C-436.3-361.3-426.1-376.5-437.5-384.5z"/>
	<linearGradient id="SVGID_22_" gradientUnits="userSpaceOnUse" x1="-715.3618" y1="435.6337" x2="-789.6548" y2="-981.4364">
		<stop  offset="0" style="stop-color:#00019E"/>
		<stop  offset="0.66" style="stop-color:#003193"/>
		<stop  offset="1" style="stop-color:#003393;stop-opacity:0"/>
	</linearGradient>
	<path class="st21" d="M-809-539c28.7,20.2,59,38.1,91.4,58.7c-3.1-15.8,5.9-31.3-5.7-39.6c-28.2-20.1-58.2-37.6-87.5-56.2
		c-1.2,0.8-2.3,1.7-3.5,2.5C-810.1-562.2-820.5-547.1-809-539z"/>
	<linearGradient id="SVGID_23_" gradientUnits="userSpaceOnUse" x1="-128.0981" y1="404.8451" x2="-202.3911" y2="-1012.225">
		<stop  offset="0" style="stop-color:#00019E"/>
		<stop  offset="0.66" style="stop-color:#003193"/>
		<stop  offset="1" style="stop-color:#003393;stop-opacity:0"/>
	</linearGradient>
	<path class="st22" d="M-238.3-886.3c28.8,20.1,58.9,38.1,91.2,58.6c-2.5-14.7,5.8-28.6-5.4-36.4c-28.5-19.7-58.3-37.4-90.9-58.1
		C-240.7-907.3-248.6-893.5-238.3-886.3z"/>
	<linearGradient id="SVGID_24_" gradientUnits="userSpaceOnUse" x1="-191.6524" y1="408.177" x2="-265.9454" y2="-1008.893">
		<stop  offset="0" style="stop-color:#00019E"/>
		<stop  offset="0.66" style="stop-color:#003193"/>
		<stop  offset="1" style="stop-color:#003393;stop-opacity:0"/>
	</linearGradient>
	<path class="st23" d="M-330.9-625.5c28.3,18.4,57.2,35.9,85.9,53.7c3.1,4.2,0.7,10.8,6.1,14.2c29.8,18.8,59.5,37.8,90,57.2
		c2.2-9.6,2-15.7-6.2-20.7c-29.3-17.8-58.2-36.3-87.3-54.5c-3-9.8,5.5-22.5-5.4-29.8c-28.9-19.2-58.4-37.5-90.2-57.7
		C-335.6-648.3-344.4-634.3-330.9-625.5z"/>
	<linearGradient id="SVGID_25_" gradientUnits="userSpaceOnUse" x1="-717.658" y1="435.754" x2="-791.951" y2="-981.316">
		<stop  offset="0" style="stop-color:#00019E"/>
		<stop  offset="0.66" style="stop-color:#003193"/>
		<stop  offset="1" style="stop-color:#003393;stop-opacity:0"/>
	</linearGradient>
	<path class="st24" d="M-723.3-467.4c-28.6-19.6-58.4-37.4-88.4-56.4c-6.6,23.7,1.4,36.8,20.7,47c24.4,12.9,47,29.2,70.5,44.1
		C-721.5-445.6-711.7-459.4-723.3-467.4z"/>
	<linearGradient id="SVGID_26_" gradientUnits="userSpaceOnUse" x1="-755.0132" y1="437.7125" x2="-829.3062" y2="-979.3576">
		<stop  offset="0" style="stop-color:#00019E"/>
		<stop  offset="0.66" style="stop-color:#003193"/>
		<stop  offset="1" style="stop-color:#003393;stop-opacity:0"/>
	</linearGradient>
	<path class="st25" d="M-723.3,244.9c-28.5-19.8-58.3-37.5-89.4-57.1c-1.8,29.3-2.3,31.3,3.1,34.9c29.4,19.2,59.2,37.8,91.3,58.2
		C-720.2,266.3-712.4,252.4-723.3,244.9z"/>
	<linearGradient id="SVGID_27_" gradientUnits="userSpaceOnUse" x1="-474.4989" y1="423.0059" x2="-548.7919" y2="-994.0641">
		<stop  offset="0" style="stop-color:#00019E"/>
		<stop  offset="0.66" style="stop-color:#003193"/>
		<stop  offset="1" style="stop-color:#003393;stop-opacity:0"/>
	</linearGradient>
	<path class="st26" d="M-616.1-631.7c27,17.7,54.4,34.8,81.6,52.1c2.8,1.8,5.7,3.6,6.8-1.7c0,0,0,0,0,0c0,0,0,0,0,0
		c31,19.2,61.9,38.4,94.7,58.7c0-13.4,0.2-23.5-0.1-33.7c-0.1-5.1,1.9-11.2-3.6-14.7c-29.6-19-59.3-37.8-90.6-57.7
		c-0.5,7.8-0.8,13-1.2,18.2c-30.9-18.9-61.9-37.9-94.9-58.1C-620.9-654.6-629.8-640.7-616.1-631.7z"/>
	<linearGradient id="SVGID_28_" gradientUnits="userSpaceOnUse" x1="-239.6668" y1="410.6943" x2="-313.9598" y2="-1006.3757">
		<stop  offset="0" style="stop-color:#00019E"/>
		<stop  offset="0.66" style="stop-color:#003193"/>
		<stop  offset="1" style="stop-color:#003393;stop-opacity:0"/>
	</linearGradient>
	<path class="st27" d="M-260.5-551.9c-9.4-5.9-18.8-11.8-28.1-17.8c-15.8-10-31.6-20-48.4-30.6c-1.8,27.3-2.2,28,4.3,32.3
		c29.1,18.9,58.5,37.4,88.4,56.4C-240.6-539.3-240.6-539.3-260.5-551.9z"/>
	<linearGradient id="SVGID_29_" gradientUnits="userSpaceOnUse" x1="-720.3221" y1="435.8937" x2="-794.6151" y2="-981.1763">
		<stop  offset="0" style="stop-color:#00019E"/>
		<stop  offset="0.66" style="stop-color:#003193"/>
		<stop  offset="1" style="stop-color:#003393;stop-opacity:0"/>
	</linearGradient>
	<path class="st28" d="M-723.6-414.7c-28.9-19.2-58.5-37.4-88.1-56.3c-5.6,20-0.3,31.9,17,41.3c25.7,14,49.7,31,77.5,48.6
		C-720.9-395-712.4-407.3-723.6-414.7z"/>
	<linearGradient id="SVGID_30_" gradientUnits="userSpaceOnUse" x1="-481.1612" y1="423.3552" x2="-555.4542" y2="-993.7149">
		<stop  offset="0" style="stop-color:#00019E"/>
		<stop  offset="0.66" style="stop-color:#003193"/>
		<stop  offset="1" style="stop-color:#003393;stop-opacity:0"/>
	</linearGradient>
	<path class="st29" d="M-616-513.7c26.6,16.3,52.7,33.4,79.2,49.9c2.3,1.4,5.4,6.8,8.7,0.7c0,0,0,0,0,0c0,0,0,0,0,0
		c32.9,15.9,61.2,39.9,94.4,56.8c2.2-37.7,2.2-37.7-26.7-55.9c-7.1-4.5-14.3-9-21.4-13.5c-14.8-9.4-29.6-18.7-46.6-29.5
		c0,8.7,0,14,0,19.3c-30.8-19.1-61.7-38.2-96.5-59.8C-620.6-532.4-628.8-521.5-616-513.7z"/>
	<linearGradient id="SVGID_31_" gradientUnits="userSpaceOnUse" x1="-243.1187" y1="410.8753" x2="-317.4117" y2="-1006.1948">
		<stop  offset="0" style="stop-color:#00019E"/>
		<stop  offset="0.66" style="stop-color:#003193"/>
		<stop  offset="1" style="stop-color:#003393;stop-opacity:0"/>
	</linearGradient>
	<path class="st30" d="M-333.3-509.5c29.1,19.1,58.7,37.4,88.9,56.6c5.5-19.3-1.4-29.1-15.9-37.1c-20.4-11.2-39.4-24.8-59.2-37
		c-5.4-3.3-10.1-9-18.5-8.5C-335.9-526.3-342.7-515.7-333.3-509.5z"/>
	<linearGradient id="SVGID_32_" gradientUnits="userSpaceOnUse" x1="-180.8884" y1="407.6127" x2="-255.1814" y2="-1009.4573">
		<stop  offset="0" style="stop-color:#00019E"/>
		<stop  offset="0.66" style="stop-color:#003193"/>
		<stop  offset="1" style="stop-color:#003393;stop-opacity:0"/>
	</linearGradient>
	<path class="st31" d="M-154.8-727.9c-29.4-17.8-58.3-36.4-87.4-54.7c0,0,0,0,0,0c-0.4-3.2-0.6-6.4-3.8-8.4
		c-29.9-18.9-59.7-37.9-91.9-58.3c0,13.8,0.1,24.9-0.1,35.9c-0.1,4.6,1,8.1,5.2,10.8c27.8,17.5,55.5,35.3,83.2,53
		c8.5,5.4,6.3-2.2,7.1-6.1c30.9,19,61.8,38,96.7,59.5C-150.4-709.2-141.9-720.1-154.8-727.9z"/>
	<linearGradient id="SVGID_33_" gradientUnits="userSpaceOnUse" x1="-723.2076" y1="436.045" x2="-797.5006" y2="-981.0251">
		<stop  offset="0" style="stop-color:#00019E"/>
		<stop  offset="0.66" style="stop-color:#003193"/>
		<stop  offset="1" style="stop-color:#003393;stop-opacity:0"/>
	</linearGradient>
	<path class="st32" d="M-807.2-388.7c28.6,18.1,57.2,36.2,90.4,57.3c-3.8-12.6,3.4-23.5-5.5-29.5c-29.3-19.7-59.3-38.2-91.6-58.7
		C-811.7-406.8-818.7-396-807.2-388.7z"/>
	<linearGradient id="SVGID_34_" gradientUnits="userSpaceOnUse" x1="-685.3253" y1="434.0589" x2="-759.6183" y2="-983.0111">
		<stop  offset="0" style="stop-color:#00019E"/>
		<stop  offset="0.66" style="stop-color:#003193"/>
		<stop  offset="1" style="stop-color:#003393;stop-opacity:0"/>
	</linearGradient>
	<path class="st33" d="M-808.7-1119.7c29.4,18.6,58.8,37.4,88.6,56.3c4.8-17.5,0.7-28.1-14.7-36.5c-20.8-11.3-40-25.8-59.8-38.9
		c-6.3,0-12.7,0-19,0C-812.6-1132.2-816.3-1124.5-808.7-1119.7z"/>
	<linearGradient id="SVGID_35_" gradientUnits="userSpaceOnUse" x1="-688.2875" y1="434.2142" x2="-762.5804" y2="-982.8558">
		<stop  offset="0" style="stop-color:#00019E"/>
		<stop  offset="0.66" style="stop-color:#003193"/>
		<stop  offset="1" style="stop-color:#003393;stop-opacity:0"/>
	</linearGradient>
	<path class="st34" d="M-809.6-1067.1c29.4,19.5,59.4,38.1,91.2,58.3c-1.2-11.4,4.2-20.8-6.4-27.4c-28.7-17.9-57.2-36.2-88.4-56
		C-812.6-1081.8-817.6-1072.4-809.6-1067.1z"/>
	<linearGradient id="SVGID_36_" gradientUnits="userSpaceOnUse" x1="-726.4054" y1="436.2126" x2="-800.6984" y2="-980.8574">
		<stop  offset="0" style="stop-color:#00019E"/>
		<stop  offset="0.66" style="stop-color:#003193"/>
		<stop  offset="1" style="stop-color:#003393;stop-opacity:0"/>
	</linearGradient>
	<path class="st35" d="M-809.7-341.3c29.4,19.4,59.3,38.1,89,57c-0.2-9.3,6.9-18.4-1.7-24c-29.5-19.3-59.5-38-93.1-59.4
		C-811.5-356.1-817.8-346.7-809.7-341.3z"/>
	<linearGradient id="SVGID_37_" gradientUnits="userSpaceOnUse" x1="-245.8116" y1="411.0164" x2="-320.1046" y2="-1006.0536">
		<stop  offset="0" style="stop-color:#00019E"/>
		<stop  offset="0.66" style="stop-color:#003193"/>
		<stop  offset="1" style="stop-color:#003393;stop-opacity:0"/>
	</linearGradient>
	<path class="st36" d="M-248.2-419.9c-29-18.4-58-36.7-87.5-55.3c-6.4,16.5,0.5,24.7,12.6,31.5c13.4,7.4,26,16.2,39,24.4
		c13.1,8.3,26.3,16.5,41.3,25.9C-243.9-404.6-238.7-413.8-248.2-419.9z"/>
	<linearGradient id="SVGID_38_" gradientUnits="userSpaceOnUse" x1="-486.5501" y1="423.6377" x2="-560.8431" y2="-993.4324">
		<stop  offset="0" style="stop-color:#00019E"/>
		<stop  offset="0.66" style="stop-color:#003193"/>
		<stop  offset="1" style="stop-color:#003393;stop-opacity:0"/>
	</linearGradient>
	<path class="st37" d="M-622.4-419.1c-1.5,10.5-1.8,18.1,7.5,23.7c25.8,15.6,51,32.3,76.6,48.2c2.8,1.8,6.2,7.3,10.4,1.2
		c0,0,0,0,0,0c31,19,61.9,37.9,95,58.1c-2.2-13.6,6.5-27.4-5.9-35.9c-28.4-19.2-57.7-37-86.8-55.5c-3.9,6.2-1.8,11.6-2.4,16.7
		C-561.1-378.1-589.3-402.4-622.4-419.1z"/>
	<linearGradient id="SVGID_39_" gradientUnits="userSpaceOnUse" x1="-691.0731" y1="434.3603" x2="-765.3661" y2="-982.7098">
		<stop  offset="0" style="stop-color:#00019E"/>
		<stop  offset="0.66" style="stop-color:#003193"/>
		<stop  offset="1" style="stop-color:#003393;stop-opacity:0"/>
	</linearGradient>
	<path class="st38" d="M-807.6-1011.8c29.1,18,57.8,36.6,87.8,55.6c3.8-14.1-0.4-21.2-10.8-27c-16.1-9-31.1-20-46.9-29.5
		c-11.4-6.8-21.7-15.9-36.3-20.8C-812.5-1024.7-816.3-1017.2-807.6-1011.8z"/>
	<linearGradient id="SVGID_40_" gradientUnits="userSpaceOnUse" x1="-728.9346" y1="436.3452" x2="-803.2276" y2="-980.7249">
		<stop  offset="0" style="stop-color:#00019E"/>
		<stop  offset="0.66" style="stop-color:#003193"/>
		<stop  offset="1" style="stop-color:#003393;stop-opacity:0"/>
	</linearGradient>
	<path class="st39" d="M-730-260.9c-8.5-4.1-16.2-10-24.2-15.1c-19-12.1-38.1-24.1-58.4-37c-0.4,9.2-4.2,16.8,3.2,21.5
		c29.6,19.2,59.4,37.9,89.6,57.1C-716.1-247.4-718.8-255.5-730-260.9z"/>
	<linearGradient id="SVGID_41_" gradientUnits="userSpaceOnUse" x1="-453.7452" y1="421.9178" x2="-528.0382" y2="-995.1522">
		<stop  offset="0" style="stop-color:#00019E"/>
		<stop  offset="0.66" style="stop-color:#003193"/>
		<stop  offset="1" style="stop-color:#003393;stop-opacity:0"/>
	</linearGradient>
	<path class="st40" d="M-445.3-80.1c-20.1-11.7-39.4-24.9-59.2-37.1c-7.3-4.5-13.7-11-23.4-12.5c0,6.9,0,12.7,0,18.5
		c31.1,19.1,62.1,38.3,93.5,57.6C-430.4-67.3-435.1-74.2-445.3-80.1z"/>
	<linearGradient id="SVGID_42_" gradientUnits="userSpaceOnUse" x1="-499.9258" y1="424.339" x2="-574.2188" y2="-992.7311">
		<stop  offset="0" style="stop-color:#00019E"/>
		<stop  offset="0.66" style="stop-color:#003193"/>
		<stop  offset="1" style="stop-color:#003393;stop-opacity:0"/>
	</linearGradient>
	<path class="st41" d="M-527.9-111c0-0.1,0-0.2,0-0.2c-0.1,0-0.1-0.1-0.2-0.1L-527.9-111z"/>
	<linearGradient id="SVGID_43_" gradientUnits="userSpaceOnUse" x1="-249.243" y1="411.1964" x2="-323.536" y2="-1005.8737">
		<stop  offset="0" style="stop-color:#00019E"/>
		<stop  offset="0.66" style="stop-color:#003193"/>
		<stop  offset="1" style="stop-color:#003393;stop-opacity:0"/>
	</linearGradient>
	<path class="st42" d="M-332.4-391.2c28.9,18.3,57.8,36.6,88,55.7c3.9-13.3,0.8-20.6-9.3-26c-12-6.5-23.4-14.4-35-21.8
		c-15.8-10-31.5-20.1-48.8-31.1C-337.4-404.2-340.7-396.5-332.4-391.2z"/>
	<linearGradient id="SVGID_44_" gradientUnits="userSpaceOnUse" x1="-103.6243" y1="403.562" x2="-177.9173" y2="-1013.5081">
		<stop  offset="0" style="stop-color:#00019E"/>
		<stop  offset="0.66" style="stop-color:#003193"/>
		<stop  offset="1" style="stop-color:#003393;stop-opacity:0"/>
	</linearGradient>
	<path class="st43" d="M-147.9-1138.8c-24.4,0-48.8,0-73.3,0.1c23.8,15.7,47.6,31.4,73.3,48.3
		C-147.9-1109-147.9-1123.9-147.9-1138.8z"/>
	<linearGradient id="SVGID_45_" gradientUnits="userSpaceOnUse" x1="-693.93" y1="434.51" x2="-768.223" y2="-982.56">
		<stop  offset="0" style="stop-color:#00019E"/>
		<stop  offset="0.66" style="stop-color:#003193"/>
		<stop  offset="1" style="stop-color:#003393;stop-opacity:0"/>
	</linearGradient>
	<path class="st44" d="M-808-958.5c29,18.2,57.9,36.6,87.9,55.6c3.6-10.8,1.1-16.4-6.6-20.9c-13.7-8-26.9-16.8-40.3-25.3
		c-14.9-9.4-29.7-18.8-46.2-29.3C-813.4-969.1-815.1-962.9-808-958.5z"/>
	<linearGradient id="SVGID_46_" gradientUnits="userSpaceOnUse" x1="-731.4587" y1="436.4776" x2="-805.7517" y2="-980.5925">
		<stop  offset="0" style="stop-color:#00019E"/>
		<stop  offset="0.66" style="stop-color:#003193"/>
		<stop  offset="1" style="stop-color:#003393;stop-opacity:0"/>
	</linearGradient>
	<path class="st45" d="M-728.1-206.7c-14.6-8.5-28.7-18.1-43-27.1c-13.5-8.5-27.1-17-41.5-26c-1.3,9-2.3,15,4.7,19.4
		c29.1,18.2,58,36.6,87.8,55.5C-716.1-196.7-720-202.1-728.1-206.7z"/>
	<linearGradient id="SVGID_47_" gradientUnits="userSpaceOnUse" x1="-456.7136" y1="422.0735" x2="-531.0066" y2="-994.9966">
		<stop  offset="0" style="stop-color:#00019E"/>
		<stop  offset="0.66" style="stop-color:#003193"/>
		<stop  offset="1" style="stop-color:#003393;stop-opacity:0"/>
	</linearGradient>
	<path class="st46" d="M-437.8-12.9c-29.4-18.6-58.8-37.3-89.6-56.9c-0.4,8.2-2.9,14.6,4,19c29.4,18.6,58.7,37.3,88.8,56.4
		C-432.7-2.4-430.8-8.4-437.8-12.9z"/>
	<linearGradient id="SVGID_48_" gradientUnits="userSpaceOnUse" x1="-252.2166" y1="411.3523" x2="-326.5096" y2="-1005.7178">
		<stop  offset="0" style="stop-color:#00019E"/>
		<stop  offset="0.66" style="stop-color:#003193"/>
		<stop  offset="1" style="stop-color:#003393;stop-opacity:0"/>
	</linearGradient>
	<path class="st47" d="M-246.5-294.2c-29.6-19.1-59.3-37.9-89.8-57.2c-1.7,7.9-3.7,14,2.6,18c29.7,19,59.4,37.8,89.9,57.1
		C-242.6-284-240.5-290.3-246.5-294.2z"/>
	<linearGradient id="SVGID_49_" gradientUnits="userSpaceOnUse" x1="-490.1041" y1="423.824" x2="-564.3971" y2="-993.246">
		<stop  offset="0" style="stop-color:#00019E"/>
		<stop  offset="0.66" style="stop-color:#003193"/>
		<stop  offset="1" style="stop-color:#003393;stop-opacity:0"/>
	</linearGradient>
	<path class="st48" d="M-616.5-337.9c27.1,16.7,53.8,34,80.7,50.9c2.4,1.5,5.9,6.9,8.1-0.5c0,0,0,0,0,0
		c30.8,19.1,61.6,38.1,93.3,57.7c3.5-17.8,3.5-31.5-15-39.3c-10.5-4.5-19.7-12.2-29.5-18.4c-15.7-9.9-31.5-19.9-48.6-30.6
		c-0.4,8.2-0.7,13.5-0.9,18.8c-30.9-19.2-61.8-38.4-93.1-57.9C-624.3-348.4-624-342.6-616.5-337.9z"/>
	<linearGradient id="SVGID_50_" gradientUnits="userSpaceOnUse" x1="-149.157" y1="405.9491" x2="-223.45" y2="-1011.1209">
		<stop  offset="0" style="stop-color:#00019E"/>
		<stop  offset="0.66" style="stop-color:#003193"/>
		<stop  offset="1" style="stop-color:#003393;stop-opacity:0"/>
	</linearGradient>
	<path class="st49" d="M-237.7-491.2c29.5,18.6,58.8,37.3,88.6,56.2c2.6-6.9,2.1-11.7-3.4-15.2c-29.4-18.6-58.8-37.4-89.1-56.6
		C-243.1-499.6-243.4-494.7-237.7-491.2z"/>
	<linearGradient id="SVGID_51_" gradientUnits="userSpaceOnUse" x1="-696.6985" y1="434.6552" x2="-770.9915" y2="-982.4149">
		<stop  offset="0" style="stop-color:#00019E"/>
		<stop  offset="0.66" style="stop-color:#003193"/>
		<stop  offset="1" style="stop-color:#003393;stop-opacity:0"/>
	</linearGradient>
	<path class="st50" d="M-808.6-905.6c29.4,18.6,58.8,37.3,88.4,56.2c3-6.8,2.5-11.5-2.9-15c-29.4-18.6-58.8-37.2-88.8-56.2
		C-814.1-913.8-814.3-909.2-808.6-905.6z"/>
	<linearGradient id="SVGID_52_" gradientUnits="userSpaceOnUse" x1="-459.9723" y1="422.2443" x2="-534.2653" y2="-994.8257">
		<stop  offset="0" style="stop-color:#00019E"/>
		<stop  offset="0.66" style="stop-color:#003193"/>
		<stop  offset="1" style="stop-color:#003393;stop-opacity:0"/>
	</linearGradient>
	<path class="st51" d="M-438.2,48.9c-29.4-18.5-58.7-37.2-88.3-56c-2.7,6.8-2.3,11.6,3.2,15.1c29.3,18.6,58.6,37.2,88.2,55.9
		C-431.8,56.8-432.7,52.4-438.2,48.9z"/>
	<linearGradient id="SVGID_53_" gradientUnits="userSpaceOnUse" x1="-734.1393" y1="436.6181" x2="-808.4323" y2="-980.452">
		<stop  offset="0" style="stop-color:#00019E"/>
		<stop  offset="0.66" style="stop-color:#003193"/>
		<stop  offset="1" style="stop-color:#003393;stop-opacity:0"/>
	</linearGradient>
	<path class="st52" d="M-723.7-150.9c-29.4-18.5-58.6-37.1-88.2-55.9c-2.6,6.9-2.2,11.7,3.3,15.1c29.3,18.5,58.6,37.1,88.2,55.9
		C-717.3-143.1-718.1-147.4-723.7-150.9z"/>
	<linearGradient id="SVGID_54_" gradientUnits="userSpaceOnUse" x1="-255.4519" y1="411.5219" x2="-329.7448" y2="-1005.5482">
		<stop  offset="0" style="stop-color:#00019E"/>
		<stop  offset="0.66" style="stop-color:#003193"/>
		<stop  offset="1" style="stop-color:#003393;stop-opacity:0"/>
	</linearGradient>
	<path class="st53" d="M-250.3-234.9c-28.2-17.6-56.2-35.6-85.7-54.3c-2.8,7-2.4,11.5,3.3,15.1c29.4,18.6,58.7,37.3,88.3,56.1
		C-240.7-226.8-244.1-231-250.3-234.9z"/>
	<linearGradient id="SVGID_55_" gradientUnits="userSpaceOnUse" x1="-493.1785" y1="423.9852" x2="-567.4715" y2="-993.0848">
		<stop  offset="0" style="stop-color:#00019E"/>
		<stop  offset="0.66" style="stop-color:#003193"/>
		<stop  offset="1" style="stop-color:#003393;stop-opacity:0"/>
	</linearGradient>
	<path class="st54" d="M-614.6-278.1c25.9,16.3,51.7,32.9,77.7,49.2c2.3,1.5,5.2,6.6,8.7,1.1c0,0,0,0,0,0c0,0,0,0,0,0
		c23.3,10.2,43.1,26.5,65,39.1c9.7,5.5,18.1,13.6,29,16.6c4.7-17.4-0.9-28.6-16.3-35.4c-6.7-3-12.5-7.8-18.8-11.8
		c-19-12-38-23.9-59.1-37.1c0,8.3,0,13.6,0,19c-30.9-19.1-61.8-38.1-93.2-57.5C-625.7-285.8-620.7-281.9-614.6-278.1z"/>
	<linearGradient id="SVGID_56_" gradientUnits="userSpaceOnUse" x1="-259.427" y1="411.7303" x2="-333.72" y2="-1005.3398">
		<stop  offset="0" style="stop-color:#00019E"/>
		<stop  offset="0.66" style="stop-color:#003193"/>
		<stop  offset="1" style="stop-color:#003393;stop-opacity:0"/>
	</linearGradient>
	<path class="st55" d="M-338.4-223c29.5,23.6,61.7,43.1,94.7,64.1C-245.9-170.8-304.3-211.6-338.4-223z"/>
	<linearGradient id="SVGID_57_" gradientUnits="userSpaceOnUse" x1="-496.0423" y1="424.1353" x2="-570.3353" y2="-992.9347">
		<stop  offset="0" style="stop-color:#00019E"/>
		<stop  offset="0.66" style="stop-color:#003193"/>
		<stop  offset="1" style="stop-color:#003393;stop-opacity:0"/>
	</linearGradient>
	<path class="st56" d="M-528-169.4C-528-169.4-528-169.4-528-169.4C-528-169.4-528-169.4-528-169.4c32.5,16.2,61.2,39.1,96.4,58.4
		c-3.5-10.5,3.2-19.8-6-25.8c-29.1-19-58.6-37.4-88.1-56.1c-3.9,6.4-1.8,11.9-2.6,17l0,0v0c-31.1-18.9-62.2-37.9-93.7-57
		c-2.6,8.1,2.2,10.1,6.2,12.6c26.8,17.1,53.6,34.1,80.4,51.1C-533.1-167.6-530.3-164.5-528-169.4z"/>
	<linearGradient id="SVGID_58_" gradientUnits="userSpaceOnUse" x1="-152.3898" y1="406.1186" x2="-226.6828" y2="-1010.9514">
		<stop  offset="0" style="stop-color:#00019E"/>
		<stop  offset="0.66" style="stop-color:#003193"/>
		<stop  offset="1" style="stop-color:#003393;stop-opacity:0"/>
	</linearGradient>
	<path class="st57" d="M-147.4-373.4c-29.5-23.3-61.3-43.4-95.1-64.6C-238.9-424.9-195.1-394.2-147.4-373.4z"/>
	<linearGradient id="SVGID_59_" gradientUnits="userSpaceOnUse" x1="-463.0761" y1="422.407" x2="-537.3691" y2="-994.663">
		<stop  offset="0" style="stop-color:#00019E"/>
		<stop  offset="0.66" style="stop-color:#003193"/>
		<stop  offset="1" style="stop-color:#003393;stop-opacity:0"/>
	</linearGradient>
	<path class="st58" d="M-530,61.9c31.6,20.4,63.3,40.7,94.9,61.1c1.3-2.1,2.7-4.1,4-6.2c-30.6-21.9-63.1-40.9-94.8-61.1
		C-527.3,57.7-528.6,59.8-530,61.9z"/>
	<linearGradient id="SVGID_60_" gradientUnits="userSpaceOnUse" x1="-737.2639" y1="436.7819" x2="-811.5569" y2="-980.2881">
		<stop  offset="0" style="stop-color:#00019E"/>
		<stop  offset="0.66" style="stop-color:#003193"/>
		<stop  offset="1" style="stop-color:#003393;stop-opacity:0"/>
	</linearGradient>
	<path class="st59" d="M-717.4-90.9c-28.3-25.3-63.1-41-93.7-62.9c-1.5,2.2-2.9,4.4-4.4,6.5c31.6,20.4,63.3,40.7,94.9,61.1
		C-719.5-87.7-718.4-89.3-717.4-90.9z"/>
	<linearGradient id="SVGID_61_" gradientUnits="userSpaceOnUse" x1="-699.1205" y1="434.7822" x2="-773.4135" y2="-982.2879">
		<stop  offset="0" style="stop-color:#00019E"/>
		<stop  offset="0.66" style="stop-color:#003193"/>
		<stop  offset="1" style="stop-color:#003393;stop-opacity:0"/>
	</linearGradient>
	<path class="st60" d="M-813.2-864.1c3.9,12.5,59.8,51.2,95.4,64.2C-747.4-823.2-779.1-843.4-813.2-864.1z"/>
	<linearGradient id="SVGID_62_" gradientUnits="userSpaceOnUse" x1="-653.2363" y1="432.3766" x2="-727.5294" y2="-984.6935">
		<stop  offset="0" style="stop-color:#00019E"/>
		<stop  offset="0.66" style="stop-color:#003193"/>
		<stop  offset="1" style="stop-color:#003393;stop-opacity:0"/>
	</linearGradient>
	<path class="st61" d="M-718.3-1138.8c-11.5,0-23.1,0-34.6,0c10.7,7.3,21.4,14.5,34.6,23.4C-718.3-1125.3-718.3-1132-718.3-1138.8z"
		/>
	<linearGradient id="SVGID_63_" gradientUnits="userSpaceOnUse" x1="-748.0423" y1="437.347" x2="-822.3353" y2="-979.7231">
		<stop  offset="0" style="stop-color:#00019E"/>
		<stop  offset="0.66" style="stop-color:#003193"/>
		<stop  offset="1" style="stop-color:#003393;stop-opacity:0"/>
	</linearGradient>
	<path class="st62" d="M-718.4,133.6C-718.4,133.6-718.4,133.6-718.4,133.6c-30.9-19.6-61.7-39.1-95.1-60.3
		c0,11.2,0.7,19.1-0.2,26.8c-1.5,13.1,3.8,20.8,15.9,24.2c17.1,17.2,37.7,28.8,59.5,38.6c5.6,3.3,11.2,6.5,16.9,9.8
		c2.4,2,5.6,2.3,5.6-1.2C-716,158.9-711.9,145.8-718.4,133.6C-718.4,133.6-718.4,133.6-718.4,133.6z"/>
	<linearGradient id="SVGID_64_" gradientUnits="userSpaceOnUse" x1="-544.8337" y1="426.6934" x2="-619.1266" y2="-990.3767">
		<stop  offset="0" style="stop-color:#00019E"/>
		<stop  offset="0.66" style="stop-color:#003193"/>
		<stop  offset="1" style="stop-color:#003393;stop-opacity:0"/>
	</linearGradient>
	<path class="st63" d="M-580-140.7c-0.5,2.8,4.1,5.6,11.1,1.6c-1.5-0.5-3.1-1.2-4.7-1.4C-575.9-140.9-579-146.7-580-140.7z"/>
	<linearGradient id="SVGID_65_" gradientUnits="userSpaceOnUse" x1="-563.8542" y1="427.6906" x2="-638.1472" y2="-989.3795">
		<stop  offset="0" style="stop-color:#00019E"/>
		<stop  offset="0.66" style="stop-color:#003193"/>
		<stop  offset="1" style="stop-color:#003393;stop-opacity:0"/>
	</linearGradient>
	<path class="st64" d="M-599.7-152.1c1.4,1.9,3.9,3.1,6.2,3.9c1,0.4,2.5-0.8,5.3-1.8c-4.8-3.1-6.7-4.9-8.9-5.6
		C-599.9-156.4-601-153.8-599.7-152.1z"/>
	<linearGradient id="SVGID_66_" gradientUnits="userSpaceOnUse" x1="22.2474" y1="396.9629" x2="-52.0456" y2="-1020.1072">
		<stop  offset="0" style="stop-color:#00019E"/>
		<stop  offset="0.66" style="stop-color:#003193"/>
		<stop  offset="1" style="stop-color:#003393;stop-opacity:0"/>
	</linearGradient>
	<path class="st65" d="M-51.6-935.9c-2.2,3.9,3.9,6,8,6.9c0.2-1.2,0.4-2.3,0.7-3.5C-45.3-935.4-49.1-940.3-51.6-935.9z"/>
	<linearGradient id="SVGID_67_" gradientUnits="userSpaceOnUse" x1="-156.222" y1="406.3195" x2="-230.515" y2="-1010.7505">
		<stop  offset="0" style="stop-color:#00019E"/>
		<stop  offset="0.66" style="stop-color:#003193"/>
		<stop  offset="1" style="stop-color:#003393;stop-opacity:0"/>
	</linearGradient>
	<path class="st66" d="M-198.5-336.5C-198.5-336.5-198.5-336.5-198.5-336.5c4.3,4.8,9.6,8.1,15.9,9.7c0,0,0,0,0,0
		c2.9,5,7.9,6.9,12.8,8.9c3.5,3.7,7.6,6.2,12.6,7.3c2,3.7,4.4,6.3,9.2,4.5c-1.8-4.9-4.9-6.9-9.3-7.1c0,0,0,0,0,0c0,0,0,0,0,0
		c-3.4-3.8-7.2-7-12.4-8.1c0,0,0,0,0,0c-3.4-4.3-7.6-7-12.9-8c-4.4-4.9-9.8-8.3-15.9-10.5c-2.5-3.1-5.4-5.3-9.5-5.5
		c-3.4-3.9-7.3-7.1-12.5-8.2c0,0,0,0,0,0c-3.3-4.3-7.9-6.7-12.9-8.5c-1.4-3.1-4-4.7-7.1-5.1c-0.5-0.1-2.2,2.3-1.9,2.9
		c1.4,3.8,4.8,5,8.4,5.7c0,0,0,0,0,0c3.7,4,8.2,6.7,13.4,8.4l0,0v0c3.6,3.5,7.4,6.5,12.6,7c0,0,0,0,0,0
		C-206.2-338.8-202.5-337.3-198.5-336.5z"/>
	<linearGradient id="SVGID_68_" gradientUnits="userSpaceOnUse" x1="-752.694" y1="437.5909" x2="-826.9869" y2="-979.4792">
		<stop  offset="0" style="stop-color:#00019E"/>
		<stop  offset="0.66" style="stop-color:#003193"/>
		<stop  offset="1" style="stop-color:#003393;stop-opacity:0"/>
	</linearGradient>
	<path class="st67" d="M-730.8,181.9C-730.8,181.9-730.8,181.9-730.8,181.9c-6.2-1.9-11.3-5.6-15.9-10.2c-19-17.6-40.1-31.7-64.3-41
		c-7.4,26.8-4.6,34.8,16.8,48.4c14.7,9.3,29.2,19.2,44.2,28c10.1,6,18.9,14.5,31.8,17.9c-1.7-13.2,3.2-25.6-3.2-37.2
		C-717.5,174.3-727.2,183.1-730.8,181.9z M-730.8,181.9c0.7,0.5,1.4,0.9,2.2,1.4C-729.5,182.9-730.2,182.5-730.8,181.9z"/>
	<linearGradient id="SVGID_69_" gradientUnits="userSpaceOnUse" x1="-751.1207" y1="437.5084" x2="-825.4137" y2="-979.5616">
		<stop  offset="0" style="stop-color:#00019E"/>
		<stop  offset="0.66" style="stop-color:#003193"/>
		<stop  offset="1" style="stop-color:#003393;stop-opacity:0"/>
	</linearGradient>
	<path class="st68" d="M-762.9-65.9C-762.9-65.9-762.9-65.9-762.9-65.9c2.7,4.9,7.2,6.4,12.3,7.2c-2.4-5.5-6.6-8.5-12.2-9.6
		c-3.4-3.9-7.3-7.1-12.4-8.2c0,0,0,0,0,0c-3.5-4.1-7.5-7.2-12.9-7.9c-4.3-3.4-7.5-9.6-17.2-5.8c7.1,3.3,12.1,5.6,17.2,8c0,0,0,0,0,0
		c2.6,5.4,7.9,7,12.8,9.2l0,0C-771.8-69.5-768-66.5-762.9-65.9z"/>
	<linearGradient id="SVGID_70_" gradientUnits="userSpaceOnUse" x1="-261.7299" y1="411.851" x2="-336.0228" y2="-1005.2191">
		<stop  offset="0" style="stop-color:#00019E"/>
		<stop  offset="0.66" style="stop-color:#003193"/>
		<stop  offset="1" style="stop-color:#003393;stop-opacity:0"/>
	</linearGradient>
	<path class="st69" d="M-252.3-110.2C-252.3-110.2-252.3-110.2-252.3-110.2C-252.3-110.2-252.3-110.2-252.3-110.2
		c-3.5-3.7-7.2-7-12.4-7.9c0,0,0,0,0,0c-3.4-4.1-7.7-6.8-12.8-8.1c0,0,0,0,0,0l0,0c-4.5-4.8-9.8-8.2-15.9-10.4
		c-2.6-2.6-5.2-5.4-10.1-4.4c0.1,0.1,0.1,0.2,0.2,0.4c-5.7-7.8-10.4-10.2-15.4-12.1l0,0c0,0,0,0,0,0c-3.2-2.1-6.4-4.2-9.6-6.3
		c0,0,0,0,0,0c-2.4-2.9-6-7.8-8.5-3.3c-2.1,3.9,3.8,5.8,7.8,6.8c2.8,3,6,5.5,10.2,6.1c0,0,0,0,0,0c3.2,4,7.2,6.3,15.8,9.1
		c2.3,4.8,5.9,6,9.6,7c0,0,0,0,0,0c4.2,5,9.6,8.1,15.8,9.7c3.1,4.8,8,6.8,13,8.8c3.2,4,7.7,6.1,12.4,7.6c2.2,3.2,4.6,6.1,9.3,4.1
		C-244.9-108-248.1-109.8-252.3-110.2z"/>
	<linearGradient id="SVGID_71_" gradientUnits="userSpaceOnUse" x1="-447.8821" y1="421.6104" x2="-522.175" y2="-995.4596">
		<stop  offset="0" style="stop-color:#00019E"/>
		<stop  offset="0.66" style="stop-color:#003193"/>
		<stop  offset="1" style="stop-color:#003393;stop-opacity:0"/>
	</linearGradient>
	<path class="st70" d="M-461.4,162.5C-461.4,162.5-461.4,162.5-461.4,162.5C-461.4,162.5-461.4,162.5-461.4,162.5L-461.4,162.5
		c-0.1,0-0.2,0-0.2,0c0,0.1,0,0.2,0,0.3l0,0c0,0,0,0,0,0c0,0,0,0,0,0c0,0,0,0,0,0c0.1,0,0.2,0,0.3-0.1
		C-461.3,162.6-461.4,162.6-461.4,162.5L-461.4,162.5z"/>
	<linearGradient id="SVGID_72_" gradientUnits="userSpaceOnUse" x1="-478.0728" y1="423.1933" x2="-552.3658" y2="-993.8768">
		<stop  offset="0" style="stop-color:#00019E"/>
		<stop  offset="0.66" style="stop-color:#003193"/>
		<stop  offset="1" style="stop-color:#003393;stop-opacity:0"/>
	</linearGradient>
	<path class="st71" d="M-471.3,153.6C-471.3,153.6-471.3,153.6-471.3,153.6C-471.3,153.6-471.3,153.6-471.3,153.6
		c-3.5-3.5-7.2-6.6-12.2-7.7c0,0,0,0,0,0c-3.4-4.1-7.5-7.1-12.9-7.9c0,0,0,0,0,0l0,0c-4.3-5.1-9.7-8.4-15.9-10.6
		c-3.2-2.7-5.8-7.2-11.6-4.8c2.9,4.8,6.9,7,11.5,8.1c0,0,0,0,0,0c4.4,4.8,9.6,8.1,15.9,9.5c2.8,5.2,7.9,6.9,12.8,9
		c4.2,2.8,8.4,5.5,12.6,8.3c2.2,3.5,5.4,5.1,9.4,4.9C-461.9,156.4-466,154.3-471.3,153.6z"/>
	<linearGradient id="SVGID_73_" gradientUnits="userSpaceOnUse" x1="-435.2722" y1="420.9493" x2="-509.5652" y2="-996.1207">
		<stop  offset="0" style="stop-color:#00019E"/>
		<stop  offset="0.66" style="stop-color:#003193"/>
		<stop  offset="1" style="stop-color:#003393;stop-opacity:0"/>
	</linearGradient>
	<path class="st72" d="M-445.7,170.2C-445.7,170.2-445.7,170.2-445.7,170.2c-4.3-4.4-8.6-9-15.6-7.5c3.8,5.5,9.2,8.4,15.5,9.8
		c1.9,3.8,4.6,6,10.2,4.9C-438.5,173.2-441.2,170.5-445.7,170.2z"/>
	<linearGradient id="SVGID_74_" gradientUnits="userSpaceOnUse" x1="-577.6107" y1="428.4117" x2="-651.9037" y2="-988.6583">
		<stop  offset="0" style="stop-color:#00019E"/>
		<stop  offset="0.66" style="stop-color:#003193"/>
		<stop  offset="1" style="stop-color:#003393;stop-opacity:0"/>
	</linearGradient>
	<path class="st73" d="M-613.9-163.6c0.9,5,4.2,6,11,7.5C-606.7-161.6-608.9-164.6-613.9-163.6z"/>
	<linearGradient id="SVGID_75_" gradientUnits="userSpaceOnUse" x1="-703.4406" y1="435.0087" x2="-777.7335" y2="-982.0614">
		<stop  offset="0" style="stop-color:#00019E"/>
		<stop  offset="0.66" style="stop-color:#003193"/>
		<stop  offset="1" style="stop-color:#003393;stop-opacity:0"/>
	</linearGradient>
	<path class="st74" d="M-763-771.1C-763-771.1-763-771.1-763-771.1c3.3,4.4,8,6.7,13,8.5c3.5,3.5,7.4,6.5,12.6,7.1c0,0,0,0,0,0
		c3.6,5.1,8,8.5,17,8.5c-6.3-5.6-10.6-9.8-16.9-10.8c0,0,0,0,0,0c-3.5-3.8-7.2-7.1-12.5-8.1c0,0,0,0,0,0c-3.3-4.5-8-6.7-12.9-8.6
		c-2.6-2.3-4.9-5.4-10.7-3.5c-4.7-8.2-9.1-10.8-14.7-12c0,0,0,0,0,0l0,0c-4.4-5-9.9-8.2-15.9-10.8c-2.1-2.9-5.8-7.3-8.2-4.2
		c-3.2,4.2,2,5.7,5.4,6.7c0,0,0,0,0,0c5.8,4.2,11.2,9.2,18.5,10.7c2.7,4.7,7.1,6.4,14.5,9.7c-0.3,0.1-0.6,0.2-1,0.4
		C-769.7-774.9-766.4-773-763-771.1z"/>
	<linearGradient id="SVGID_76_" gradientUnits="userSpaceOnUse" x1="-529.3945" y1="425.8839" x2="-603.6876" y2="-991.1862">
		<stop  offset="0" style="stop-color:#00019E"/>
		<stop  offset="0.66" style="stop-color:#003193"/>
		<stop  offset="1" style="stop-color:#003393;stop-opacity:0"/>
	</linearGradient>
	<path class="st75" d="M-562.9-130.3c2.4,2.4,3.8,7,9,4.6C-555.8-129.8-558.2-131.9-562.9-130.3z"/>
	<linearGradient id="SVGID_77_" gradientUnits="userSpaceOnUse" x1="-712.2759" y1="435.4719" x2="-786.5689" y2="-981.5982">
		<stop  offset="0" style="stop-color:#00019E"/>
		<stop  offset="0.66" style="stop-color:#003193"/>
		<stop  offset="1" style="stop-color:#003393;stop-opacity:0"/>
	</linearGradient>
	<path class="st76" d="M-747.5-56.7c2.1,4.9,5.9,6.2,9.9,7.4c0,0,0,0,0,0c2.4,3.1,4.9,5.6,9.7,4.8c-1.9-5.5-5.6-6.9-9.4-8.2
		C-740.2-55-742.6-58.7-747.5-56.7z"/>
	<linearGradient id="SVGID_78_" gradientUnits="userSpaceOnUse" x1="-510.5407" y1="424.8955" x2="-584.8337" y2="-992.1746">
		<stop  offset="0" style="stop-color:#00019E"/>
		<stop  offset="0.66" style="stop-color:#003193"/>
		<stop  offset="1" style="stop-color:#003393;stop-opacity:0"/>
	</linearGradient>
	<path class="st77" d="M-528.2-111.3c-3.1-1.9-6.2-3.9-9.3-5.8c0,0,0,0,0,0c-3.4-2.7-5.9-7.4-12.2-5.3c1.5,6.3,6.8,7.2,11.2,9.1
		C-535.1-112.5-533-103.9-528.2-111.3z"/>
	<linearGradient id="SVGID_79_" gradientUnits="userSpaceOnUse" x1="-499.9936" y1="424.3425" x2="-574.2866" y2="-992.7275">
		<stop  offset="0" style="stop-color:#00019E"/>
		<stop  offset="0.66" style="stop-color:#003193"/>
		<stop  offset="1" style="stop-color:#003393;stop-opacity:0"/>
	</linearGradient>
	<path class="st78" d="M-528.1-111.4c0,0.1-0.1,0.1-0.1,0.2c0.1,0.1,0.2,0.1,0.3,0.2C-527.9-111-528.1-111.4-528.1-111.4z"/>
</g>
<linearGradient id="SVGID_80_" gradientUnits="userSpaceOnUse" x1="183.2293" y1="1480.6478" x2="473.0637" y2="145.2084">
	<stop  offset="0" style="stop-color:#00019E"/>
	<stop  offset="0.66" style="stop-color:#003193"/>
	<stop  offset="1" style="stop-color:#003393;stop-opacity:0"/>
</linearGradient>
<path class="st79" d="M-13.8,1203.5c46.1-64.8,89-133.3,129.9-205.3c6.9,14.7,13.5,28.8,20.3,43.4c1-1.6,1.8-2.7,2.5-4
	c68.1-120.3,130.1-246,188-375.4c1.2-2.7,1-4.5-0.3-6.9c-7.4-14.1-14.6-28.4-22.1-42.3c-1.9-3.5-1.9-6.1-0.5-10
	c24.8-67.5,50-134.8,74.1-202.8c25.7-72.7,48.8-146.9,70.9-221.7c0.7-2.4,1.5-4.7,2.5-7.8c11,17.9,21.7,35.3,32.8,53.4
	c3.4-11,6.6-21.3,9.8-31.5c20.6-67.4,38.8-136,55.1-205.4c0.8-3.3,1.8-4.5,4.4-4.5c63.3-0.1,126.7-0.3,190-0.6
	c2.3,0,3.8,0.9,5.1,3.4c3.1,5.7,6.2,11.3,9.6,16.6c2,3,1.9,5.6,0.9,9.2c-16.4,55.7-32.6,111.4-48.9,167.1
	C687,257.8,663.2,337.1,634,413.2c-5.7,14.9-11.8,29.4-17.8,44.1c-0.6,1.4-1.2,2.7-2.1,4.6c-10-19-19.8-37.5-29.8-56.7
	c-1.1,2.9-1.9,5.2-2.8,7.4c-39,107.2-80.4,212.7-126.3,315c-14,31.3-28.7,62.1-43.2,93c-1.3,2.8-1.4,4.9-0.1,7.8
	c7,15.6,13.8,31.4,20.7,47c1,2.3,1,3.8-0.1,6.1c-47.4,89.5-94.3,179.5-145.1,265.6c-19.9,33.6-40.2,66.7-63.5,96.3
	c-1,1.2-2,2.3-3.3,3.9c-5.8-14.9-11.5-29.3-17.5-44.7c-1.2,1.8-2,3.2-3,4.6c-35.6,50.7-70.8,102-107,152
	c-33.3,45.9-69.1,88.3-105.9,129.1C-13.2,1393.3-13.5,1298.4-13.8,1203.5z"/>
<linearGradient id="SVGID_81_" gradientUnits="userSpaceOnUse" x1="-23.2235" y1="1435.8408" x2="266.6109" y2="100.4013">
	<stop  offset="0" style="stop-color:#00019E"/>
	<stop  offset="0.66" style="stop-color:#003193"/>
	<stop  offset="1" style="stop-color:#003393;stop-opacity:0"/>
</linearGradient>
<path class="st80" d="M-15.3,751c15.7-38.6,31.8-76.9,47.2-115.7c38-96.3,72.5-194.8,104.2-295c0.9-3,0.7-4.9-1-7.3
	c-8.9-12.7-17.6-25.6-26.5-38.3c-1.8-2.6-2.2-4.6-1.3-8.1c16.8-64.3,33.7-128.4,50-192.9c8.7-34.5,16.4-69.5,24.4-104.4
	c0.9-4,2-5.5,5.4-5.6c80.5-0.1,160.9-0.4,241.4-0.7c1.2,0,2.4,0,3.6,0c0.3,8.4-22.5,96.3-29,111.6c-11.3-17.2-22.4-34.2-34-51.9
	c-0.6,2.2-1,3.8-1.4,5.4c-21.9,85-44.2,169.8-69,253.4c-18.5,62.5-38.3,124.4-60.3,184.9c-1.5,4-1.5,6.6,0.8,10.2
	c8.2,13.1,16.1,26.5,24.2,39.7c1.4,2.3,1.8,4,0.7,6.8c-40.2,105.1-81.4,209.5-128.7,309.3c-14.2,30-29.4,59.1-44.2,88.6
	c-0.6,1.2-1.3,2.3-2.2,3.9c-7.2-14.2-14.1-28-21.4-42.4c-4.8,9.9-9.3,19.2-13.8,28.6c-20.6,42.8-41.5,85.4-65.3,125.3
	c-0.8,1.3-1.8,2.4-2.8,3.6C-14.6,957.1-14.9,854.1-15.3,751z"/>
<linearGradient id="SVGID_82_" gradientUnits="userSpaceOnUse" x1="-255.0591" y1="1385.5248" x2="34.7753" y2="50.0854">
	<stop  offset="0" style="stop-color:#00019E"/>
	<stop  offset="0.66" style="stop-color:#003193"/>
	<stop  offset="1" style="stop-color:#003393;stop-opacity:0"/>
</linearGradient>
<path class="st81" d="M-17.7-15.4c30.6-0.1,61.1-0.2,92.2-0.3c-1.6,8.2-3.1,16-4.7,23.8c-11.3,56.5-22,113.2-36.5,168.5
	c-3,11.3-2.8,11,3.8,19.3c8.1,10.2,16,20.9,23.8,31.5c0.9,1.2,1.3,4.2,0.9,5.9C47,287.4,32.5,341.8,17.2,395.7
	c-9.9,34.8-21,69.1-31.5,103.5c-0.4,1.4-1.1,2.8-1.7,4.1C-16.6,330.4-17.2,157.5-17.7-15.4z"/>
<path class="st82" d="M2041.2,703.7c12.8-5,25.5-10,38.7-15.1c3.2,5.3,6.3,10.2,9.3,15.1C2073.2,703.7,2057.2,703.7,2041.2,703.7z"
	/>
</svg>
