
<svg version="1.1" id="Layer_1" xmlns="http://www.w3.org/2000/svg" x="0" y="0" viewBox="0 0 113 156" xml:space="preserve"><defs><style>.a{fill:#0b2447}</style></defs><path class="a" d="M113 36.6L94.3 0h-1.1l19.4 38 .4.8v-2.2zM19.8 0h-1.1L0 36.6v2.2zM113 114.6L56.9 4.7l-.4-.9L0 114.6v2.2L56.5 6l56.1 110 .4.8v-2.2zM112.6 77.1l.4.9v-2.2L74.4 0h-1.2zM0 78L39.8 0h-1.2L0 75.8V78zM0 156zM113 156z"/><path class="a" d="M56.9 82.7l-.4-.9L18.7 156h1.1l36.7-72 36.7 72h1.1z"/><path class="a" d="M0 156L56.5 45.2l56.1 109.9.4.9v-2.2l-56.1-110-.4-.8L0 153.8v2.2zM19.8 0h-1.1L0 36.6v2.2zM113 36.6L94.3 0h-1.1l19.4 38 .4.8v-2.2z"/><path class="a" d="M56.5 123.2L73.2 156h1.2l-17.5-34.2-.4-.8-17.9 35h1.2z"/></svg>